%TF.GenerationSoftware,KiCad,Pcbnew,7.0.6-0*%
%TF.CreationDate,2024-04-05T07:01:27-03:00*%
%TF.ProjectId,Buoy,42756f79-2e6b-4696-9361-645f70636258,rev?*%
%TF.SameCoordinates,Original*%
%TF.FileFunction,Legend,Bot*%
%TF.FilePolarity,Positive*%
%FSLAX46Y46*%
G04 Gerber Fmt 4.6, Leading zero omitted, Abs format (unit mm)*
G04 Created by KiCad (PCBNEW 7.0.6-0) date 2024-04-05 07:01:27*
%MOMM*%
%LPD*%
G01*
G04 APERTURE LIST*
%ADD10C,0.150000*%
%ADD11C,0.508000*%
%ADD12C,0.127000*%
%ADD13C,0.200000*%
%ADD14C,0.120000*%
G04 APERTURE END LIST*
D10*
X191695676Y-73021627D02*
X191695676Y-73535913D01*
X192595676Y-73278770D02*
X191695676Y-73278770D01*
X192595676Y-73835912D02*
X191695676Y-73835912D01*
X192124247Y-73835912D02*
X192124247Y-74350198D01*
X192595676Y-74350198D02*
X191695676Y-74350198D01*
X192595676Y-75250198D02*
X192595676Y-74735912D01*
X192595676Y-74993055D02*
X191695676Y-74993055D01*
X191695676Y-74993055D02*
X191824247Y-74907341D01*
X191824247Y-74907341D02*
X191909961Y-74821626D01*
X191909961Y-74821626D02*
X191952819Y-74735912D01*
X197314819Y-71413333D02*
X196838628Y-71080000D01*
X197314819Y-70841905D02*
X196314819Y-70841905D01*
X196314819Y-70841905D02*
X196314819Y-71222857D01*
X196314819Y-71222857D02*
X196362438Y-71318095D01*
X196362438Y-71318095D02*
X196410057Y-71365714D01*
X196410057Y-71365714D02*
X196505295Y-71413333D01*
X196505295Y-71413333D02*
X196648152Y-71413333D01*
X196648152Y-71413333D02*
X196743390Y-71365714D01*
X196743390Y-71365714D02*
X196791009Y-71318095D01*
X196791009Y-71318095D02*
X196838628Y-71222857D01*
X196838628Y-71222857D02*
X196838628Y-70841905D01*
X196314819Y-71746667D02*
X196314819Y-72365714D01*
X196314819Y-72365714D02*
X196695771Y-72032381D01*
X196695771Y-72032381D02*
X196695771Y-72175238D01*
X196695771Y-72175238D02*
X196743390Y-72270476D01*
X196743390Y-72270476D02*
X196791009Y-72318095D01*
X196791009Y-72318095D02*
X196886247Y-72365714D01*
X196886247Y-72365714D02*
X197124342Y-72365714D01*
X197124342Y-72365714D02*
X197219580Y-72318095D01*
X197219580Y-72318095D02*
X197267200Y-72270476D01*
X197267200Y-72270476D02*
X197314819Y-72175238D01*
X197314819Y-72175238D02*
X197314819Y-71889524D01*
X197314819Y-71889524D02*
X197267200Y-71794286D01*
X197267200Y-71794286D02*
X197219580Y-71746667D01*
D11*
%TO.C,J7*%
X121082400Y-129185000D02*
G75*
G03*
X121082400Y-129185000I-381000J0D01*
G01*
%TO.C,J14*%
X220321000Y-52422000D02*
G75*
G03*
X220321000Y-52422000I-381000J0D01*
G01*
%TO.C,J8*%
X209042400Y-128705000D02*
G75*
G03*
X209042400Y-128705000I-381000J0D01*
G01*
%TO.C,J11*%
X138401693Y-129185707D02*
G75*
G03*
X138401693Y-129185707I-381000J0D01*
G01*
D12*
%TO.C,TH1*%
X194132500Y-73075000D02*
X194132500Y-74075000D01*
X192902500Y-73075000D02*
X192902500Y-74075000D01*
D13*
X193617500Y-72275000D02*
G75*
G03*
X193617500Y-72275000I-100000J0D01*
G01*
D14*
%TO.C,R3*%
X196462500Y-74177936D02*
X196462500Y-74632064D01*
X194992500Y-74177936D02*
X194992500Y-74632064D01*
%TD*%
M02*
