%TF.GenerationSoftware,KiCad,Pcbnew,7.0.6-0*%
%TF.CreationDate,2024-04-05T07:01:27-03:00*%
%TF.ProjectId,Buoy,42756f79-2e6b-4696-9361-645f70636258,rev?*%
%TF.SameCoordinates,Original*%
%TF.FileFunction,Copper,L3,Inr*%
%TF.FilePolarity,Positive*%
%FSLAX46Y46*%
G04 Gerber Fmt 4.6, Leading zero omitted, Abs format (unit mm)*
G04 Created by KiCad (PCBNEW 7.0.6-0) date 2024-04-05 07:01:27*
%MOMM*%
%LPD*%
G01*
G04 APERTURE LIST*
%TA.AperFunction,ComponentPad*%
%ADD10C,2.600000*%
%TD*%
%TA.AperFunction,ComponentPad*%
%ADD11C,1.803400*%
%TD*%
%TA.AperFunction,ComponentPad*%
%ADD12O,2.200000X4.400000*%
%TD*%
%TA.AperFunction,ComponentPad*%
%ADD13O,2.000000X4.000000*%
%TD*%
%TA.AperFunction,ComponentPad*%
%ADD14O,4.000000X2.000000*%
%TD*%
%TA.AperFunction,ViaPad*%
%ADD15C,0.609600*%
%TD*%
%TA.AperFunction,ViaPad*%
%ADD16C,1.016000*%
%TD*%
G04 APERTURE END LIST*
D10*
%TO.N,/Non-Batman*%
%TO.C,SW4*%
X185440000Y-93180000D03*
%TO.N,/Bat_out*%
X190140000Y-93180000D03*
%TO.N,/Batman*%
X194840000Y-93180000D03*
%TD*%
%TO.N,Net-(SW2-A)*%
%TO.C,SW2*%
X177277500Y-77732500D03*
%TO.N,Net-(J14-Pin_1)*%
X172577500Y-77732500D03*
%TO.N,PGND*%
X167877500Y-77732500D03*
%TD*%
D11*
%TO.N,Net-(J7-Pin_1)*%
%TO.C,J7*%
X124003400Y-129185000D03*
%TO.N,PGND*%
X129083400Y-129185000D03*
%TD*%
D12*
%TO.N,/PV_connection*%
%TO.C,J5*%
X91161750Y-111313500D03*
D13*
%TO.N,PGND*%
X85161750Y-111313500D03*
D14*
X88161750Y-116013500D03*
%TD*%
D12*
%TO.N,/PV_connection*%
%TO.C,J2*%
X91161750Y-76063500D03*
D13*
%TO.N,PGND*%
X85161750Y-76063500D03*
D14*
X88161750Y-80763500D03*
%TD*%
D12*
%TO.N,/PV_connection*%
%TO.C,J1*%
X91161750Y-64313500D03*
D13*
%TO.N,PGND*%
X85161750Y-64313500D03*
D14*
X88161750Y-69013500D03*
%TD*%
D10*
%TO.N,/Non-Batman*%
%TO.C,SW3*%
X185330000Y-102860000D03*
%TO.N,/Bat_in*%
X190030000Y-102860000D03*
%TO.N,/Batman*%
X194730000Y-102860000D03*
%TD*%
D12*
%TO.N,/PV_connection*%
%TO.C,J3*%
X91161750Y-87813500D03*
D13*
%TO.N,PGND*%
X85161750Y-87813500D03*
D14*
X88161750Y-92513500D03*
%TD*%
D11*
%TO.N,Net-(J14-Pin_1)*%
%TO.C,J14*%
X219940000Y-49120000D03*
%TO.N,/Bat_in*%
X219940000Y-44040000D03*
%TD*%
D12*
%TO.N,/PV_connection*%
%TO.C,J4*%
X91161750Y-99563500D03*
D13*
%TO.N,PGND*%
X85161750Y-99563500D03*
D14*
X88161750Y-104263500D03*
%TD*%
D12*
%TO.N,/PV_connection*%
%TO.C,J6*%
X91161750Y-123063500D03*
D13*
%TO.N,PGND*%
X85161750Y-123063500D03*
D14*
X88161750Y-127763500D03*
%TD*%
D11*
%TO.N,/Bat_out*%
%TO.C,J8*%
X211963400Y-128705000D03*
%TO.N,PGND*%
X217043400Y-128705000D03*
%TD*%
D10*
%TO.N,unconnected-(SW1-A-Pad1)*%
%TO.C,SW1*%
X114220000Y-58800000D03*
%TO.N,/V_solar_in*%
X118920000Y-58800000D03*
%TO.N,/V_solar_out*%
X123620000Y-58800000D03*
%TD*%
D11*
%TO.N,/3.4V*%
%TO.C,J11*%
X141322693Y-129185707D03*
%TO.N,PGND*%
X146402693Y-129185707D03*
%TD*%
D15*
%TO.N,PGND*%
X150860000Y-85240000D03*
X157420000Y-115510000D03*
X149980000Y-85230000D03*
D16*
X210100000Y-99050000D03*
D15*
X149960000Y-85940000D03*
D16*
X200770000Y-122540000D03*
X196290000Y-82750000D03*
D15*
X150860000Y-85950000D03*
D16*
X195415000Y-122355000D03*
D15*
X157420000Y-117110000D03*
D16*
X209550000Y-103175000D03*
X198020000Y-122190000D03*
X207840000Y-116790000D03*
X193830000Y-119730000D03*
D15*
X163270000Y-119360000D03*
D16*
X184705000Y-80957500D03*
X198590000Y-61380000D03*
X188720000Y-80580000D03*
X180620000Y-124360000D03*
X192060000Y-82460000D03*
X188555000Y-69230000D03*
X181900000Y-61640000D03*
D15*
X157430000Y-116330000D03*
X175490000Y-67820000D03*
X164590000Y-119340000D03*
%TO.N,Net-(J10-Pin_5)*%
X190170000Y-74285000D03*
%TD*%
M02*
