%TF.GenerationSoftware,KiCad,Pcbnew,7.0.6-0*%
%TF.CreationDate,2024-04-24T17:51:10-03:00*%
%TF.ProjectId,Buoy,42756f79-2e6b-4696-9361-645f70636258,rev?*%
%TF.SameCoordinates,Original*%
%TF.FileFunction,Soldermask,Top*%
%TF.FilePolarity,Negative*%
%FSLAX46Y46*%
G04 Gerber Fmt 4.6, Leading zero omitted, Abs format (unit mm)*
G04 Created by KiCad (PCBNEW 7.0.6-0) date 2024-04-24 17:51:10*
%MOMM*%
%LPD*%
G01*
G04 APERTURE LIST*
G04 Aperture macros list*
%AMRoundRect*
0 Rectangle with rounded corners*
0 $1 Rounding radius*
0 $2 $3 $4 $5 $6 $7 $8 $9 X,Y pos of 4 corners*
0 Add a 4 corners polygon primitive as box body*
4,1,4,$2,$3,$4,$5,$6,$7,$8,$9,$2,$3,0*
0 Add four circle primitives for the rounded corners*
1,1,$1+$1,$2,$3*
1,1,$1+$1,$4,$5*
1,1,$1+$1,$6,$7*
1,1,$1+$1,$8,$9*
0 Add four rect primitives between the rounded corners*
20,1,$1+$1,$2,$3,$4,$5,0*
20,1,$1+$1,$4,$5,$6,$7,0*
20,1,$1+$1,$6,$7,$8,$9,0*
20,1,$1+$1,$8,$9,$2,$3,0*%
G04 Aperture macros list end*
%ADD10C,0.010000*%
%ADD11RoundRect,0.250000X0.400000X1.075000X-0.400000X1.075000X-0.400000X-1.075000X0.400000X-1.075000X0*%
%ADD12RoundRect,0.250000X-0.412500X-1.100000X0.412500X-1.100000X0.412500X1.100000X-0.412500X1.100000X0*%
%ADD13R,1.000000X1.000000*%
%ADD14R,2.510000X1.000000*%
%ADD15RoundRect,0.102000X-0.465000X0.405000X-0.465000X-0.405000X0.465000X-0.405000X0.465000X0.405000X0*%
%ADD16RoundRect,0.237500X0.250000X0.237500X-0.250000X0.237500X-0.250000X-0.237500X0.250000X-0.237500X0*%
%ADD17C,2.200000*%
%ADD18RoundRect,0.250000X0.625000X-0.400000X0.625000X0.400000X-0.625000X0.400000X-0.625000X-0.400000X0*%
%ADD19RoundRect,0.237500X-0.237500X0.300000X-0.237500X-0.300000X0.237500X-0.300000X0.237500X0.300000X0*%
%ADD20RoundRect,0.250000X-0.650000X0.412500X-0.650000X-0.412500X0.650000X-0.412500X0.650000X0.412500X0*%
%ADD21RoundRect,0.250000X-0.450000X0.350000X-0.450000X-0.350000X0.450000X-0.350000X0.450000X0.350000X0*%
%ADD22C,2.804000*%
%ADD23RoundRect,0.250000X-0.475000X0.337500X-0.475000X-0.337500X0.475000X-0.337500X0.475000X0.337500X0*%
%ADD24RoundRect,0.250000X-1.100000X0.412500X-1.100000X-0.412500X1.100000X-0.412500X1.100000X0.412500X0*%
%ADD25RoundRect,0.190500X0.516500X0.206500X-0.516500X0.206500X-0.516500X-0.206500X0.516500X-0.206500X0*%
%ADD26RoundRect,0.160000X-0.160000X0.197500X-0.160000X-0.197500X0.160000X-0.197500X0.160000X0.197500X0*%
%ADD27RoundRect,0.102000X-0.700000X-0.695000X0.700000X-0.695000X0.700000X0.695000X-0.700000X0.695000X0*%
%ADD28RoundRect,0.102000X-2.430000X-1.680000X2.430000X-1.680000X2.430000X1.680000X-2.430000X1.680000X0*%
%ADD29RoundRect,0.250000X0.475000X-0.337500X0.475000X0.337500X-0.475000X0.337500X-0.475000X-0.337500X0*%
%ADD30RoundRect,0.250000X-0.625000X0.400000X-0.625000X-0.400000X0.625000X-0.400000X0.625000X0.400000X0*%
%ADD31RoundRect,0.249999X-0.450001X-1.425001X0.450001X-1.425001X0.450001X1.425001X-0.450001X1.425001X0*%
%ADD32RoundRect,0.250000X-0.400000X-1.075000X0.400000X-1.075000X0.400000X1.075000X-0.400000X1.075000X0*%
%ADD33RoundRect,0.102000X0.660400X0.279400X-0.660400X0.279400X-0.660400X-0.279400X0.660400X-0.279400X0*%
%ADD34RoundRect,0.102000X0.305000X-0.635000X0.305000X0.635000X-0.305000X0.635000X-0.305000X-0.635000X0*%
%ADD35RoundRect,0.162000X0.615000X-0.240000X0.615000X0.240000X-0.615000X0.240000X-0.615000X-0.240000X0*%
%ADD36RoundRect,0.150000X0.512500X0.150000X-0.512500X0.150000X-0.512500X-0.150000X0.512500X-0.150000X0*%
%ADD37RoundRect,0.160000X-0.197500X-0.160000X0.197500X-0.160000X0.197500X0.160000X-0.197500X0.160000X0*%
%ADD38RoundRect,0.250000X-0.400000X-0.625000X0.400000X-0.625000X0.400000X0.625000X-0.400000X0.625000X0*%
%ADD39C,1.803400*%
%ADD40RoundRect,0.237500X-0.237500X0.250000X-0.237500X-0.250000X0.237500X-0.250000X0.237500X0.250000X0*%
%ADD41RoundRect,0.249999X-1.075001X0.450001X-1.075001X-0.450001X1.075001X-0.450001X1.075001X0.450001X0*%
%ADD42RoundRect,0.100000X-0.637500X-0.100000X0.637500X-0.100000X0.637500X0.100000X-0.637500X0.100000X0*%
%ADD43RoundRect,0.250000X-0.250000X0.250000X-0.250000X-0.250000X0.250000X-0.250000X0.250000X0.250000X0*%
%ADD44O,2.404000X4.604000*%
%ADD45O,2.204000X4.204000*%
%ADD46O,4.204000X2.204000*%
%ADD47RoundRect,0.249999X0.450001X1.075001X-0.450001X1.075001X-0.450001X-1.075001X0.450001X-1.075001X0*%
%ADD48RoundRect,0.250000X-0.350000X-0.450000X0.350000X-0.450000X0.350000X0.450000X-0.350000X0.450000X0*%
%ADD49RoundRect,0.250000X0.350000X0.450000X-0.350000X0.450000X-0.350000X-0.450000X0.350000X-0.450000X0*%
%ADD50RoundRect,0.108900X-0.108100X0.368100X-0.108100X-0.368100X0.108100X-0.368100X0.108100X0.368100X0*%
%ADD51RoundRect,0.108900X-0.368100X-0.108100X0.368100X-0.108100X0.368100X0.108100X-0.368100X0.108100X0*%
%ADD52RoundRect,0.102000X-1.070000X1.070000X-1.070000X-1.070000X1.070000X-1.070000X1.070000X1.070000X0*%
%ADD53R,1.903000X2.790000*%
%ADD54RoundRect,0.237500X0.300000X0.237500X-0.300000X0.237500X-0.300000X-0.237500X0.300000X-0.237500X0*%
%ADD55RoundRect,0.250000X0.337500X0.475000X-0.337500X0.475000X-0.337500X-0.475000X0.337500X-0.475000X0*%
%ADD56R,1.000000X2.510000*%
%ADD57RoundRect,0.250000X1.075000X-0.400000X1.075000X0.400000X-1.075000X0.400000X-1.075000X-0.400000X0*%
%ADD58RoundRect,0.102000X-0.635000X-0.305000X0.635000X-0.305000X0.635000X0.305000X-0.635000X0.305000X0*%
%ADD59R,3.100000X5.000000*%
%ADD60RoundRect,0.155000X-0.212500X-0.155000X0.212500X-0.155000X0.212500X0.155000X-0.212500X0.155000X0*%
%ADD61RoundRect,0.237500X-0.250000X-0.237500X0.250000X-0.237500X0.250000X0.237500X-0.250000X0.237500X0*%
%ADD62RoundRect,0.250000X-0.337500X-0.475000X0.337500X-0.475000X0.337500X0.475000X-0.337500X0.475000X0*%
%ADD63R,1.900000X0.800000*%
%ADD64R,0.279400X0.606400*%
%ADD65RoundRect,0.250000X0.412500X0.650000X-0.412500X0.650000X-0.412500X-0.650000X0.412500X-0.650000X0*%
G04 APERTURE END LIST*
%TO.C,Q1*%
D10*
X173580000Y-60910000D02*
X174040000Y-60910000D01*
X174040000Y-60205000D01*
X174850000Y-60205000D01*
X174850000Y-61010000D01*
X174875000Y-61010000D01*
X174875000Y-64925000D01*
X173025000Y-64925000D01*
X173025000Y-61425000D01*
X172770000Y-61425000D01*
X172770000Y-60205000D01*
X173580000Y-60205000D01*
X173580000Y-60910000D01*
G36*
X173580000Y-60910000D02*
G01*
X174040000Y-60910000D01*
X174040000Y-60205000D01*
X174850000Y-60205000D01*
X174850000Y-61010000D01*
X174875000Y-61010000D01*
X174875000Y-64925000D01*
X173025000Y-64925000D01*
X173025000Y-61425000D01*
X172770000Y-61425000D01*
X172770000Y-60205000D01*
X173580000Y-60205000D01*
X173580000Y-60910000D01*
G37*
X176120000Y-60910000D02*
X176580000Y-60910000D01*
X176580000Y-60205000D01*
X177390000Y-60205000D01*
X177390000Y-61425000D01*
X177135000Y-61425000D01*
X177135000Y-64925000D01*
X175285000Y-64925000D01*
X175285000Y-61010000D01*
X175310000Y-61010000D01*
X175310000Y-60205000D01*
X176120000Y-60205000D01*
X176120000Y-60910000D01*
G36*
X176120000Y-60910000D02*
G01*
X176580000Y-60910000D01*
X176580000Y-60205000D01*
X177390000Y-60205000D01*
X177390000Y-61425000D01*
X177135000Y-61425000D01*
X177135000Y-64925000D01*
X175285000Y-64925000D01*
X175285000Y-61010000D01*
X175310000Y-61010000D01*
X175310000Y-60205000D01*
X176120000Y-60205000D01*
X176120000Y-60910000D01*
G37*
%TO.C,Q4*%
X161755000Y-85387500D02*
X161050000Y-85387500D01*
X161050000Y-85847500D01*
X161755000Y-85847500D01*
X161755000Y-86657500D01*
X160950000Y-86657500D01*
X160950000Y-86682500D01*
X157035000Y-86682500D01*
X157035000Y-84832500D01*
X160535000Y-84832500D01*
X160535000Y-84577500D01*
X161755000Y-84577500D01*
X161755000Y-85387500D01*
G36*
X161755000Y-85387500D02*
G01*
X161050000Y-85387500D01*
X161050000Y-85847500D01*
X161755000Y-85847500D01*
X161755000Y-86657500D01*
X160950000Y-86657500D01*
X160950000Y-86682500D01*
X157035000Y-86682500D01*
X157035000Y-84832500D01*
X160535000Y-84832500D01*
X160535000Y-84577500D01*
X161755000Y-84577500D01*
X161755000Y-85387500D01*
G37*
X160950000Y-87117500D02*
X161755000Y-87117500D01*
X161755000Y-87927500D01*
X161050000Y-87927500D01*
X161050000Y-88387500D01*
X161755000Y-88387500D01*
X161755000Y-89197500D01*
X160535000Y-89197500D01*
X160535000Y-88942500D01*
X157035000Y-88942500D01*
X157035000Y-87092500D01*
X160950000Y-87092500D01*
X160950000Y-87117500D01*
G36*
X160950000Y-87117500D02*
G01*
X161755000Y-87117500D01*
X161755000Y-87927500D01*
X161050000Y-87927500D01*
X161050000Y-88387500D01*
X161755000Y-88387500D01*
X161755000Y-89197500D01*
X160535000Y-89197500D01*
X160535000Y-88942500D01*
X157035000Y-88942500D01*
X157035000Y-87092500D01*
X160950000Y-87092500D01*
X160950000Y-87117500D01*
G37*
%TD*%
D11*
%TO.C,R18*%
X186729264Y-119590000D03*
X183629264Y-119590000D03*
%TD*%
D12*
%TO.C,CBJ3*%
X99704250Y-91483500D03*
X102829250Y-91483500D03*
%TD*%
D13*
%TO.C,TP10*%
X131695000Y-86677500D03*
%TD*%
D12*
%TO.C,CBJ1*%
X99704250Y-68623500D03*
X102829250Y-68623500D03*
%TD*%
D14*
%TO.C,J13*%
X220500000Y-65220000D03*
X217190000Y-67760000D03*
X220500000Y-70300000D03*
X217190000Y-72840000D03*
X220500000Y-75380000D03*
X217190000Y-77920000D03*
%TD*%
D12*
%TO.C,CBJ4*%
X99704250Y-104183500D03*
X102829250Y-104183500D03*
%TD*%
D15*
%TO.C,D2*%
X139205000Y-76767500D03*
X139205000Y-75147500D03*
%TD*%
D16*
%TO.C,R7*%
X121421750Y-86263500D03*
X119596750Y-86263500D03*
%TD*%
D17*
%TO.C,*%
X80230000Y-136590000D03*
%TD*%
D13*
%TO.C,TP17*%
X198230000Y-88300000D03*
%TD*%
D18*
%TO.C,R30*%
X173230000Y-72080000D03*
X173230000Y-68980000D03*
%TD*%
D19*
%TO.C,C9*%
X195420000Y-118857500D03*
X195420000Y-120582500D03*
%TD*%
D20*
%TO.C,C20*%
X129218000Y-115407500D03*
X129218000Y-118532500D03*
%TD*%
D13*
%TO.C,TP8*%
X186689264Y-115957500D03*
%TD*%
D21*
%TO.C,R4*%
X139275000Y-79107500D03*
X139275000Y-81107500D03*
%TD*%
D22*
%TO.C,SW4*%
X185440000Y-93180000D03*
X190140000Y-93180000D03*
X194840000Y-93180000D03*
%TD*%
D23*
%TO.C,C32*%
X198607500Y-63157500D03*
X198607500Y-65232500D03*
%TD*%
D24*
%TO.C,C11*%
X180579264Y-119455000D03*
X180579264Y-122580000D03*
%TD*%
D19*
%TO.C,C12*%
X161200000Y-115277500D03*
X161200000Y-117002500D03*
%TD*%
D25*
%TO.C,U3*%
X205922500Y-118652500D03*
X205922500Y-117702500D03*
X205922500Y-116752500D03*
X203412500Y-116752500D03*
X203412500Y-118652500D03*
%TD*%
D26*
%TO.C,R9*%
X124667500Y-75532500D03*
X124667500Y-76727500D03*
%TD*%
D23*
%TO.C,C4*%
X127460000Y-74212500D03*
X127460000Y-76287500D03*
%TD*%
D17*
%TO.C,*%
X222520000Y-43800000D03*
%TD*%
D22*
%TO.C,SW2*%
X177277500Y-77732500D03*
X172577500Y-77732500D03*
X167877500Y-77732500D03*
%TD*%
D27*
%TO.C,D4*%
X106808250Y-77743500D03*
X106808250Y-79583500D03*
D28*
X110790250Y-78663500D03*
%TD*%
D29*
%TO.C,C24*%
X203790000Y-71297500D03*
X203790000Y-69222500D03*
%TD*%
D14*
%TO.C,J9*%
X222520000Y-104660000D03*
X219210000Y-107200000D03*
X222520000Y-109740000D03*
%TD*%
D30*
%TO.C,R11*%
X151480000Y-70690000D03*
X151480000Y-73790000D03*
%TD*%
D31*
%TO.C,RBJ5*%
X96767750Y-110583500D03*
X102867750Y-110583500D03*
%TD*%
D29*
%TO.C,C21*%
X203720000Y-83767500D03*
X203720000Y-81692500D03*
%TD*%
D32*
%TO.C,R23*%
X208290000Y-82450000D03*
X211390000Y-82450000D03*
%TD*%
D13*
%TO.C,TP14*%
X127600000Y-68460000D03*
%TD*%
D33*
%TO.C,Q2*%
X188343500Y-72390200D03*
X188343500Y-70459800D03*
X186311500Y-71425000D03*
%TD*%
D34*
%TO.C,Q1*%
X173175000Y-66280000D03*
X174445000Y-66280000D03*
X175715000Y-66280000D03*
X176985000Y-66280000D03*
%TD*%
D32*
%TO.C,R28*%
X207840000Y-59390000D03*
X210940000Y-59390000D03*
%TD*%
D13*
%TO.C,TP2*%
X141620000Y-113130000D03*
%TD*%
%TO.C,TP4*%
X212161000Y-117180000D03*
%TD*%
D27*
%TO.C,D9*%
X107008250Y-124503500D03*
X107008250Y-126343500D03*
D28*
X110990250Y-125423500D03*
%TD*%
D18*
%TO.C,R32*%
X184097500Y-71635000D03*
X184097500Y-68535000D03*
%TD*%
D35*
%TO.C,U6*%
X134048000Y-115290000D03*
X134048000Y-114340000D03*
X134048000Y-113390000D03*
X131678000Y-113390000D03*
X131678000Y-115290000D03*
%TD*%
D12*
%TO.C,CBJ2*%
X99704250Y-81323500D03*
X102829250Y-81323500D03*
%TD*%
D36*
%TO.C,U1*%
X192049264Y-120680000D03*
X192049264Y-119730000D03*
X192049264Y-118780000D03*
X189774264Y-118780000D03*
X189774264Y-120680000D03*
%TD*%
D15*
%TO.C,D3*%
X134575000Y-76767500D03*
X134575000Y-75147500D03*
%TD*%
D23*
%TO.C,C36*%
X152590000Y-115882500D03*
X152590000Y-117957500D03*
%TD*%
D37*
%TO.C,R10*%
X206860000Y-103148750D03*
X208055000Y-103148750D03*
%TD*%
D29*
%TO.C,C26*%
X203830000Y-63097500D03*
X203830000Y-61022500D03*
%TD*%
D27*
%TO.C,D7*%
X107008250Y-100723500D03*
X107008250Y-102563500D03*
D28*
X110990250Y-101643500D03*
%TD*%
D38*
%TO.C,R20*%
X154530000Y-50960000D03*
X157630000Y-50960000D03*
%TD*%
D39*
%TO.C,J7*%
X124003400Y-129185000D03*
X129083400Y-129185000D03*
%TD*%
D40*
%TO.C,R8*%
X124982500Y-70137500D03*
X124982500Y-71962500D03*
%TD*%
D41*
%TO.C,R6_SR1*%
X180250000Y-91720000D03*
X180250000Y-96520000D03*
%TD*%
D42*
%TO.C,U4*%
X192002500Y-69825000D03*
X192002500Y-70475000D03*
X192002500Y-71125000D03*
X192002500Y-71775000D03*
X192002500Y-72425000D03*
X192002500Y-73075000D03*
X192002500Y-73725000D03*
X192002500Y-74375000D03*
X192002500Y-75025000D03*
X192002500Y-75675000D03*
X197727500Y-75675000D03*
X197727500Y-75025000D03*
X197727500Y-74375000D03*
X197727500Y-73725000D03*
X197727500Y-73075000D03*
X197727500Y-72425000D03*
X197727500Y-71775000D03*
X197727500Y-71125000D03*
X197727500Y-70475000D03*
X197727500Y-69825000D03*
%TD*%
D13*
%TO.C,TP13*%
X161910000Y-79020000D03*
%TD*%
%TO.C,TP16*%
X180780000Y-99880000D03*
%TD*%
D43*
%TO.C,D10*%
X180727500Y-68605000D03*
X180727500Y-71105000D03*
%TD*%
D13*
%TO.C,TP3*%
X202490000Y-98938750D03*
%TD*%
D30*
%TO.C,R31*%
X177257500Y-68535000D03*
X177257500Y-71635000D03*
%TD*%
D13*
%TO.C,TP20*%
X122340000Y-74250000D03*
%TD*%
D44*
%TO.C,J5*%
X91161750Y-111313500D03*
D45*
X85161750Y-111313500D03*
D46*
X88161750Y-116013500D03*
%TD*%
D37*
%TO.C,R37*%
X136265000Y-89260000D03*
X137460000Y-89260000D03*
%TD*%
D32*
%TO.C,R24*%
X208190000Y-77780000D03*
X211290000Y-77780000D03*
%TD*%
D47*
%TO.C,R29*%
X192907500Y-59335000D03*
X188107500Y-59335000D03*
%TD*%
D20*
%TO.C,C19*%
X136518000Y-115597500D03*
X136518000Y-118722500D03*
%TD*%
D32*
%TO.C,R26*%
X207940000Y-68490000D03*
X211040000Y-68490000D03*
%TD*%
D13*
%TO.C,TP1*%
X129070000Y-110420000D03*
%TD*%
D47*
%TO.C,R12*%
X206990000Y-113042500D03*
X202190000Y-113042500D03*
%TD*%
D23*
%TO.C,C2*%
X200750000Y-118685000D03*
X200750000Y-120760000D03*
%TD*%
D12*
%TO.C,CBJ6*%
X99704250Y-127043500D03*
X102829250Y-127043500D03*
%TD*%
D32*
%TO.C,R27*%
X207890000Y-63960000D03*
X210990000Y-63960000D03*
%TD*%
D26*
%TO.C,R21*%
X157220000Y-118672500D03*
X157220000Y-119867500D03*
%TD*%
D48*
%TO.C,R22*%
X158970000Y-119340000D03*
X160970000Y-119340000D03*
%TD*%
D44*
%TO.C,J2*%
X91161750Y-76063500D03*
D45*
X85161750Y-76063500D03*
D46*
X88161750Y-80763500D03*
%TD*%
D13*
%TO.C,TP15*%
X180340000Y-87820000D03*
%TD*%
D27*
%TO.C,D5*%
X107008250Y-88023500D03*
X107008250Y-89863500D03*
D28*
X110990250Y-88943500D03*
%TD*%
D26*
%TO.C,R16*%
X169540000Y-114490000D03*
X169540000Y-115685000D03*
%TD*%
D49*
%TO.C,R15*%
X140671250Y-97751250D03*
X138671250Y-97751250D03*
%TD*%
D13*
%TO.C,TP19*%
X121130000Y-70210000D03*
%TD*%
D50*
%TO.C,U2*%
X151155000Y-83882500D03*
X150655000Y-83882500D03*
X150155000Y-83882500D03*
X149655000Y-83882500D03*
D51*
X148680000Y-84857500D03*
X148680000Y-85357500D03*
X148680000Y-85857500D03*
X148680000Y-86357500D03*
D50*
X149655000Y-87332500D03*
X150155000Y-87332500D03*
X150655000Y-87332500D03*
X151155000Y-87332500D03*
D51*
X152130000Y-86357500D03*
X152130000Y-85857500D03*
X152130000Y-85357500D03*
X152130000Y-84857500D03*
D52*
X150405000Y-85607500D03*
%TD*%
D31*
%TO.C,RBJ2*%
X96654250Y-76243500D03*
X102754250Y-76243500D03*
%TD*%
D17*
%TO.C,*%
X221850000Y-136390000D03*
%TD*%
D53*
%TO.C,L2*%
X158010000Y-111560000D03*
X153157000Y-111560000D03*
%TD*%
D49*
%TO.C,R13*%
X145198750Y-97740000D03*
X143198750Y-97740000D03*
%TD*%
D13*
%TO.C,TP7*%
X177139264Y-117987500D03*
%TD*%
D44*
%TO.C,J1*%
X91161750Y-64313500D03*
D45*
X85161750Y-64313500D03*
D46*
X88161750Y-69013500D03*
%TD*%
D22*
%TO.C,SW3*%
X185330000Y-102860000D03*
X190030000Y-102860000D03*
X194730000Y-102860000D03*
%TD*%
D54*
%TO.C,C15*%
X142815000Y-94410000D03*
X141090000Y-94410000D03*
%TD*%
D55*
%TO.C,C14*%
X149347500Y-90860000D03*
X147272500Y-90860000D03*
%TD*%
D56*
%TO.C,J10*%
X162690000Y-46390000D03*
X160150000Y-43080000D03*
X157610000Y-46390000D03*
X155070000Y-43080000D03*
X152530000Y-46390000D03*
%TD*%
D24*
%TO.C,C29*%
X192027500Y-77732500D03*
X192027500Y-80857500D03*
%TD*%
D57*
%TO.C,R34*%
X194667500Y-66065000D03*
X194667500Y-62965000D03*
%TD*%
D29*
%TO.C,C31*%
X182837500Y-65242500D03*
X182837500Y-63167500D03*
%TD*%
D32*
%TO.C,R33*%
X190610000Y-85000000D03*
X193710000Y-85000000D03*
%TD*%
D24*
%TO.C,C17*%
X163860000Y-114487500D03*
X163860000Y-117612500D03*
%TD*%
D44*
%TO.C,J3*%
X91161750Y-87813500D03*
D45*
X85161750Y-87813500D03*
D46*
X88161750Y-92513500D03*
%TD*%
D58*
%TO.C,Q4*%
X155680000Y-84982500D03*
X155680000Y-86252500D03*
X155680000Y-87522500D03*
X155680000Y-88792500D03*
%TD*%
D13*
%TO.C,TP11*%
X143445000Y-73868750D03*
%TD*%
D39*
%TO.C,J14*%
X212955000Y-49516600D03*
X212955000Y-44436600D03*
%TD*%
D59*
%TO.C,L1*%
X164800000Y-89450000D03*
X175900000Y-89450000D03*
%TD*%
D13*
%TO.C,TP9*%
X108021750Y-55473500D03*
%TD*%
D24*
%TO.C,C28*%
X196267500Y-77762500D03*
X196267500Y-80887500D03*
%TD*%
D60*
%TO.C,C18*%
X158555000Y-121180000D03*
X159690000Y-121180000D03*
%TD*%
D24*
%TO.C,C8*%
X176580000Y-99437500D03*
X176580000Y-102562500D03*
%TD*%
D31*
%TO.C,RBJ4*%
X96654250Y-99103500D03*
X102754250Y-99103500D03*
%TD*%
D23*
%TO.C,C34*%
X154810000Y-115832500D03*
X154810000Y-117907500D03*
%TD*%
D29*
%TO.C,C23*%
X203727500Y-75492500D03*
X203727500Y-73417500D03*
%TD*%
D13*
%TO.C,TP6*%
X196960000Y-115840000D03*
%TD*%
D24*
%TO.C,C7*%
X172305000Y-99396250D03*
X172305000Y-102521250D03*
%TD*%
D21*
%TO.C,R5*%
X134615000Y-79177500D03*
X134615000Y-81177500D03*
%TD*%
D24*
%TO.C,C27*%
X184700000Y-76087500D03*
X184700000Y-79212500D03*
%TD*%
D38*
%TO.C,R1*%
X135415000Y-86267500D03*
X138515000Y-86267500D03*
%TD*%
D27*
%TO.C,D1*%
X107008250Y-65163500D03*
X107008250Y-67003500D03*
D28*
X110990250Y-66083500D03*
%TD*%
D44*
%TO.C,J4*%
X91161750Y-99563500D03*
D45*
X85161750Y-99563500D03*
D46*
X88161750Y-104263500D03*
%TD*%
D44*
%TO.C,J6*%
X91161750Y-123063500D03*
D45*
X85161750Y-123063500D03*
D46*
X88161750Y-127763500D03*
%TD*%
D17*
%TO.C,*%
X79790000Y-43820000D03*
%TD*%
D18*
%TO.C,R19*%
X147300000Y-45180000D03*
X147300000Y-42080000D03*
%TD*%
D13*
%TO.C,TP5*%
X174140000Y-110673750D03*
%TD*%
D61*
%TO.C,R6*%
X119606750Y-88013500D03*
X121431750Y-88013500D03*
%TD*%
%TO.C,R36*%
X161430000Y-121190000D03*
X163255000Y-121190000D03*
%TD*%
D29*
%TO.C,C25*%
X203830000Y-67207500D03*
X203830000Y-65132500D03*
%TD*%
D39*
%TO.C,J8*%
X207153400Y-131365000D03*
X212233400Y-131365000D03*
%TD*%
D57*
%TO.C,R35*%
X186657500Y-65895000D03*
X186657500Y-62795000D03*
%TD*%
D16*
%TO.C,R17*%
X169292500Y-117880000D03*
X167467500Y-117880000D03*
%TD*%
D31*
%TO.C,RBJ3*%
X96654250Y-86403500D03*
X102754250Y-86403500D03*
%TD*%
D62*
%TO.C,C1*%
X206310000Y-99021250D03*
X208385000Y-99021250D03*
%TD*%
D63*
%TO.C,D6*%
X157730000Y-72880000D03*
X157730000Y-74780000D03*
X160730000Y-73830000D03*
%TD*%
D62*
%TO.C,C10*%
X153180000Y-91470000D03*
X155255000Y-91470000D03*
%TD*%
D29*
%TO.C,C22*%
X203720000Y-79665000D03*
X203720000Y-77590000D03*
%TD*%
D26*
%TO.C,R14*%
X197990000Y-119152500D03*
X197990000Y-120347500D03*
%TD*%
D31*
%TO.C,RBJ1*%
X96551750Y-63683500D03*
X102651750Y-63683500D03*
%TD*%
D29*
%TO.C,C6*%
X152660000Y-80557500D03*
X152660000Y-78482500D03*
%TD*%
D64*
%TO.C,U5*%
X159610252Y-115224600D03*
X159110126Y-115224600D03*
X158610000Y-115224600D03*
X158610000Y-116720000D03*
X159110126Y-116720000D03*
X159610252Y-116720000D03*
%TD*%
D29*
%TO.C,C30*%
X190677500Y-65452500D03*
X190677500Y-63377500D03*
%TD*%
D32*
%TO.C,R25*%
X208077500Y-73215000D03*
X211177500Y-73215000D03*
%TD*%
D12*
%TO.C,CBJ5*%
X99307750Y-115663500D03*
X102432750Y-115663500D03*
%TD*%
D22*
%TO.C,SW1*%
X114220000Y-58800000D03*
X118920000Y-58800000D03*
X123620000Y-58800000D03*
%TD*%
D29*
%TO.C,C3*%
X148050000Y-80627500D03*
X148050000Y-78552500D03*
%TD*%
D23*
%TO.C,C33*%
X188637500Y-76677500D03*
X188637500Y-78752500D03*
%TD*%
D31*
%TO.C,RBJ6*%
X97164250Y-121963500D03*
X103264250Y-121963500D03*
%TD*%
D23*
%TO.C,C16*%
X143105000Y-86490000D03*
X143105000Y-88565000D03*
%TD*%
D39*
%TO.C,J11*%
X141322693Y-129185707D03*
X146402693Y-129185707D03*
%TD*%
D23*
%TO.C,C35*%
X150180000Y-115982500D03*
X150180000Y-118057500D03*
%TD*%
D37*
%TO.C,R2*%
X201560000Y-103431250D03*
X202755000Y-103431250D03*
%TD*%
D62*
%TO.C,C5*%
X157217500Y-79468750D03*
X159292500Y-79468750D03*
%TD*%
D27*
%TO.C,D8*%
X106611750Y-112203500D03*
X106611750Y-114043500D03*
D28*
X110593750Y-113123500D03*
%TD*%
D65*
%TO.C,C13*%
X162467500Y-82398750D03*
X159342500Y-82398750D03*
%TD*%
M02*
