M48
; DRILL file {KiCad 7.0.6-0} date 2024 April 17, Wednesday 06:46:41
; FORMAT={-:-/ absolute / inch / decimal}
; #@! TF.CreationDate,2024-04-17T06:46:41-03:00
; #@! TF.GenerationSoftware,Kicad,Pcbnew,7.0.6-0
; #@! TF.FileFunction,Plated,1,4,PTH
FMAT,2
INCH
; #@! TA.AperFunction,Plated,PTH,ViaDrill
T1C0.0100
; #@! TA.AperFunction,Plated,PTH,ViaDrill
T2C0.0118
; #@! TA.AperFunction,Plated,PTH,ViaDrill
T3C0.0120
; #@! TA.AperFunction,Plated,PTH,ViaDrill
T4C0.0200
; #@! TA.AperFunction,Plated,PTH,ComponentDrill
T5C0.0394
; #@! TA.AperFunction,Plated,PTH,ComponentDrill
T6C0.0510
; #@! TA.AperFunction,Plated,PTH,ComponentDrill
T7C0.0669
%
G90
G05
T1
X5.402Y-3.8528
T2
X5.6341Y-3.565
T3
X4.9082Y-3.0575
X5.0181Y-3.0531
X5.0185Y-2.8642
X5.0874Y-4.732
X5.2287Y-4.4063
X5.2439Y-3.3897
X5.3736Y-4.7384
X5.4595Y-3.513
X5.7256Y-3.9146
X5.7868Y-3.3038
X5.8492Y-4.5732
X5.9039Y-3.3835
X5.9047Y-3.3555
X5.9394Y-3.3559
X5.9394Y-3.3839
X6.002Y-1.9248
X6.01Y-3.7061
X6.0278Y-3.3373
X6.0278Y-3.4046
X6.1295Y-2.9087
X6.174Y-4.7768
X6.1976Y-4.5476
X6.1976Y-4.6106
X6.198Y-4.5799
X6.2539Y-3.5712
X6.2575Y-1.6055
X6.2594Y-4.6378
X6.2685Y-2.0146
X6.428Y-4.6992
X6.4799Y-4.6984
X6.4992Y-1.6961
X6.5276Y-1.8307
X6.6795Y-3.9146
X6.7122Y-4.5969
X6.9091Y-2.6701
X7.1061Y-4.6369
X7.485Y-2.8799
X7.487Y-2.9246
X7.4996Y-2.8177
X7.4996Y-2.8512
X7.6385Y-2.9478
X7.7058Y-2.8411
X7.778Y-2.6917
X8.7465Y-4.0055
X8.7535Y-4.4524
T4
X4.0973Y-4.5533
X4.1127Y-2.7053
X4.1154Y-4.1013
X4.1174Y-5.0037
X4.1186Y-3.2076
X4.119Y-3.6033
X4.6514Y-3.3974
X5.8307Y-3.0031
X5.9102Y-3.7465
X5.9378Y-3.5047
X5.9378Y-3.6921
X5.9406Y-3.565
X5.9406Y-3.6283
X5.9748Y-3.7465
X6.0102Y-3.0079
X6.0667Y-3.3975
X6.1961Y-3.6543
X6.1965Y-3.6059
X6.2126Y-3.2236
X6.2126Y-3.2673
X6.7402Y-4.1106
X6.7914Y-4.1106
X6.8427Y-4.1106
X6.8939Y-4.1106
X6.9452Y-4.1106
X6.9965Y-4.1106
X7.111Y-4.8961
X7.1614Y-2.4268
X7.2719Y-3.1873
X7.4234Y-2.7256
X7.4299Y-3.1724
X7.5614Y-3.2465
X7.6311Y-4.7138
X7.6626Y-2.8094
X7.6935Y-4.8171
X7.728Y-3.2579
X7.7961Y-4.8106
X7.8185Y-2.4165
X7.9043Y-4.8244
X8.1094Y-2.526
X8.1827Y-4.598
X8.25Y-4.062
X8.2717Y-3.8996
T6
X4.882Y-5.086
X5.082Y-5.086
X5.5639Y-5.0861
X5.7639Y-5.0861
X8.1556Y-5.1719
X8.3556Y-5.1719
X8.3841Y-1.7495
X8.3841Y-1.9495
T7
X4.4969Y-2.315
X4.6819Y-2.315
X4.8669Y-2.315
X6.6094Y-3.0603
X6.7944Y-3.0603
X6.9794Y-3.0603
X7.2965Y-4.0496
X7.3008Y-3.6685
X7.4815Y-4.0496
X7.4858Y-3.6685
X7.6665Y-4.0496
X7.6709Y-3.6685
T5
G00X3.3528Y-2.4927
M15
G01X3.3528Y-2.5714
M16
G05
G00X3.3528Y-2.9553
M15
G01X3.3528Y-3.034
M16
G05
G00X3.3528Y-3.4179
M15
G01X3.3528Y-3.4966
M16
G05
G00X3.3528Y-3.8805
M15
G01X3.3528Y-3.9592
M16
G05
G00X3.3528Y-4.3431
M15
G01X3.3528Y-4.4218
M16
G05
G00X3.3528Y-4.8056
M15
G01X3.3528Y-4.8844
M16
G05
G00X3.4316Y-2.7171
M15
G01X3.5103Y-2.7171
M16
G05
G00X3.4316Y-3.1797
M15
G01X3.5103Y-3.1797
M16
G05
G00X3.4316Y-3.6423
M15
G01X3.5103Y-3.6423
M16
G05
G00X3.4316Y-4.1049
M15
G01X3.5103Y-4.1049
M16
G05
G00X3.4316Y-4.5675
M15
G01X3.5103Y-4.5675
M16
G05
G00X3.4316Y-5.0301
M15
G01X3.5103Y-5.0301
M16
G05
G00X3.589Y-2.4828
M15
G01X3.589Y-2.5812
M16
G05
G00X3.589Y-2.9454
M15
G01X3.589Y-3.0438
M16
G05
G00X3.589Y-3.408
M15
G01X3.589Y-3.5064
M16
G05
G00X3.589Y-3.8706
M15
G01X3.589Y-3.969
M16
G05
G00X3.589Y-4.3332
M15
G01X3.589Y-4.4316
M16
G05
G00X3.589Y-4.7958
M15
G01X3.589Y-4.8942
M16
G05
T0
M30
