%TF.GenerationSoftware,KiCad,Pcbnew,7.0.6-0*%
%TF.CreationDate,2024-04-17T06:46:50-03:00*%
%TF.ProjectId,Buoy,42756f79-2e6b-4696-9361-645f70636258,rev?*%
%TF.SameCoordinates,Original*%
%TF.FileFunction,Soldermask,Bot*%
%TF.FilePolarity,Negative*%
%FSLAX46Y46*%
G04 Gerber Fmt 4.6, Leading zero omitted, Abs format (unit mm)*
G04 Created by KiCad (PCBNEW 7.0.6-0) date 2024-04-17 06:46:50*
%MOMM*%
%LPD*%
G01*
G04 APERTURE LIST*
G04 Aperture macros list*
%AMRoundRect*
0 Rectangle with rounded corners*
0 $1 Rounding radius*
0 $2 $3 $4 $5 $6 $7 $8 $9 X,Y pos of 4 corners*
0 Add a 4 corners polygon primitive as box body*
4,1,4,$2,$3,$4,$5,$6,$7,$8,$9,$2,$3,0*
0 Add four circle primitives for the rounded corners*
1,1,$1+$1,$2,$3*
1,1,$1+$1,$4,$5*
1,1,$1+$1,$6,$7*
1,1,$1+$1,$8,$9*
0 Add four rect primitives between the rounded corners*
20,1,$1+$1,$2,$3,$4,$5,0*
20,1,$1+$1,$4,$5,$6,$7,0*
20,1,$1+$1,$6,$7,$8,$9,0*
20,1,$1+$1,$8,$9,$2,$3,0*%
G04 Aperture macros list end*
%ADD10C,2.200000*%
%ADD11C,2.804000*%
%ADD12C,1.803400*%
%ADD13O,2.404000X4.604000*%
%ADD14O,2.204000X4.204000*%
%ADD15O,4.204000X2.204000*%
%ADD16RoundRect,0.126500X-0.275500X0.150500X-0.275500X-0.150500X0.275500X-0.150500X0.275500X0.150500X0*%
%ADD17RoundRect,0.250000X-0.450000X0.350000X-0.450000X-0.350000X0.450000X-0.350000X0.450000X0.350000X0*%
G04 APERTURE END LIST*
D10*
%TO.C,*%
X80230000Y-136590000D03*
%TD*%
D11*
%TO.C,SW4*%
X185440000Y-93180000D03*
X190140000Y-93180000D03*
X194840000Y-93180000D03*
%TD*%
D10*
%TO.C,*%
X222520000Y-43800000D03*
%TD*%
D11*
%TO.C,SW2*%
X177277500Y-77732500D03*
X172577500Y-77732500D03*
X167877500Y-77732500D03*
%TD*%
D12*
%TO.C,J7*%
X124003400Y-129185000D03*
X129083400Y-129185000D03*
%TD*%
D13*
%TO.C,J5*%
X91161750Y-111313500D03*
D14*
X85161750Y-111313500D03*
D15*
X88161750Y-116013500D03*
%TD*%
D13*
%TO.C,J2*%
X91161750Y-76063500D03*
D14*
X85161750Y-76063500D03*
D15*
X88161750Y-80763500D03*
%TD*%
D10*
%TO.C,*%
X221850000Y-136390000D03*
%TD*%
D13*
%TO.C,J1*%
X91161750Y-64313500D03*
D14*
X85161750Y-64313500D03*
D15*
X88161750Y-69013500D03*
%TD*%
D11*
%TO.C,SW3*%
X185330000Y-102860000D03*
X190030000Y-102860000D03*
X194730000Y-102860000D03*
%TD*%
D13*
%TO.C,J3*%
X91161750Y-87813500D03*
D14*
X85161750Y-87813500D03*
D15*
X88161750Y-92513500D03*
%TD*%
D12*
%TO.C,J14*%
X212955000Y-49516600D03*
X212955000Y-44436600D03*
%TD*%
D13*
%TO.C,J4*%
X91161750Y-99563500D03*
D14*
X85161750Y-99563500D03*
D15*
X88161750Y-104263500D03*
%TD*%
D13*
%TO.C,J6*%
X91161750Y-123063500D03*
D14*
X85161750Y-123063500D03*
D15*
X88161750Y-127763500D03*
%TD*%
D10*
%TO.C,*%
X79790000Y-43820000D03*
%TD*%
D12*
%TO.C,J8*%
X207153400Y-131365000D03*
X212233400Y-131365000D03*
%TD*%
D11*
%TO.C,SW1*%
X114220000Y-58800000D03*
X118920000Y-58800000D03*
X123620000Y-58800000D03*
%TD*%
D12*
%TO.C,J11*%
X141322693Y-129185707D03*
X146402693Y-129185707D03*
%TD*%
D16*
%TO.C,TH1*%
X193517500Y-73050000D03*
X193517500Y-74100000D03*
%TD*%
D17*
%TO.C,R3*%
X195727500Y-73405000D03*
X195727500Y-75405000D03*
%TD*%
M02*
