%TF.GenerationSoftware,KiCad,Pcbnew,7.0.6-0*%
%TF.CreationDate,2024-04-17T06:46:49-03:00*%
%TF.ProjectId,Buoy,42756f79-2e6b-4696-9361-645f70636258,rev?*%
%TF.SameCoordinates,Original*%
%TF.FileFunction,Copper,L2,Inr*%
%TF.FilePolarity,Positive*%
%FSLAX46Y46*%
G04 Gerber Fmt 4.6, Leading zero omitted, Abs format (unit mm)*
G04 Created by KiCad (PCBNEW 7.0.6-0) date 2024-04-17 06:46:49*
%MOMM*%
%LPD*%
G01*
G04 APERTURE LIST*
%TA.AperFunction,ComponentPad*%
%ADD10C,2.600000*%
%TD*%
%TA.AperFunction,ComponentPad*%
%ADD11C,1.803400*%
%TD*%
%TA.AperFunction,ComponentPad*%
%ADD12O,2.200000X4.400000*%
%TD*%
%TA.AperFunction,ComponentPad*%
%ADD13O,2.000000X4.000000*%
%TD*%
%TA.AperFunction,ComponentPad*%
%ADD14O,4.000000X2.000000*%
%TD*%
%TA.AperFunction,ViaPad*%
%ADD15C,1.016000*%
%TD*%
%TA.AperFunction,ViaPad*%
%ADD16C,0.609600*%
%TD*%
%TA.AperFunction,ViaPad*%
%ADD17C,0.600000*%
%TD*%
%TA.AperFunction,ViaPad*%
%ADD18C,0.508000*%
%TD*%
G04 APERTURE END LIST*
D10*
%TO.N,/Non-Batman*%
%TO.C,SW4*%
X185440000Y-93180000D03*
%TO.N,/Bat_out*%
X190140000Y-93180000D03*
%TO.N,/Batman*%
X194840000Y-93180000D03*
%TD*%
%TO.N,Net-(SW2-A)*%
%TO.C,SW2*%
X177277500Y-77732500D03*
%TO.N,Net-(J14-Pin_1)*%
X172577500Y-77732500D03*
%TO.N,PGND*%
X167877500Y-77732500D03*
%TD*%
D11*
%TO.N,Net-(J7-Pin_1)*%
%TO.C,J7*%
X124003400Y-129185000D03*
%TO.N,PGND*%
X129083400Y-129185000D03*
%TD*%
D12*
%TO.N,/PV_connection*%
%TO.C,J5*%
X91161750Y-111313500D03*
D13*
%TO.N,PGND*%
X85161750Y-111313500D03*
D14*
X88161750Y-116013500D03*
%TD*%
D12*
%TO.N,/PV_connection*%
%TO.C,J2*%
X91161750Y-76063500D03*
D13*
%TO.N,PGND*%
X85161750Y-76063500D03*
D14*
X88161750Y-80763500D03*
%TD*%
D12*
%TO.N,/PV_connection*%
%TO.C,J1*%
X91161750Y-64313500D03*
D13*
%TO.N,PGND*%
X85161750Y-64313500D03*
D14*
X88161750Y-69013500D03*
%TD*%
D10*
%TO.N,/Non-Batman*%
%TO.C,SW3*%
X185330000Y-102860000D03*
%TO.N,/Bat_in*%
X190030000Y-102860000D03*
%TO.N,/Batman*%
X194730000Y-102860000D03*
%TD*%
D12*
%TO.N,/PV_connection*%
%TO.C,J3*%
X91161750Y-87813500D03*
D13*
%TO.N,PGND*%
X85161750Y-87813500D03*
D14*
X88161750Y-92513500D03*
%TD*%
D11*
%TO.N,Net-(J14-Pin_1)*%
%TO.C,J14*%
X212955000Y-49516600D03*
%TO.N,/Bat_in*%
X212955000Y-44436600D03*
%TD*%
D12*
%TO.N,/PV_connection*%
%TO.C,J4*%
X91161750Y-99563500D03*
D13*
%TO.N,PGND*%
X85161750Y-99563500D03*
D14*
X88161750Y-104263500D03*
%TD*%
D12*
%TO.N,/PV_connection*%
%TO.C,J6*%
X91161750Y-123063500D03*
D13*
%TO.N,PGND*%
X85161750Y-123063500D03*
D14*
X88161750Y-127763500D03*
%TD*%
D11*
%TO.N,/Bat_out*%
%TO.C,J8*%
X207153400Y-131365000D03*
%TO.N,PGND*%
X212233400Y-131365000D03*
%TD*%
D10*
%TO.N,unconnected-(SW1-A-Pad1)*%
%TO.C,SW1*%
X114220000Y-58800000D03*
%TO.N,/V_solar_in*%
X118920000Y-58800000D03*
%TO.N,/V_solar_out*%
X123620000Y-58800000D03*
%TD*%
D11*
%TO.N,/3.4V*%
%TO.C,J11*%
X141322693Y-129185707D03*
%TO.N,PGND*%
X146402693Y-129185707D03*
%TD*%
D15*
%TO.N,PGND*%
X150120000Y-95160000D03*
D16*
X150860000Y-85240000D03*
X157420000Y-115510000D03*
X149980000Y-85230000D03*
D15*
X175106000Y-104410000D03*
D16*
X124667500Y-77660000D03*
D15*
X210100000Y-99050000D03*
X150820000Y-93780000D03*
D17*
X143105000Y-90550000D03*
D15*
X151760000Y-95160000D03*
D16*
X127460000Y-77550000D03*
D15*
X152660000Y-76400000D03*
X104621750Y-91523500D03*
D16*
X149960000Y-85940000D03*
D15*
X200770000Y-122540000D03*
X196290000Y-82750000D03*
D16*
X150860000Y-85950000D03*
D15*
X172502000Y-104410000D03*
D16*
X194017500Y-74875000D03*
D15*
X194630000Y-71360000D03*
X171200000Y-104410000D03*
X118146750Y-86293500D03*
X104581750Y-127093500D03*
X104611750Y-81473500D03*
X195415000Y-122355000D03*
D16*
X157420000Y-117110000D03*
D15*
X209550000Y-103175000D03*
X150890000Y-90550000D03*
X157800000Y-82990000D03*
X198020000Y-122190000D03*
D16*
X132810000Y-111920000D03*
D15*
X207840000Y-116790000D03*
D18*
X137210000Y-97860000D03*
D15*
X157380000Y-92820000D03*
X104461750Y-68713500D03*
X193830000Y-119730000D03*
X104531750Y-104173500D03*
D16*
X138672500Y-89230000D03*
D15*
X104071750Y-115653500D03*
X154095000Y-86297500D03*
X157390000Y-91590000D03*
D16*
X163270000Y-119360000D03*
D15*
X184705000Y-80957500D03*
X198590000Y-61380000D03*
X188720000Y-80580000D03*
X180620000Y-124360000D03*
X176408000Y-104410000D03*
X192060000Y-82460000D03*
X177710000Y-104410000D03*
D16*
X136490000Y-120355000D03*
D15*
X173804000Y-104410000D03*
X188555000Y-69230000D03*
X181900000Y-61640000D03*
D16*
X129220000Y-120192250D03*
X157430000Y-116330000D03*
D15*
X150890000Y-92160000D03*
D16*
X175490000Y-67820000D03*
D15*
X157800000Y-81880000D03*
D16*
X164590000Y-119340000D03*
D15*
X148100000Y-76280000D03*
X150820000Y-89020000D03*
X205980000Y-64160000D03*
D16*
%TO.N,Net-(J10-Pin_5)*%
X190170000Y-74285000D03*
%TD*%
%TA.AperFunction,Conductor*%
%TO.N,PGND*%
G36*
X158342932Y-40270185D02*
G01*
X158388687Y-40322989D01*
X158398631Y-40392147D01*
X158377943Y-40444940D01*
X158357641Y-40474351D01*
X158301415Y-40622603D01*
X158282305Y-40779999D01*
X158301415Y-40937396D01*
X158341893Y-41044126D01*
X158357640Y-41085646D01*
X158447708Y-41216132D01*
X158566387Y-41321272D01*
X158566389Y-41321273D01*
X158566393Y-41321276D01*
X158706776Y-41394955D01*
X158706778Y-41394956D01*
X158860724Y-41432900D01*
X159019276Y-41432900D01*
X159173222Y-41394956D01*
X159256475Y-41351260D01*
X159313606Y-41321276D01*
X159313607Y-41321274D01*
X159313613Y-41321272D01*
X159432292Y-41216132D01*
X159522360Y-41085646D01*
X159578584Y-40937397D01*
X159597695Y-40780000D01*
X159578584Y-40622603D01*
X159522360Y-40474354D01*
X159502057Y-40444940D01*
X159480174Y-40378586D01*
X159497639Y-40310934D01*
X159548907Y-40263464D01*
X159604107Y-40250500D01*
X225825500Y-40250500D01*
X225892539Y-40270185D01*
X225938294Y-40322989D01*
X225949500Y-40374500D01*
X225949500Y-139625500D01*
X225929815Y-139692539D01*
X225877011Y-139738294D01*
X225825500Y-139749500D01*
X76574500Y-139749500D01*
X76507461Y-139729815D01*
X76461706Y-139677011D01*
X76450500Y-139625500D01*
X76450500Y-136590001D01*
X78924532Y-136590001D01*
X78944364Y-136816686D01*
X78944366Y-136816697D01*
X79003258Y-137036488D01*
X79003261Y-137036497D01*
X79099431Y-137242732D01*
X79099432Y-137242734D01*
X79229954Y-137429141D01*
X79390858Y-137590045D01*
X79390861Y-137590047D01*
X79577266Y-137720568D01*
X79783504Y-137816739D01*
X80003308Y-137875635D01*
X80173216Y-137890500D01*
X80286784Y-137890500D01*
X80456692Y-137875635D01*
X80676496Y-137816739D01*
X80882734Y-137720568D01*
X81069139Y-137590047D01*
X81230047Y-137429139D01*
X81360568Y-137242734D01*
X81456739Y-137036496D01*
X81515635Y-136816692D01*
X81535468Y-136590000D01*
X81517970Y-136390001D01*
X220544532Y-136390001D01*
X220564364Y-136616686D01*
X220564366Y-136616697D01*
X220623258Y-136836488D01*
X220623261Y-136836497D01*
X220719431Y-137042732D01*
X220719432Y-137042734D01*
X220849954Y-137229141D01*
X221010858Y-137390045D01*
X221010861Y-137390047D01*
X221197266Y-137520568D01*
X221403504Y-137616739D01*
X221623308Y-137675635D01*
X221793216Y-137690500D01*
X221906784Y-137690500D01*
X222076692Y-137675635D01*
X222296496Y-137616739D01*
X222502734Y-137520568D01*
X222689139Y-137390047D01*
X222850047Y-137229139D01*
X222980568Y-137042734D01*
X223076739Y-136836496D01*
X223135635Y-136616692D01*
X223155468Y-136390000D01*
X223135635Y-136163308D01*
X223076739Y-135943504D01*
X222980568Y-135737266D01*
X222850047Y-135550861D01*
X222850045Y-135550858D01*
X222689141Y-135389954D01*
X222502734Y-135259432D01*
X222502732Y-135259431D01*
X222296497Y-135163261D01*
X222296488Y-135163258D01*
X222076697Y-135104366D01*
X222076687Y-135104364D01*
X221906784Y-135089500D01*
X221793216Y-135089500D01*
X221623312Y-135104364D01*
X221623302Y-135104366D01*
X221403511Y-135163258D01*
X221403502Y-135163261D01*
X221197267Y-135259431D01*
X221197265Y-135259432D01*
X221010858Y-135389954D01*
X220849954Y-135550858D01*
X220719432Y-135737265D01*
X220719431Y-135737267D01*
X220623261Y-135943502D01*
X220623258Y-135943511D01*
X220564366Y-136163302D01*
X220564364Y-136163313D01*
X220544532Y-136389998D01*
X220544532Y-136390001D01*
X81517970Y-136390001D01*
X81515635Y-136363308D01*
X81462047Y-136163313D01*
X81456741Y-136143511D01*
X81456738Y-136143502D01*
X81363480Y-135943511D01*
X81360568Y-135937266D01*
X81230047Y-135750861D01*
X81230045Y-135750858D01*
X81069141Y-135589954D01*
X80882734Y-135459432D01*
X80882732Y-135459431D01*
X80676497Y-135363261D01*
X80676488Y-135363258D01*
X80456697Y-135304366D01*
X80456687Y-135304364D01*
X80286784Y-135289500D01*
X80173216Y-135289500D01*
X80003312Y-135304364D01*
X80003302Y-135304366D01*
X79783511Y-135363258D01*
X79783502Y-135363261D01*
X79577267Y-135459431D01*
X79577265Y-135459432D01*
X79390858Y-135589954D01*
X79229954Y-135750858D01*
X79099432Y-135937265D01*
X79099431Y-135937267D01*
X79003261Y-136143502D01*
X79003258Y-136143511D01*
X78944366Y-136363302D01*
X78944364Y-136363313D01*
X78924532Y-136589998D01*
X78924532Y-136590001D01*
X76450500Y-136590001D01*
X76450500Y-131365005D01*
X205746393Y-131365005D01*
X205765583Y-131596582D01*
X205822629Y-131821854D01*
X205915975Y-132034662D01*
X206000386Y-132163861D01*
X206043075Y-132229201D01*
X206200461Y-132400168D01*
X206200464Y-132400170D01*
X206200467Y-132400173D01*
X206383832Y-132542892D01*
X206383838Y-132542896D01*
X206383841Y-132542898D01*
X206588212Y-132653499D01*
X206808000Y-132728952D01*
X207037210Y-132767200D01*
X207269590Y-132767200D01*
X207498800Y-132728952D01*
X207718588Y-132653499D01*
X207922959Y-132542898D01*
X207923503Y-132542475D01*
X207984538Y-132494969D01*
X208106339Y-132400168D01*
X208263725Y-132229201D01*
X208390825Y-132034661D01*
X208484171Y-131821854D01*
X208541216Y-131596586D01*
X208560406Y-131365005D01*
X210826896Y-131365005D01*
X210846078Y-131596499D01*
X210903104Y-131821691D01*
X210996415Y-132034418D01*
X211080984Y-132163861D01*
X211632677Y-131612168D01*
X211642685Y-131642969D01*
X211730372Y-131781141D01*
X211849666Y-131893165D01*
X211984604Y-131967348D01*
X211433389Y-132518562D01*
X211433390Y-132518563D01*
X211464112Y-132542475D01*
X211464118Y-132542480D01*
X211668407Y-132653035D01*
X211668417Y-132653040D01*
X211888121Y-132728464D01*
X212117253Y-132766700D01*
X212349547Y-132766700D01*
X212578678Y-132728464D01*
X212798382Y-132653040D01*
X212798387Y-132653038D01*
X213002688Y-132542475D01*
X213033408Y-132518563D01*
X213033408Y-132518562D01*
X212479162Y-131964315D01*
X212547912Y-131937095D01*
X212680305Y-131840906D01*
X212784618Y-131714813D01*
X212833303Y-131611350D01*
X213385814Y-132163861D01*
X213470380Y-132034425D01*
X213470385Y-132034417D01*
X213563695Y-131821691D01*
X213620721Y-131596499D01*
X213639904Y-131365005D01*
X213639904Y-131364994D01*
X213620721Y-131133500D01*
X213563695Y-130908308D01*
X213470382Y-130695576D01*
X213385814Y-130566137D01*
X212834121Y-131117829D01*
X212824115Y-131087031D01*
X212736428Y-130948859D01*
X212617134Y-130836835D01*
X212482195Y-130762651D01*
X213033409Y-130211436D01*
X213033409Y-130211435D01*
X213002686Y-130187523D01*
X213002681Y-130187519D01*
X212798392Y-130076964D01*
X212798382Y-130076959D01*
X212578678Y-130001535D01*
X212349547Y-129963300D01*
X212117253Y-129963300D01*
X211888121Y-130001535D01*
X211668417Y-130076959D01*
X211668407Y-130076964D01*
X211464117Y-130187520D01*
X211464106Y-130187527D01*
X211433390Y-130211434D01*
X211433390Y-130211436D01*
X211987638Y-130765684D01*
X211918888Y-130792905D01*
X211786495Y-130889094D01*
X211682182Y-131015187D01*
X211633496Y-131118649D01*
X211080984Y-130566137D01*
X210996416Y-130695578D01*
X210903104Y-130908308D01*
X210846078Y-131133500D01*
X210826896Y-131364994D01*
X210826896Y-131365005D01*
X208560406Y-131365005D01*
X208560406Y-131365000D01*
X208557009Y-131324007D01*
X208541216Y-131133417D01*
X208541216Y-131133414D01*
X208484171Y-130908146D01*
X208390825Y-130695339D01*
X208263725Y-130500799D01*
X208106339Y-130329832D01*
X208106334Y-130329828D01*
X208106332Y-130329826D01*
X207922967Y-130187107D01*
X207922961Y-130187103D01*
X207718588Y-130076501D01*
X207718580Y-130076498D01*
X207498802Y-130001048D01*
X207269590Y-129962800D01*
X207037210Y-129962800D01*
X206807997Y-130001048D01*
X206588219Y-130076498D01*
X206588211Y-130076501D01*
X206383838Y-130187103D01*
X206383832Y-130187107D01*
X206200467Y-130329826D01*
X206200464Y-130329829D01*
X206200461Y-130329831D01*
X206200461Y-130329832D01*
X206170022Y-130362898D01*
X206043076Y-130500797D01*
X206043073Y-130500801D01*
X205915975Y-130695337D01*
X205822629Y-130908145D01*
X205765583Y-131133417D01*
X205746393Y-131364994D01*
X205746393Y-131365005D01*
X76450500Y-131365005D01*
X76450500Y-127513499D01*
X85682726Y-127513499D01*
X85682728Y-127513500D01*
X86728064Y-127513500D01*
X86702257Y-127553656D01*
X86661750Y-127691611D01*
X86661750Y-127835389D01*
X86702257Y-127973344D01*
X86728064Y-128013500D01*
X85682727Y-128013500D01*
X85702666Y-128132992D01*
X85783380Y-128368103D01*
X85783385Y-128368114D01*
X85901692Y-128586728D01*
X85901698Y-128586737D01*
X86054376Y-128782897D01*
X86054385Y-128782907D01*
X86237272Y-128951267D01*
X86237271Y-128951267D01*
X86445382Y-129087232D01*
X86673032Y-129187087D01*
X86914011Y-129248112D01*
X86914019Y-129248114D01*
X87099709Y-129263500D01*
X87911750Y-129263500D01*
X87911750Y-128263500D01*
X88411750Y-128263500D01*
X88411750Y-129263500D01*
X89223791Y-129263500D01*
X89409480Y-129248114D01*
X89409488Y-129248112D01*
X89650467Y-129187087D01*
X89655214Y-129185005D01*
X122596394Y-129185005D01*
X122615583Y-129416582D01*
X122672629Y-129641854D01*
X122765975Y-129854662D01*
X122850386Y-129983861D01*
X122893075Y-130049201D01*
X123050461Y-130220168D01*
X123050464Y-130220170D01*
X123050467Y-130220173D01*
X123233832Y-130362892D01*
X123233838Y-130362896D01*
X123233841Y-130362898D01*
X123438212Y-130473499D01*
X123658000Y-130548952D01*
X123887210Y-130587200D01*
X124119590Y-130587200D01*
X124348800Y-130548952D01*
X124568588Y-130473499D01*
X124772959Y-130362898D01*
X124773503Y-130362475D01*
X124955428Y-130220877D01*
X124956339Y-130220168D01*
X125113725Y-130049201D01*
X125240825Y-129854661D01*
X125334171Y-129641854D01*
X125391216Y-129416586D01*
X125405176Y-129248114D01*
X125410406Y-129185005D01*
X127676896Y-129185005D01*
X127696078Y-129416499D01*
X127753104Y-129641691D01*
X127846415Y-129854418D01*
X127930984Y-129983861D01*
X128482677Y-129432168D01*
X128492685Y-129462969D01*
X128580372Y-129601141D01*
X128699666Y-129713165D01*
X128834604Y-129787348D01*
X128283389Y-130338562D01*
X128283390Y-130338563D01*
X128314112Y-130362475D01*
X128314118Y-130362480D01*
X128518407Y-130473035D01*
X128518417Y-130473040D01*
X128738121Y-130548464D01*
X128967253Y-130586700D01*
X129199547Y-130586700D01*
X129428678Y-130548464D01*
X129648382Y-130473040D01*
X129648387Y-130473038D01*
X129852688Y-130362475D01*
X129883408Y-130338563D01*
X129883408Y-130338562D01*
X129329162Y-129784315D01*
X129397912Y-129757095D01*
X129530305Y-129660906D01*
X129634618Y-129534813D01*
X129683303Y-129431350D01*
X130235814Y-129983861D01*
X130320380Y-129854425D01*
X130320385Y-129854417D01*
X130413695Y-129641691D01*
X130470721Y-129416499D01*
X130489845Y-129185712D01*
X139915687Y-129185712D01*
X139934876Y-129417289D01*
X139991922Y-129642561D01*
X140085268Y-129855369D01*
X140155457Y-129962800D01*
X140212368Y-130049908D01*
X140369754Y-130220875D01*
X140369757Y-130220877D01*
X140369760Y-130220880D01*
X140553125Y-130363599D01*
X140553131Y-130363603D01*
X140553134Y-130363605D01*
X140757505Y-130474206D01*
X140962114Y-130544448D01*
X140975233Y-130548952D01*
X140977293Y-130549659D01*
X141206503Y-130587907D01*
X141438883Y-130587907D01*
X141668093Y-130549659D01*
X141887881Y-130474206D01*
X142092252Y-130363605D01*
X142092796Y-130363182D01*
X142153831Y-130315676D01*
X142275632Y-130220875D01*
X142433018Y-130049908D01*
X142560118Y-129855368D01*
X142653464Y-129642561D01*
X142710509Y-129417293D01*
X142729699Y-129185712D01*
X144996189Y-129185712D01*
X145015371Y-129417206D01*
X145072397Y-129642398D01*
X145165708Y-129855125D01*
X145250277Y-129984568D01*
X145801970Y-129432875D01*
X145811978Y-129463676D01*
X145899665Y-129601848D01*
X146018959Y-129713872D01*
X146153897Y-129788055D01*
X145602682Y-130339269D01*
X145602683Y-130339270D01*
X145633405Y-130363182D01*
X145633411Y-130363187D01*
X145837700Y-130473742D01*
X145837710Y-130473747D01*
X146057414Y-130549171D01*
X146286546Y-130587407D01*
X146518840Y-130587407D01*
X146747971Y-130549171D01*
X146967675Y-130473747D01*
X146967680Y-130473745D01*
X147171981Y-130363182D01*
X147202701Y-130339270D01*
X147202701Y-130339269D01*
X146648455Y-129785022D01*
X146717205Y-129757802D01*
X146849598Y-129661613D01*
X146953911Y-129535520D01*
X147002596Y-129432057D01*
X147555107Y-129984568D01*
X147639673Y-129855132D01*
X147639678Y-129855124D01*
X147732988Y-129642398D01*
X147790014Y-129417206D01*
X147809197Y-129185712D01*
X147809197Y-129185701D01*
X147790014Y-128954207D01*
X147732988Y-128729015D01*
X147639675Y-128516283D01*
X147555107Y-128386844D01*
X147003414Y-128938536D01*
X146993408Y-128907738D01*
X146905721Y-128769566D01*
X146786427Y-128657542D01*
X146651488Y-128583358D01*
X147202702Y-128032143D01*
X147202702Y-128032142D01*
X147171979Y-128008230D01*
X147171974Y-128008226D01*
X146967685Y-127897671D01*
X146967675Y-127897666D01*
X146747971Y-127822242D01*
X146518840Y-127784007D01*
X146286546Y-127784007D01*
X146057414Y-127822242D01*
X145837710Y-127897666D01*
X145837700Y-127897671D01*
X145633410Y-128008227D01*
X145633399Y-128008234D01*
X145602683Y-128032141D01*
X145602683Y-128032143D01*
X146156931Y-128586391D01*
X146088181Y-128613612D01*
X145955788Y-128709801D01*
X145851475Y-128835894D01*
X145802789Y-128939356D01*
X145250277Y-128386844D01*
X145165709Y-128516285D01*
X145072397Y-128729015D01*
X145015371Y-128954207D01*
X144996189Y-129185701D01*
X144996189Y-129185712D01*
X142729699Y-129185712D01*
X142729699Y-129185707D01*
X142729640Y-129185000D01*
X142710509Y-128954124D01*
X142710509Y-128954121D01*
X142653464Y-128728853D01*
X142560118Y-128516046D01*
X142559812Y-128515578D01*
X142463469Y-128368114D01*
X142433018Y-128321506D01*
X142275632Y-128150539D01*
X142275627Y-128150535D01*
X142275625Y-128150533D01*
X142092260Y-128007814D01*
X142092254Y-128007810D01*
X141887881Y-127897208D01*
X141887873Y-127897205D01*
X141668095Y-127821755D01*
X141438883Y-127783507D01*
X141206503Y-127783507D01*
X140977290Y-127821755D01*
X140757512Y-127897205D01*
X140757504Y-127897208D01*
X140553131Y-128007810D01*
X140553125Y-128007814D01*
X140369760Y-128150533D01*
X140369757Y-128150536D01*
X140212369Y-128321504D01*
X140212366Y-128321508D01*
X140085268Y-128516044D01*
X139991922Y-128728852D01*
X139934876Y-128954124D01*
X139915687Y-129185701D01*
X139915687Y-129185712D01*
X130489845Y-129185712D01*
X130489904Y-129185005D01*
X130489904Y-129184994D01*
X130470721Y-128953500D01*
X130413695Y-128728308D01*
X130320382Y-128515576D01*
X130235814Y-128386137D01*
X129684121Y-128937829D01*
X129674115Y-128907031D01*
X129586428Y-128768859D01*
X129467134Y-128656835D01*
X129332195Y-128582651D01*
X129883409Y-128031436D01*
X129883409Y-128031435D01*
X129852686Y-128007523D01*
X129852681Y-128007519D01*
X129648392Y-127896964D01*
X129648382Y-127896959D01*
X129428678Y-127821535D01*
X129199547Y-127783300D01*
X128967253Y-127783300D01*
X128738121Y-127821535D01*
X128518417Y-127896959D01*
X128518407Y-127896964D01*
X128314117Y-128007520D01*
X128314106Y-128007527D01*
X128283390Y-128031434D01*
X128283390Y-128031436D01*
X128837638Y-128585684D01*
X128768888Y-128612905D01*
X128636495Y-128709094D01*
X128532182Y-128835187D01*
X128483496Y-128938649D01*
X127930984Y-128386137D01*
X127846416Y-128515578D01*
X127753104Y-128728308D01*
X127696078Y-128953500D01*
X127676896Y-129184994D01*
X127676896Y-129185005D01*
X125410406Y-129185005D01*
X125410406Y-129184994D01*
X125397612Y-129030609D01*
X125391216Y-128953414D01*
X125334171Y-128728146D01*
X125240825Y-128515339D01*
X125113725Y-128320799D01*
X124956339Y-128149832D01*
X124956334Y-128149828D01*
X124956332Y-128149826D01*
X124772967Y-128007107D01*
X124772961Y-128007103D01*
X124568588Y-127896501D01*
X124568580Y-127896498D01*
X124348802Y-127821048D01*
X124119590Y-127782800D01*
X123887210Y-127782800D01*
X123657997Y-127821048D01*
X123438219Y-127896498D01*
X123438211Y-127896501D01*
X123233838Y-128007103D01*
X123233832Y-128007107D01*
X123050467Y-128149826D01*
X123050464Y-128149829D01*
X122893076Y-128320797D01*
X122893073Y-128320801D01*
X122765975Y-128515337D01*
X122672629Y-128728145D01*
X122615583Y-128953417D01*
X122596394Y-129184994D01*
X122596394Y-129185005D01*
X89655214Y-129185005D01*
X89878117Y-129087232D01*
X90086228Y-128951267D01*
X90269114Y-128782907D01*
X90269123Y-128782897D01*
X90421801Y-128586737D01*
X90421807Y-128586728D01*
X90540114Y-128368114D01*
X90540119Y-128368103D01*
X90620833Y-128132992D01*
X90640773Y-128013500D01*
X89595436Y-128013500D01*
X89621243Y-127973344D01*
X89661750Y-127835389D01*
X89661750Y-127691611D01*
X89621243Y-127553656D01*
X89595436Y-127513500D01*
X90640772Y-127513500D01*
X90640773Y-127513499D01*
X90620833Y-127394007D01*
X90540119Y-127158896D01*
X90540114Y-127158885D01*
X90421807Y-126940271D01*
X90421801Y-126940262D01*
X90269123Y-126744102D01*
X90269114Y-126744092D01*
X90086227Y-126575732D01*
X90086228Y-126575732D01*
X89878117Y-126439767D01*
X89650467Y-126339912D01*
X89409488Y-126278887D01*
X89409480Y-126278885D01*
X89223791Y-126263500D01*
X88411750Y-126263500D01*
X88411750Y-127263500D01*
X87911750Y-127263500D01*
X87911750Y-126263500D01*
X87099709Y-126263500D01*
X86914019Y-126278885D01*
X86914011Y-126278887D01*
X86673032Y-126339912D01*
X86445382Y-126439767D01*
X86237271Y-126575732D01*
X86054385Y-126744092D01*
X86054376Y-126744102D01*
X85901698Y-126940262D01*
X85901692Y-126940271D01*
X85783385Y-127158885D01*
X85783380Y-127158896D01*
X85702666Y-127394007D01*
X85682726Y-127513499D01*
X76450500Y-127513499D01*
X76450500Y-124125541D01*
X83661750Y-124125541D01*
X83677135Y-124311230D01*
X83677137Y-124311238D01*
X83738162Y-124552217D01*
X83838017Y-124779867D01*
X83973982Y-124987978D01*
X84142342Y-125170864D01*
X84142352Y-125170873D01*
X84338512Y-125323551D01*
X84338521Y-125323557D01*
X84557135Y-125441864D01*
X84557146Y-125441869D01*
X84792257Y-125522583D01*
X84911749Y-125542523D01*
X84911750Y-125542522D01*
X84911750Y-124497186D01*
X84951906Y-124522993D01*
X85089861Y-124563500D01*
X85233639Y-124563500D01*
X85371594Y-124522993D01*
X85411750Y-124497186D01*
X85411750Y-125542523D01*
X85531242Y-125522583D01*
X85766353Y-125441869D01*
X85766364Y-125441864D01*
X85984978Y-125323557D01*
X85984987Y-125323551D01*
X86181147Y-125170873D01*
X86181157Y-125170864D01*
X86349517Y-124987978D01*
X86485482Y-124779867D01*
X86585337Y-124552217D01*
X86646362Y-124311238D01*
X86646364Y-124311230D01*
X86653394Y-124226384D01*
X89561250Y-124226384D01*
X89576067Y-124414650D01*
X89634876Y-124659610D01*
X89731283Y-124892359D01*
X89862910Y-125107153D01*
X89862911Y-125107156D01*
X89862914Y-125107159D01*
X90026526Y-125298724D01*
X90174816Y-125425375D01*
X90218093Y-125462338D01*
X90218096Y-125462339D01*
X90432890Y-125593966D01*
X90665638Y-125690373D01*
X90665639Y-125690373D01*
X90910602Y-125749183D01*
X91161750Y-125768949D01*
X91412898Y-125749183D01*
X91657861Y-125690373D01*
X91890609Y-125593966D01*
X92105409Y-125462336D01*
X92296974Y-125298724D01*
X92460586Y-125107159D01*
X92592216Y-124892359D01*
X92688623Y-124659611D01*
X92747433Y-124414648D01*
X92762250Y-124226382D01*
X92762250Y-121900618D01*
X92747433Y-121712352D01*
X92688623Y-121467389D01*
X92631715Y-121330000D01*
X156162305Y-121330000D01*
X156181415Y-121487396D01*
X156237641Y-121635648D01*
X156290584Y-121712349D01*
X156327708Y-121766132D01*
X156446387Y-121871272D01*
X156446389Y-121871273D01*
X156446393Y-121871276D01*
X156586776Y-121944955D01*
X156586778Y-121944956D01*
X156740724Y-121982900D01*
X156899276Y-121982900D01*
X157053222Y-121944956D01*
X157137704Y-121900616D01*
X157193606Y-121871276D01*
X157193607Y-121871274D01*
X157193613Y-121871272D01*
X157312292Y-121766132D01*
X157402360Y-121635646D01*
X157458584Y-121487397D01*
X157477695Y-121330000D01*
X157458584Y-121172603D01*
X157402360Y-121024354D01*
X157312292Y-120893868D01*
X157193613Y-120788728D01*
X157193611Y-120788727D01*
X157193610Y-120788726D01*
X157193606Y-120788723D01*
X157053223Y-120715044D01*
X156899276Y-120677100D01*
X156740724Y-120677100D01*
X156586776Y-120715044D01*
X156446393Y-120788723D01*
X156446389Y-120788726D01*
X156327707Y-120893868D01*
X156237641Y-121024351D01*
X156181415Y-121172603D01*
X156162305Y-121330000D01*
X92631715Y-121330000D01*
X92592216Y-121234641D01*
X92592216Y-121234640D01*
X92460589Y-121019846D01*
X92460588Y-121019843D01*
X92406168Y-120956126D01*
X92296974Y-120828276D01*
X92164396Y-120715044D01*
X92105406Y-120664661D01*
X92105403Y-120664660D01*
X91890609Y-120533033D01*
X91657860Y-120436626D01*
X91412901Y-120377817D01*
X91224537Y-120362992D01*
X91161750Y-120358051D01*
X91161749Y-120358051D01*
X90910598Y-120377817D01*
X90665639Y-120436626D01*
X90432890Y-120533033D01*
X90218096Y-120664660D01*
X90218093Y-120664661D01*
X90026526Y-120828276D01*
X89862911Y-121019843D01*
X89862910Y-121019846D01*
X89731283Y-121234640D01*
X89634876Y-121467389D01*
X89576067Y-121712349D01*
X89561250Y-121900616D01*
X89561250Y-124226384D01*
X86653394Y-124226384D01*
X86661750Y-124125541D01*
X86661750Y-123313500D01*
X85661750Y-123313500D01*
X85661750Y-122813500D01*
X86661749Y-122813500D01*
X86661750Y-122001459D01*
X86646364Y-121815769D01*
X86646362Y-121815761D01*
X86585337Y-121574782D01*
X86485482Y-121347132D01*
X86349517Y-121139021D01*
X86181157Y-120956135D01*
X86181147Y-120956126D01*
X85984987Y-120803448D01*
X85984978Y-120803442D01*
X85766364Y-120685135D01*
X85766353Y-120685130D01*
X85531242Y-120604416D01*
X85411750Y-120584476D01*
X85411750Y-121629813D01*
X85371594Y-121604007D01*
X85233639Y-121563500D01*
X85089861Y-121563500D01*
X84951906Y-121604007D01*
X84911750Y-121629813D01*
X84911750Y-120584476D01*
X84911749Y-120584476D01*
X84792257Y-120604416D01*
X84557146Y-120685130D01*
X84557135Y-120685135D01*
X84338521Y-120803442D01*
X84338512Y-120803448D01*
X84142352Y-120956126D01*
X84142342Y-120956135D01*
X83973982Y-121139021D01*
X83838017Y-121347132D01*
X83738162Y-121574782D01*
X83677137Y-121815761D01*
X83677135Y-121815769D01*
X83661750Y-122001459D01*
X83661750Y-122813500D01*
X84661750Y-122813500D01*
X84661750Y-123313500D01*
X83661750Y-123313500D01*
X83661750Y-124125541D01*
X76450500Y-124125541D01*
X76450500Y-117799999D01*
X158332305Y-117799999D01*
X158351415Y-117957396D01*
X158407641Y-118105648D01*
X158482177Y-118213632D01*
X158497708Y-118236132D01*
X158616387Y-118341272D01*
X158616389Y-118341273D01*
X158616393Y-118341276D01*
X158713908Y-118392456D01*
X158756778Y-118414956D01*
X158910724Y-118452900D01*
X159069276Y-118452900D01*
X159223222Y-118414956D01*
X159306475Y-118371260D01*
X159363606Y-118341276D01*
X159363607Y-118341274D01*
X159363613Y-118341272D01*
X159482292Y-118236132D01*
X159572360Y-118105646D01*
X159628584Y-117957397D01*
X159647695Y-117800000D01*
X159644963Y-117777499D01*
X179836569Y-117777499D01*
X179855679Y-117934896D01*
X179911905Y-118083148D01*
X179927436Y-118105648D01*
X180001972Y-118213632D01*
X180120651Y-118318772D01*
X180120653Y-118318773D01*
X180120657Y-118318776D01*
X180261040Y-118392455D01*
X180261042Y-118392456D01*
X180414988Y-118430400D01*
X180573540Y-118430400D01*
X180727486Y-118392456D01*
X180825006Y-118341273D01*
X180867870Y-118318776D01*
X180867871Y-118318774D01*
X180867877Y-118318772D01*
X180986556Y-118213632D01*
X181076624Y-118083146D01*
X181132848Y-117934897D01*
X181151959Y-117777500D01*
X181132848Y-117620103D01*
X181076624Y-117471854D01*
X180986556Y-117341368D01*
X180867877Y-117236228D01*
X180867875Y-117236227D01*
X180867874Y-117236226D01*
X180867870Y-117236223D01*
X180727487Y-117162544D01*
X180573540Y-117124600D01*
X180414988Y-117124600D01*
X180261040Y-117162544D01*
X180120657Y-117236223D01*
X180120653Y-117236226D01*
X180001971Y-117341368D01*
X179911905Y-117471851D01*
X179855679Y-117620103D01*
X179836569Y-117777499D01*
X159644963Y-117777499D01*
X159628584Y-117642603D01*
X159572360Y-117494354D01*
X159489945Y-117374956D01*
X159482292Y-117363868D01*
X159482291Y-117363867D01*
X159363613Y-117258728D01*
X159363611Y-117258727D01*
X159363610Y-117258726D01*
X159363606Y-117258723D01*
X159223223Y-117185044D01*
X159069276Y-117147100D01*
X158910724Y-117147100D01*
X158756776Y-117185044D01*
X158616393Y-117258723D01*
X158616389Y-117258726D01*
X158497707Y-117363868D01*
X158407641Y-117494351D01*
X158351415Y-117642603D01*
X158332305Y-117799999D01*
X76450500Y-117799999D01*
X76450500Y-115763499D01*
X85682726Y-115763499D01*
X85682728Y-115763500D01*
X86728064Y-115763500D01*
X86702257Y-115803656D01*
X86661750Y-115941611D01*
X86661750Y-116085389D01*
X86702257Y-116223344D01*
X86728064Y-116263500D01*
X85682727Y-116263500D01*
X85702666Y-116382992D01*
X85783380Y-116618103D01*
X85783385Y-116618114D01*
X85901692Y-116836728D01*
X85901698Y-116836737D01*
X86054376Y-117032897D01*
X86054385Y-117032907D01*
X86237272Y-117201267D01*
X86237271Y-117201267D01*
X86445382Y-117337232D01*
X86673032Y-117437087D01*
X86914011Y-117498112D01*
X86914019Y-117498114D01*
X87099709Y-117513500D01*
X87911750Y-117513500D01*
X87911750Y-116513500D01*
X88411750Y-116513500D01*
X88411750Y-117513500D01*
X89223791Y-117513500D01*
X89409480Y-117498114D01*
X89409488Y-117498112D01*
X89650467Y-117437087D01*
X89878117Y-117337232D01*
X90086228Y-117201267D01*
X90269114Y-117032907D01*
X90269123Y-117032897D01*
X90421801Y-116836737D01*
X90421807Y-116836728D01*
X90540114Y-116618114D01*
X90540119Y-116618103D01*
X90620833Y-116382992D01*
X90640773Y-116263500D01*
X89595436Y-116263500D01*
X89621243Y-116223344D01*
X89639843Y-116159999D01*
X147911305Y-116159999D01*
X147930415Y-116317396D01*
X147932870Y-116323868D01*
X147982357Y-116454354D01*
X147986641Y-116465648D01*
X148019671Y-116513500D01*
X148076708Y-116596132D01*
X148195387Y-116701272D01*
X148195389Y-116701273D01*
X148195393Y-116701276D01*
X148307280Y-116759999D01*
X148335778Y-116774956D01*
X148489724Y-116812900D01*
X148648276Y-116812900D01*
X148802222Y-116774956D01*
X148830719Y-116759999D01*
X169832305Y-116759999D01*
X169851415Y-116917396D01*
X169907641Y-117065648D01*
X169997707Y-117196131D01*
X169997708Y-117196132D01*
X170116387Y-117301272D01*
X170116389Y-117301273D01*
X170116393Y-117301276D01*
X170192782Y-117341368D01*
X170256778Y-117374956D01*
X170410724Y-117412900D01*
X170569276Y-117412900D01*
X170723222Y-117374956D01*
X170806475Y-117331260D01*
X170863606Y-117301276D01*
X170863607Y-117301274D01*
X170863613Y-117301272D01*
X170982292Y-117196132D01*
X171072360Y-117065646D01*
X171128584Y-116917397D01*
X171147695Y-116760000D01*
X171128584Y-116602603D01*
X171072360Y-116454354D01*
X170982292Y-116323868D01*
X170863613Y-116218728D01*
X170863611Y-116218727D01*
X170863610Y-116218726D01*
X170863606Y-116218723D01*
X170723223Y-116145044D01*
X170569276Y-116107100D01*
X170410724Y-116107100D01*
X170256776Y-116145044D01*
X170116393Y-116218723D01*
X170116389Y-116218726D01*
X169997707Y-116323868D01*
X169907641Y-116454351D01*
X169851415Y-116602603D01*
X169832305Y-116759999D01*
X148830719Y-116759999D01*
X148885475Y-116731260D01*
X148942606Y-116701276D01*
X148942607Y-116701274D01*
X148942613Y-116701272D01*
X149061292Y-116596132D01*
X149151360Y-116465646D01*
X149207584Y-116317397D01*
X149226695Y-116160000D01*
X149207584Y-116002603D01*
X149151360Y-115854354D01*
X149061292Y-115723868D01*
X148942613Y-115618728D01*
X148942611Y-115618727D01*
X148942610Y-115618726D01*
X148942606Y-115618723D01*
X148802223Y-115545044D01*
X148648276Y-115507100D01*
X148489724Y-115507100D01*
X148335776Y-115545044D01*
X148195393Y-115618723D01*
X148195389Y-115618726D01*
X148076707Y-115723868D01*
X147986641Y-115854351D01*
X147930415Y-116002603D01*
X147911305Y-116159999D01*
X89639843Y-116159999D01*
X89661750Y-116085389D01*
X89661750Y-115941611D01*
X89621243Y-115803656D01*
X89595436Y-115763500D01*
X90640772Y-115763500D01*
X90640773Y-115763499D01*
X90620833Y-115644007D01*
X90540119Y-115408896D01*
X90540114Y-115408885D01*
X90421807Y-115190271D01*
X90421801Y-115190262D01*
X90269123Y-114994102D01*
X90269114Y-114994092D01*
X90086227Y-114825732D01*
X90086228Y-114825732D01*
X89878117Y-114689767D01*
X89650467Y-114589912D01*
X89409488Y-114528887D01*
X89409480Y-114528885D01*
X89223791Y-114513500D01*
X88411750Y-114513500D01*
X88411750Y-115513500D01*
X87911750Y-115513500D01*
X87911750Y-114513500D01*
X87099709Y-114513500D01*
X86914019Y-114528885D01*
X86914011Y-114528887D01*
X86673032Y-114589912D01*
X86445382Y-114689767D01*
X86237271Y-114825732D01*
X86054385Y-114994092D01*
X86054376Y-114994102D01*
X85901698Y-115190262D01*
X85901692Y-115190271D01*
X85783385Y-115408885D01*
X85783380Y-115408896D01*
X85702666Y-115644007D01*
X85682726Y-115763499D01*
X76450500Y-115763499D01*
X76450500Y-112375541D01*
X83661750Y-112375541D01*
X83677135Y-112561230D01*
X83677137Y-112561238D01*
X83738162Y-112802217D01*
X83838017Y-113029867D01*
X83973982Y-113237978D01*
X84142342Y-113420864D01*
X84142352Y-113420873D01*
X84338512Y-113573551D01*
X84338521Y-113573557D01*
X84557135Y-113691864D01*
X84557146Y-113691869D01*
X84792257Y-113772583D01*
X84911749Y-113792523D01*
X84911750Y-113792522D01*
X84911750Y-112747186D01*
X84951906Y-112772993D01*
X85089861Y-112813500D01*
X85233639Y-112813500D01*
X85371594Y-112772993D01*
X85411750Y-112747186D01*
X85411750Y-113792523D01*
X85531242Y-113772583D01*
X85766353Y-113691869D01*
X85766364Y-113691864D01*
X85984978Y-113573557D01*
X85984987Y-113573551D01*
X86181147Y-113420873D01*
X86181157Y-113420864D01*
X86349517Y-113237978D01*
X86485482Y-113029867D01*
X86585337Y-112802217D01*
X86646362Y-112561238D01*
X86646364Y-112561230D01*
X86653394Y-112476384D01*
X89561250Y-112476384D01*
X89576067Y-112664650D01*
X89634876Y-112909610D01*
X89731283Y-113142359D01*
X89862910Y-113357153D01*
X89862911Y-113357156D01*
X89862914Y-113357159D01*
X90026526Y-113548724D01*
X90123182Y-113631276D01*
X90218093Y-113712338D01*
X90218096Y-113712339D01*
X90432890Y-113843966D01*
X90665638Y-113940373D01*
X90665639Y-113940373D01*
X90910602Y-113999183D01*
X91161750Y-114018949D01*
X91412898Y-113999183D01*
X91657861Y-113940373D01*
X91890609Y-113843966D01*
X92105409Y-113712336D01*
X92296974Y-113548724D01*
X92460586Y-113357159D01*
X92592216Y-113142359D01*
X92613904Y-113090000D01*
X221682305Y-113090000D01*
X221701415Y-113247396D01*
X221757641Y-113395648D01*
X221775053Y-113420873D01*
X221847708Y-113526132D01*
X221966387Y-113631272D01*
X221966389Y-113631273D01*
X221966393Y-113631276D01*
X222081843Y-113691869D01*
X222106778Y-113704956D01*
X222260724Y-113742900D01*
X222419276Y-113742900D01*
X222573222Y-113704956D01*
X222656475Y-113661260D01*
X222713606Y-113631276D01*
X222713607Y-113631274D01*
X222713613Y-113631272D01*
X222832292Y-113526132D01*
X222922360Y-113395646D01*
X222978584Y-113247397D01*
X222997695Y-113090000D01*
X222978584Y-112932603D01*
X222922360Y-112784354D01*
X222832292Y-112653868D01*
X222713613Y-112548728D01*
X222713611Y-112548727D01*
X222713610Y-112548726D01*
X222713606Y-112548723D01*
X222573223Y-112475044D01*
X222419276Y-112437100D01*
X222260724Y-112437100D01*
X222106776Y-112475044D01*
X221966393Y-112548723D01*
X221966389Y-112548726D01*
X221847707Y-112653868D01*
X221757641Y-112784351D01*
X221701415Y-112932603D01*
X221682305Y-113090000D01*
X92613904Y-113090000D01*
X92688623Y-112909611D01*
X92747433Y-112664648D01*
X92762250Y-112476382D01*
X92762250Y-110150618D01*
X92747433Y-109962352D01*
X92688623Y-109717389D01*
X92592216Y-109484641D01*
X92592216Y-109484640D01*
X92460589Y-109269846D01*
X92460588Y-109269843D01*
X92406168Y-109206126D01*
X92296974Y-109078276D01*
X92170321Y-108970104D01*
X92105406Y-108914661D01*
X92105403Y-108914660D01*
X91890609Y-108783033D01*
X91657860Y-108686626D01*
X91412901Y-108627817D01*
X91224537Y-108612992D01*
X91161750Y-108608051D01*
X91161749Y-108608051D01*
X90910598Y-108627817D01*
X90665639Y-108686626D01*
X90432890Y-108783033D01*
X90218096Y-108914660D01*
X90218093Y-108914661D01*
X90026526Y-109078276D01*
X89862911Y-109269843D01*
X89862910Y-109269846D01*
X89731283Y-109484640D01*
X89634876Y-109717389D01*
X89576067Y-109962349D01*
X89561250Y-110150616D01*
X89561250Y-112476384D01*
X86653394Y-112476384D01*
X86661750Y-112375541D01*
X86661750Y-111563500D01*
X85661750Y-111563500D01*
X85661750Y-111063500D01*
X86661749Y-111063500D01*
X86661750Y-110251459D01*
X86646364Y-110065769D01*
X86646362Y-110065761D01*
X86585337Y-109824782D01*
X86485482Y-109597132D01*
X86349517Y-109389021D01*
X86181157Y-109206135D01*
X86181147Y-109206126D01*
X85984987Y-109053448D01*
X85984978Y-109053442D01*
X85766364Y-108935135D01*
X85766353Y-108935130D01*
X85531242Y-108854416D01*
X85411750Y-108834476D01*
X85411750Y-109879813D01*
X85371594Y-109854007D01*
X85233639Y-109813500D01*
X85089861Y-109813500D01*
X84951906Y-109854007D01*
X84911750Y-109879813D01*
X84911750Y-108834476D01*
X84911749Y-108834476D01*
X84792257Y-108854416D01*
X84557146Y-108935130D01*
X84557135Y-108935135D01*
X84338521Y-109053442D01*
X84338512Y-109053448D01*
X84142352Y-109206126D01*
X84142342Y-109206135D01*
X83973982Y-109389021D01*
X83838017Y-109597132D01*
X83738162Y-109824782D01*
X83677137Y-110065761D01*
X83677135Y-110065769D01*
X83661750Y-110251459D01*
X83661750Y-111063500D01*
X84661750Y-111063500D01*
X84661750Y-111563500D01*
X83661750Y-111563500D01*
X83661750Y-112375541D01*
X76450500Y-112375541D01*
X76450500Y-104013499D01*
X85682726Y-104013499D01*
X85682728Y-104013500D01*
X86728064Y-104013500D01*
X86702257Y-104053656D01*
X86661750Y-104191611D01*
X86661750Y-104335389D01*
X86702257Y-104473344D01*
X86728064Y-104513500D01*
X85682727Y-104513500D01*
X85702666Y-104632992D01*
X85783380Y-104868103D01*
X85783385Y-104868114D01*
X85901692Y-105086728D01*
X85901698Y-105086737D01*
X86054376Y-105282897D01*
X86054385Y-105282907D01*
X86237272Y-105451267D01*
X86237271Y-105451267D01*
X86445382Y-105587232D01*
X86673032Y-105687087D01*
X86914011Y-105748112D01*
X86914019Y-105748114D01*
X87099709Y-105763500D01*
X87911750Y-105763500D01*
X87911750Y-104763500D01*
X88411750Y-104763500D01*
X88411750Y-105763500D01*
X89223791Y-105763500D01*
X89409480Y-105748114D01*
X89409488Y-105748112D01*
X89650467Y-105687087D01*
X89878117Y-105587232D01*
X90086228Y-105451267D01*
X90269114Y-105282907D01*
X90269123Y-105282897D01*
X90421801Y-105086737D01*
X90421807Y-105086728D01*
X90540114Y-104868114D01*
X90540119Y-104868103D01*
X90620833Y-104632992D01*
X90640773Y-104513500D01*
X89595436Y-104513500D01*
X89621243Y-104473344D01*
X89661750Y-104335389D01*
X89661750Y-104191611D01*
X89621243Y-104053656D01*
X89595436Y-104013500D01*
X90640772Y-104013500D01*
X90640773Y-104013499D01*
X90620833Y-103894007D01*
X90540119Y-103658896D01*
X90540114Y-103658885D01*
X90421807Y-103440271D01*
X90421801Y-103440262D01*
X90269123Y-103244102D01*
X90269114Y-103244092D01*
X90086227Y-103075732D01*
X90086228Y-103075732D01*
X89878117Y-102939767D01*
X89696273Y-102860004D01*
X183524451Y-102860004D01*
X183544616Y-103129101D01*
X183604664Y-103392188D01*
X183604666Y-103392195D01*
X183703257Y-103643398D01*
X183838185Y-103877102D01*
X183946959Y-104013500D01*
X184006442Y-104088089D01*
X184193183Y-104261358D01*
X184204259Y-104271635D01*
X184427226Y-104423651D01*
X184670359Y-104540738D01*
X184928228Y-104620280D01*
X184928229Y-104620280D01*
X184928232Y-104620281D01*
X185195063Y-104660499D01*
X185195068Y-104660499D01*
X185195071Y-104660500D01*
X185195072Y-104660500D01*
X185464928Y-104660500D01*
X185464929Y-104660500D01*
X185464936Y-104660499D01*
X185731767Y-104620281D01*
X185731768Y-104620280D01*
X185731772Y-104620280D01*
X185989641Y-104540738D01*
X186232775Y-104423651D01*
X186455741Y-104271635D01*
X186653561Y-104088085D01*
X186821815Y-103877102D01*
X186956743Y-103643398D01*
X187055334Y-103392195D01*
X187115383Y-103129103D01*
X187122104Y-103039401D01*
X187135549Y-102860004D01*
X188224451Y-102860004D01*
X188244616Y-103129101D01*
X188304664Y-103392188D01*
X188304666Y-103392195D01*
X188403257Y-103643398D01*
X188538185Y-103877102D01*
X188646959Y-104013500D01*
X188706442Y-104088089D01*
X188893183Y-104261358D01*
X188904259Y-104271635D01*
X189127226Y-104423651D01*
X189370359Y-104540738D01*
X189628228Y-104620280D01*
X189628229Y-104620280D01*
X189628232Y-104620281D01*
X189895063Y-104660499D01*
X189895068Y-104660499D01*
X189895071Y-104660500D01*
X189895072Y-104660500D01*
X190164928Y-104660500D01*
X190164929Y-104660500D01*
X190164936Y-104660499D01*
X190431767Y-104620281D01*
X190431768Y-104620280D01*
X190431772Y-104620280D01*
X190689641Y-104540738D01*
X190932775Y-104423651D01*
X191155741Y-104271635D01*
X191353561Y-104088085D01*
X191521815Y-103877102D01*
X191656743Y-103643398D01*
X191755334Y-103392195D01*
X191815383Y-103129103D01*
X191822104Y-103039401D01*
X191835549Y-102860004D01*
X192924451Y-102860004D01*
X192944616Y-103129101D01*
X193004664Y-103392188D01*
X193004666Y-103392195D01*
X193103257Y-103643398D01*
X193238185Y-103877102D01*
X193346959Y-104013500D01*
X193406442Y-104088089D01*
X193593183Y-104261358D01*
X193604259Y-104271635D01*
X193827226Y-104423651D01*
X194070359Y-104540738D01*
X194328228Y-104620280D01*
X194328229Y-104620280D01*
X194328232Y-104620281D01*
X194595063Y-104660499D01*
X194595068Y-104660499D01*
X194595071Y-104660500D01*
X194595072Y-104660500D01*
X194864928Y-104660500D01*
X194864929Y-104660500D01*
X194864936Y-104660499D01*
X195131767Y-104620281D01*
X195131768Y-104620280D01*
X195131772Y-104620280D01*
X195389641Y-104540738D01*
X195632775Y-104423651D01*
X195855741Y-104271635D01*
X196053561Y-104088085D01*
X196221815Y-103877102D01*
X196356743Y-103643398D01*
X196455334Y-103392195D01*
X196515383Y-103129103D01*
X196522104Y-103039402D01*
X196535549Y-102860004D01*
X196535549Y-102859995D01*
X196515383Y-102590898D01*
X196515383Y-102590897D01*
X196455334Y-102327805D01*
X196356743Y-102076602D01*
X196221815Y-101842898D01*
X196139756Y-101740000D01*
X221502305Y-101740000D01*
X221521415Y-101897396D01*
X221561893Y-102004126D01*
X221577640Y-102045646D01*
X221667708Y-102176132D01*
X221786387Y-102281272D01*
X221786389Y-102281273D01*
X221786393Y-102281276D01*
X221875058Y-102327811D01*
X221926778Y-102354956D01*
X222080724Y-102392900D01*
X222239276Y-102392900D01*
X222393222Y-102354956D01*
X222476475Y-102311260D01*
X222533606Y-102281276D01*
X222533607Y-102281274D01*
X222533613Y-102281272D01*
X222652292Y-102176132D01*
X222742360Y-102045646D01*
X222798584Y-101897397D01*
X222817695Y-101740000D01*
X222798584Y-101582603D01*
X222742360Y-101434354D01*
X222652292Y-101303868D01*
X222533613Y-101198728D01*
X222533611Y-101198727D01*
X222533610Y-101198726D01*
X222533606Y-101198723D01*
X222393223Y-101125044D01*
X222239276Y-101087100D01*
X222080724Y-101087100D01*
X221926776Y-101125044D01*
X221786393Y-101198723D01*
X221786389Y-101198726D01*
X221667707Y-101303868D01*
X221577641Y-101434351D01*
X221521415Y-101582603D01*
X221502305Y-101740000D01*
X196139756Y-101740000D01*
X196053561Y-101631915D01*
X196053560Y-101631914D01*
X196053557Y-101631910D01*
X195855741Y-101448365D01*
X195773595Y-101392359D01*
X195632775Y-101296349D01*
X195632769Y-101296346D01*
X195632768Y-101296345D01*
X195632767Y-101296344D01*
X195389643Y-101179263D01*
X195389645Y-101179263D01*
X195131773Y-101099720D01*
X195131767Y-101099718D01*
X194864936Y-101059500D01*
X194864929Y-101059500D01*
X194595071Y-101059500D01*
X194595063Y-101059500D01*
X194328232Y-101099718D01*
X194328226Y-101099720D01*
X194070358Y-101179262D01*
X193827230Y-101296346D01*
X193604258Y-101448365D01*
X193406442Y-101631910D01*
X193238185Y-101842898D01*
X193103258Y-102076599D01*
X193103256Y-102076603D01*
X193004666Y-102327804D01*
X193004664Y-102327811D01*
X192944616Y-102590898D01*
X192924451Y-102859995D01*
X192924451Y-102860004D01*
X191835549Y-102860004D01*
X191835549Y-102859995D01*
X191815383Y-102590898D01*
X191815383Y-102590897D01*
X191755334Y-102327805D01*
X191656743Y-102076602D01*
X191521815Y-101842898D01*
X191353561Y-101631915D01*
X191353560Y-101631914D01*
X191353557Y-101631910D01*
X191155741Y-101448365D01*
X191073595Y-101392359D01*
X190932775Y-101296349D01*
X190932769Y-101296346D01*
X190932768Y-101296345D01*
X190932767Y-101296344D01*
X190689643Y-101179263D01*
X190689645Y-101179263D01*
X190431773Y-101099720D01*
X190431767Y-101099718D01*
X190164936Y-101059500D01*
X190164929Y-101059500D01*
X189895071Y-101059500D01*
X189895063Y-101059500D01*
X189628232Y-101099718D01*
X189628226Y-101099720D01*
X189370358Y-101179262D01*
X189127230Y-101296346D01*
X188904258Y-101448365D01*
X188706442Y-101631910D01*
X188538185Y-101842898D01*
X188403258Y-102076599D01*
X188403256Y-102076603D01*
X188304666Y-102327804D01*
X188304664Y-102327811D01*
X188244616Y-102590898D01*
X188224451Y-102859995D01*
X188224451Y-102860004D01*
X187135549Y-102860004D01*
X187135549Y-102859995D01*
X187115383Y-102590898D01*
X187115383Y-102590897D01*
X187055334Y-102327805D01*
X186956743Y-102076602D01*
X186821815Y-101842898D01*
X186653561Y-101631915D01*
X186653560Y-101631914D01*
X186653557Y-101631910D01*
X186455741Y-101448365D01*
X186373595Y-101392359D01*
X186232775Y-101296349D01*
X186232769Y-101296346D01*
X186232768Y-101296345D01*
X186232767Y-101296344D01*
X185989643Y-101179263D01*
X185989645Y-101179263D01*
X185731773Y-101099720D01*
X185731767Y-101099718D01*
X185464936Y-101059500D01*
X185464929Y-101059500D01*
X185195071Y-101059500D01*
X185195063Y-101059500D01*
X184928232Y-101099718D01*
X184928226Y-101099720D01*
X184670358Y-101179262D01*
X184427230Y-101296346D01*
X184204258Y-101448365D01*
X184006442Y-101631910D01*
X183838185Y-101842898D01*
X183703258Y-102076599D01*
X183703256Y-102076603D01*
X183604666Y-102327804D01*
X183604664Y-102327811D01*
X183544616Y-102590898D01*
X183524451Y-102859995D01*
X183524451Y-102860004D01*
X89696273Y-102860004D01*
X89650467Y-102839912D01*
X89409488Y-102778887D01*
X89409480Y-102778885D01*
X89223791Y-102763500D01*
X88411750Y-102763500D01*
X88411750Y-103763500D01*
X87911750Y-103763500D01*
X87911750Y-102763500D01*
X87099709Y-102763500D01*
X86914019Y-102778885D01*
X86914011Y-102778887D01*
X86673032Y-102839912D01*
X86445382Y-102939767D01*
X86237271Y-103075732D01*
X86054385Y-103244092D01*
X86054376Y-103244102D01*
X85901698Y-103440262D01*
X85901692Y-103440271D01*
X85783385Y-103658885D01*
X85783380Y-103658896D01*
X85702666Y-103894007D01*
X85682726Y-104013499D01*
X76450500Y-104013499D01*
X76450500Y-100625541D01*
X83661750Y-100625541D01*
X83677135Y-100811230D01*
X83677137Y-100811238D01*
X83738162Y-101052217D01*
X83838017Y-101279867D01*
X83973982Y-101487978D01*
X84142342Y-101670864D01*
X84142352Y-101670873D01*
X84338512Y-101823551D01*
X84338521Y-101823557D01*
X84557135Y-101941864D01*
X84557146Y-101941869D01*
X84792257Y-102022583D01*
X84911749Y-102042523D01*
X84911750Y-102042522D01*
X84911750Y-100997186D01*
X84951906Y-101022993D01*
X85089861Y-101063500D01*
X85233639Y-101063500D01*
X85371594Y-101022993D01*
X85411750Y-100997186D01*
X85411750Y-102042523D01*
X85531242Y-102022583D01*
X85766353Y-101941869D01*
X85766364Y-101941864D01*
X85984978Y-101823557D01*
X85984987Y-101823551D01*
X86181147Y-101670873D01*
X86181157Y-101670864D01*
X86349517Y-101487978D01*
X86485482Y-101279867D01*
X86585337Y-101052217D01*
X86646362Y-100811238D01*
X86646364Y-100811230D01*
X86653394Y-100726384D01*
X89561250Y-100726384D01*
X89576067Y-100914650D01*
X89634876Y-101159610D01*
X89731283Y-101392359D01*
X89862910Y-101607153D01*
X89862911Y-101607156D01*
X89917323Y-101670864D01*
X90026526Y-101798724D01*
X90142056Y-101897396D01*
X90218093Y-101962338D01*
X90218096Y-101962339D01*
X90432890Y-102093966D01*
X90631258Y-102176132D01*
X90665639Y-102190373D01*
X90910602Y-102249183D01*
X91161750Y-102268949D01*
X91412898Y-102249183D01*
X91657861Y-102190373D01*
X91890609Y-102093966D01*
X92105409Y-101962336D01*
X92296974Y-101798724D01*
X92460586Y-101607159D01*
X92592216Y-101392359D01*
X92688623Y-101159611D01*
X92747433Y-100914648D01*
X92762250Y-100726382D01*
X92762250Y-99430000D01*
X144772305Y-99430000D01*
X144791415Y-99587396D01*
X144847641Y-99735648D01*
X144937707Y-99866131D01*
X144937708Y-99866132D01*
X145056387Y-99971272D01*
X145056389Y-99971273D01*
X145056393Y-99971276D01*
X145196776Y-100044955D01*
X145196778Y-100044956D01*
X145350724Y-100082900D01*
X145509276Y-100082900D01*
X145663222Y-100044956D01*
X145746475Y-100001260D01*
X145803606Y-99971276D01*
X145803607Y-99971274D01*
X145803613Y-99971272D01*
X145922292Y-99866132D01*
X146012360Y-99735646D01*
X146068584Y-99587397D01*
X146087695Y-99430000D01*
X169002305Y-99430000D01*
X169021415Y-99587396D01*
X169077641Y-99735648D01*
X169167707Y-99866131D01*
X169167708Y-99866132D01*
X169286387Y-99971272D01*
X169286389Y-99971273D01*
X169286393Y-99971276D01*
X169426776Y-100044955D01*
X169426778Y-100044956D01*
X169580724Y-100082900D01*
X169739276Y-100082900D01*
X169893222Y-100044956D01*
X169976475Y-100001260D01*
X170033606Y-99971276D01*
X170033607Y-99971274D01*
X170033613Y-99971272D01*
X170152292Y-99866132D01*
X170242360Y-99735646D01*
X170298584Y-99587397D01*
X170317695Y-99430000D01*
X170298584Y-99272603D01*
X170242360Y-99124354D01*
X170152292Y-98993868D01*
X170033613Y-98888728D01*
X170033611Y-98888727D01*
X170033610Y-98888726D01*
X170033606Y-98888723D01*
X169893223Y-98815044D01*
X169739276Y-98777100D01*
X169580724Y-98777100D01*
X169426776Y-98815044D01*
X169286393Y-98888723D01*
X169286389Y-98888726D01*
X169167707Y-98993868D01*
X169077641Y-99124351D01*
X169021415Y-99272603D01*
X169002305Y-99430000D01*
X146087695Y-99430000D01*
X146068584Y-99272603D01*
X146012360Y-99124354D01*
X145922292Y-98993868D01*
X145803613Y-98888728D01*
X145803611Y-98888727D01*
X145803610Y-98888726D01*
X145803606Y-98888723D01*
X145663223Y-98815044D01*
X145509276Y-98777100D01*
X145350724Y-98777100D01*
X145196776Y-98815044D01*
X145056393Y-98888723D01*
X145056389Y-98888726D01*
X144937707Y-98993868D01*
X144847641Y-99124351D01*
X144791415Y-99272603D01*
X144772305Y-99430000D01*
X92762250Y-99430000D01*
X92762250Y-98400618D01*
X92747433Y-98212352D01*
X92688623Y-97967389D01*
X92592216Y-97734641D01*
X92592216Y-97734640D01*
X92460589Y-97519846D01*
X92460588Y-97519843D01*
X92406168Y-97456126D01*
X92296974Y-97328276D01*
X92170321Y-97220104D01*
X92105406Y-97164661D01*
X92105403Y-97164660D01*
X91890609Y-97033033D01*
X91657860Y-96936626D01*
X91412901Y-96877817D01*
X91224537Y-96862992D01*
X91161750Y-96858051D01*
X91161749Y-96858051D01*
X90910598Y-96877817D01*
X90665639Y-96936626D01*
X90432890Y-97033033D01*
X90218096Y-97164660D01*
X90218093Y-97164661D01*
X90026526Y-97328276D01*
X89862911Y-97519843D01*
X89862910Y-97519846D01*
X89731283Y-97734640D01*
X89634876Y-97967389D01*
X89576067Y-98212349D01*
X89561250Y-98400616D01*
X89561250Y-100726384D01*
X86653394Y-100726384D01*
X86661750Y-100625541D01*
X86661750Y-99813500D01*
X85661750Y-99813500D01*
X85661750Y-99313500D01*
X86661749Y-99313500D01*
X86661750Y-98501459D01*
X86646364Y-98315769D01*
X86646362Y-98315761D01*
X86585337Y-98074782D01*
X86485482Y-97847132D01*
X86349517Y-97639021D01*
X86181157Y-97456135D01*
X86181147Y-97456126D01*
X85984987Y-97303448D01*
X85984978Y-97303442D01*
X85766364Y-97185135D01*
X85766353Y-97185130D01*
X85531242Y-97104416D01*
X85411750Y-97084476D01*
X85411750Y-98129813D01*
X85371594Y-98104007D01*
X85233639Y-98063500D01*
X85089861Y-98063500D01*
X84951906Y-98104007D01*
X84911750Y-98129813D01*
X84911750Y-97084476D01*
X84911749Y-97084476D01*
X84792257Y-97104416D01*
X84557146Y-97185130D01*
X84557135Y-97185135D01*
X84338521Y-97303442D01*
X84338512Y-97303448D01*
X84142352Y-97456126D01*
X84142342Y-97456135D01*
X83973982Y-97639021D01*
X83838017Y-97847132D01*
X83738162Y-98074782D01*
X83677137Y-98315761D01*
X83677135Y-98315769D01*
X83661750Y-98501459D01*
X83661750Y-99313500D01*
X84661750Y-99313500D01*
X84661750Y-99813500D01*
X83661750Y-99813500D01*
X83661750Y-100625541D01*
X76450500Y-100625541D01*
X76450500Y-94134999D01*
X151997305Y-94134999D01*
X152016415Y-94292396D01*
X152056893Y-94399126D01*
X152072640Y-94440646D01*
X152162708Y-94571132D01*
X152281387Y-94676272D01*
X152281389Y-94676273D01*
X152281393Y-94676276D01*
X152421776Y-94749955D01*
X152421778Y-94749956D01*
X152575724Y-94787900D01*
X152734276Y-94787900D01*
X152888222Y-94749956D01*
X152971475Y-94706260D01*
X153028606Y-94676276D01*
X153028607Y-94676274D01*
X153028613Y-94676272D01*
X153147292Y-94571132D01*
X153237360Y-94440646D01*
X153293584Y-94292397D01*
X153312695Y-94135000D01*
X153293584Y-93977603D01*
X153237360Y-93829354D01*
X153147292Y-93698868D01*
X153028613Y-93593728D01*
X153028611Y-93593727D01*
X153028610Y-93593726D01*
X153028606Y-93593723D01*
X152888223Y-93520044D01*
X152734276Y-93482100D01*
X152575724Y-93482100D01*
X152421776Y-93520044D01*
X152281393Y-93593723D01*
X152281389Y-93593726D01*
X152162707Y-93698868D01*
X152072641Y-93829351D01*
X152016415Y-93977603D01*
X151997305Y-94134999D01*
X76450500Y-94134999D01*
X76450500Y-92263499D01*
X85682726Y-92263499D01*
X85682728Y-92263500D01*
X86728064Y-92263500D01*
X86702257Y-92303656D01*
X86661750Y-92441611D01*
X86661750Y-92585389D01*
X86702257Y-92723344D01*
X86728064Y-92763500D01*
X85682727Y-92763500D01*
X85702666Y-92882992D01*
X85783380Y-93118103D01*
X85783385Y-93118114D01*
X85901692Y-93336728D01*
X85901698Y-93336737D01*
X86054376Y-93532897D01*
X86054385Y-93532907D01*
X86237272Y-93701267D01*
X86237271Y-93701267D01*
X86445382Y-93837232D01*
X86673032Y-93937087D01*
X86914011Y-93998112D01*
X86914019Y-93998114D01*
X87099709Y-94013500D01*
X87911750Y-94013500D01*
X87911750Y-93013500D01*
X88411750Y-93013500D01*
X88411750Y-94013500D01*
X89223791Y-94013500D01*
X89409480Y-93998114D01*
X89409488Y-93998112D01*
X89650467Y-93937087D01*
X89878117Y-93837232D01*
X90086228Y-93701267D01*
X90269114Y-93532907D01*
X90269123Y-93532897D01*
X90421801Y-93336737D01*
X90421807Y-93336728D01*
X90506621Y-93180004D01*
X183634451Y-93180004D01*
X183654616Y-93449101D01*
X183714664Y-93712188D01*
X183714666Y-93712195D01*
X183802930Y-93937087D01*
X183813257Y-93963398D01*
X183948185Y-94197102D01*
X184024180Y-94292396D01*
X184116442Y-94408089D01*
X184292161Y-94571131D01*
X184314259Y-94591635D01*
X184537226Y-94743651D01*
X184780359Y-94860738D01*
X185038228Y-94940280D01*
X185038229Y-94940280D01*
X185038232Y-94940281D01*
X185305063Y-94980499D01*
X185305068Y-94980499D01*
X185305071Y-94980500D01*
X185305072Y-94980500D01*
X185574928Y-94980500D01*
X185574929Y-94980500D01*
X185574936Y-94980499D01*
X185841767Y-94940281D01*
X185841768Y-94940280D01*
X185841772Y-94940280D01*
X186099641Y-94860738D01*
X186342775Y-94743651D01*
X186565741Y-94591635D01*
X186763561Y-94408085D01*
X186931815Y-94197102D01*
X187066743Y-93963398D01*
X187165334Y-93712195D01*
X187225383Y-93449103D01*
X187232105Y-93359402D01*
X187245549Y-93180004D01*
X188334451Y-93180004D01*
X188354616Y-93449101D01*
X188414664Y-93712188D01*
X188414666Y-93712195D01*
X188502930Y-93937087D01*
X188513257Y-93963398D01*
X188648185Y-94197102D01*
X188724180Y-94292396D01*
X188816442Y-94408089D01*
X188992161Y-94571131D01*
X189014259Y-94591635D01*
X189237226Y-94743651D01*
X189480359Y-94860738D01*
X189738228Y-94940280D01*
X189738229Y-94940280D01*
X189738232Y-94940281D01*
X190005063Y-94980499D01*
X190005068Y-94980499D01*
X190005071Y-94980500D01*
X190005072Y-94980500D01*
X190274928Y-94980500D01*
X190274929Y-94980500D01*
X190274936Y-94980499D01*
X190541767Y-94940281D01*
X190541768Y-94940280D01*
X190541772Y-94940280D01*
X190799641Y-94860738D01*
X191042775Y-94743651D01*
X191265741Y-94591635D01*
X191463561Y-94408085D01*
X191631815Y-94197102D01*
X191766743Y-93963398D01*
X191865334Y-93712195D01*
X191925383Y-93449103D01*
X191932104Y-93359401D01*
X191945549Y-93180004D01*
X193034451Y-93180004D01*
X193054616Y-93449101D01*
X193114664Y-93712188D01*
X193114666Y-93712195D01*
X193202930Y-93937087D01*
X193213257Y-93963398D01*
X193348185Y-94197102D01*
X193424180Y-94292396D01*
X193516442Y-94408089D01*
X193692161Y-94571131D01*
X193714259Y-94591635D01*
X193937226Y-94743651D01*
X194180359Y-94860738D01*
X194438228Y-94940280D01*
X194438229Y-94940280D01*
X194438232Y-94940281D01*
X194705063Y-94980499D01*
X194705068Y-94980499D01*
X194705071Y-94980500D01*
X194705072Y-94980500D01*
X194974928Y-94980500D01*
X194974929Y-94980500D01*
X194974936Y-94980499D01*
X195241767Y-94940281D01*
X195241768Y-94940280D01*
X195241772Y-94940280D01*
X195499641Y-94860738D01*
X195742775Y-94743651D01*
X195965741Y-94591635D01*
X196163561Y-94408085D01*
X196331815Y-94197102D01*
X196466743Y-93963398D01*
X196565334Y-93712195D01*
X196625383Y-93449103D01*
X196632105Y-93359402D01*
X196645549Y-93180004D01*
X196645549Y-93179995D01*
X196625383Y-92910898D01*
X196610182Y-92844298D01*
X196565334Y-92647805D01*
X196466743Y-92396602D01*
X196331815Y-92162898D01*
X196163561Y-91951915D01*
X196163560Y-91951914D01*
X196163557Y-91951910D01*
X195965741Y-91768365D01*
X195851185Y-91690262D01*
X195742775Y-91616349D01*
X195742769Y-91616346D01*
X195742768Y-91616345D01*
X195742767Y-91616344D01*
X195499643Y-91499263D01*
X195499645Y-91499263D01*
X195241773Y-91419720D01*
X195241767Y-91419718D01*
X194974936Y-91379500D01*
X194974929Y-91379500D01*
X194705071Y-91379500D01*
X194705063Y-91379500D01*
X194438232Y-91419718D01*
X194438226Y-91419720D01*
X194180358Y-91499262D01*
X193937230Y-91616346D01*
X193714258Y-91768365D01*
X193516442Y-91951910D01*
X193348185Y-92162898D01*
X193213258Y-92396599D01*
X193213256Y-92396603D01*
X193114666Y-92647804D01*
X193114664Y-92647811D01*
X193054616Y-92910898D01*
X193034451Y-93179995D01*
X193034451Y-93180004D01*
X191945549Y-93180004D01*
X191945549Y-93179995D01*
X191925383Y-92910898D01*
X191910182Y-92844298D01*
X191865334Y-92647805D01*
X191766743Y-92396602D01*
X191631815Y-92162898D01*
X191463561Y-91951915D01*
X191463560Y-91951914D01*
X191463557Y-91951910D01*
X191265741Y-91768365D01*
X191151185Y-91690262D01*
X191042775Y-91616349D01*
X191042769Y-91616346D01*
X191042768Y-91616345D01*
X191042767Y-91616344D01*
X190799643Y-91499263D01*
X190799645Y-91499263D01*
X190541773Y-91419720D01*
X190541767Y-91419718D01*
X190274936Y-91379500D01*
X190274929Y-91379500D01*
X190005071Y-91379500D01*
X190005063Y-91379500D01*
X189738232Y-91419718D01*
X189738226Y-91419720D01*
X189480358Y-91499262D01*
X189237230Y-91616346D01*
X189014258Y-91768365D01*
X188816442Y-91951910D01*
X188648185Y-92162898D01*
X188513258Y-92396599D01*
X188513256Y-92396603D01*
X188414666Y-92647804D01*
X188414664Y-92647811D01*
X188354616Y-92910898D01*
X188334451Y-93179995D01*
X188334451Y-93180004D01*
X187245549Y-93180004D01*
X187245549Y-93179995D01*
X187225383Y-92910898D01*
X187210182Y-92844298D01*
X187165334Y-92647805D01*
X187066743Y-92396602D01*
X186931815Y-92162898D01*
X186763561Y-91951915D01*
X186763560Y-91951914D01*
X186763557Y-91951910D01*
X186565741Y-91768365D01*
X186451185Y-91690262D01*
X186342775Y-91616349D01*
X186342769Y-91616346D01*
X186342768Y-91616345D01*
X186342767Y-91616344D01*
X186099643Y-91499263D01*
X186099645Y-91499263D01*
X185841773Y-91419720D01*
X185841767Y-91419718D01*
X185574936Y-91379500D01*
X185574929Y-91379500D01*
X185305071Y-91379500D01*
X185305063Y-91379500D01*
X185038232Y-91419718D01*
X185038226Y-91419720D01*
X184780358Y-91499262D01*
X184537230Y-91616346D01*
X184314258Y-91768365D01*
X184116442Y-91951910D01*
X183948185Y-92162898D01*
X183813258Y-92396599D01*
X183813256Y-92396603D01*
X183714666Y-92647804D01*
X183714664Y-92647811D01*
X183654616Y-92910898D01*
X183634451Y-93179995D01*
X183634451Y-93180004D01*
X90506621Y-93180004D01*
X90540114Y-93118114D01*
X90540119Y-93118103D01*
X90620833Y-92882992D01*
X90640773Y-92763500D01*
X89595436Y-92763500D01*
X89621243Y-92723344D01*
X89661750Y-92585389D01*
X89661750Y-92441611D01*
X89621243Y-92303656D01*
X89595436Y-92263500D01*
X90640772Y-92263500D01*
X90640773Y-92263499D01*
X90620833Y-92144007D01*
X90540119Y-91908896D01*
X90540114Y-91908885D01*
X90421807Y-91690271D01*
X90421801Y-91690262D01*
X90269123Y-91494102D01*
X90269114Y-91494092D01*
X90086227Y-91325732D01*
X90086228Y-91325732D01*
X89878117Y-91189767D01*
X89650467Y-91089912D01*
X89409488Y-91028887D01*
X89409480Y-91028885D01*
X89223791Y-91013500D01*
X88411750Y-91013500D01*
X88411750Y-92013500D01*
X87911750Y-92013500D01*
X87911750Y-91013500D01*
X87099709Y-91013500D01*
X86914019Y-91028885D01*
X86914011Y-91028887D01*
X86673032Y-91089912D01*
X86445382Y-91189767D01*
X86237271Y-91325732D01*
X86054385Y-91494092D01*
X86054376Y-91494102D01*
X85901698Y-91690262D01*
X85901692Y-91690271D01*
X85783385Y-91908885D01*
X85783380Y-91908896D01*
X85702666Y-92144007D01*
X85682726Y-92263499D01*
X76450500Y-92263499D01*
X76450500Y-90707499D01*
X158192305Y-90707499D01*
X158211415Y-90864896D01*
X158267641Y-91013148D01*
X158357707Y-91143631D01*
X158357708Y-91143632D01*
X158476387Y-91248772D01*
X158476389Y-91248773D01*
X158476393Y-91248776D01*
X158616776Y-91322455D01*
X158616778Y-91322456D01*
X158770724Y-91360400D01*
X158929276Y-91360400D01*
X159083222Y-91322456D01*
X159166475Y-91278760D01*
X159223606Y-91248776D01*
X159223607Y-91248774D01*
X159223613Y-91248772D01*
X159342292Y-91143632D01*
X159432360Y-91013146D01*
X159488584Y-90864897D01*
X159507695Y-90707500D01*
X159488584Y-90550103D01*
X159432360Y-90401854D01*
X159342292Y-90271368D01*
X159223613Y-90166228D01*
X159223611Y-90166227D01*
X159223610Y-90166226D01*
X159223606Y-90166223D01*
X159083223Y-90092544D01*
X158929276Y-90054600D01*
X158770724Y-90054600D01*
X158616776Y-90092544D01*
X158476393Y-90166223D01*
X158476389Y-90166226D01*
X158357707Y-90271368D01*
X158267641Y-90401851D01*
X158211415Y-90550103D01*
X158192305Y-90707499D01*
X76450500Y-90707499D01*
X76450500Y-88875541D01*
X83661750Y-88875541D01*
X83677135Y-89061230D01*
X83677137Y-89061238D01*
X83738162Y-89302217D01*
X83838017Y-89529867D01*
X83973982Y-89737978D01*
X84142342Y-89920864D01*
X84142352Y-89920873D01*
X84338512Y-90073551D01*
X84338521Y-90073557D01*
X84557135Y-90191864D01*
X84557146Y-90191869D01*
X84792257Y-90272583D01*
X84911749Y-90292523D01*
X84911750Y-90292522D01*
X84911750Y-89247186D01*
X84951906Y-89272993D01*
X85089861Y-89313500D01*
X85233639Y-89313500D01*
X85371594Y-89272993D01*
X85411750Y-89247186D01*
X85411750Y-90292523D01*
X85531242Y-90272583D01*
X85766353Y-90191869D01*
X85766364Y-90191864D01*
X85984978Y-90073557D01*
X85984987Y-90073551D01*
X86181147Y-89920873D01*
X86181157Y-89920864D01*
X86349517Y-89737978D01*
X86485482Y-89529867D01*
X86585337Y-89302217D01*
X86646362Y-89061238D01*
X86646364Y-89061230D01*
X86653394Y-88976384D01*
X89561250Y-88976384D01*
X89576067Y-89164650D01*
X89634876Y-89409610D01*
X89731283Y-89642359D01*
X89862910Y-89857153D01*
X89862911Y-89857156D01*
X89862914Y-89857159D01*
X90026526Y-90048724D01*
X90174816Y-90175375D01*
X90218093Y-90212338D01*
X90218096Y-90212339D01*
X90432890Y-90343966D01*
X90665638Y-90440373D01*
X90665639Y-90440373D01*
X90910602Y-90499183D01*
X91161750Y-90518949D01*
X91412898Y-90499183D01*
X91657861Y-90440373D01*
X91890609Y-90343966D01*
X92105409Y-90212336D01*
X92296974Y-90048724D01*
X92460586Y-89857159D01*
X92592216Y-89642359D01*
X92688623Y-89409611D01*
X92747433Y-89164648D01*
X92762250Y-88976382D01*
X92762250Y-86650618D01*
X92747433Y-86462352D01*
X92688623Y-86217389D01*
X92638963Y-86097499D01*
X132537305Y-86097499D01*
X132556415Y-86254896D01*
X132582920Y-86324782D01*
X132612640Y-86403146D01*
X132702708Y-86533632D01*
X132821387Y-86638772D01*
X132821389Y-86638773D01*
X132821393Y-86638776D01*
X132961776Y-86712455D01*
X132961778Y-86712456D01*
X133115724Y-86750400D01*
X133274276Y-86750400D01*
X133428222Y-86712456D01*
X133546043Y-86650618D01*
X133568606Y-86638776D01*
X133568607Y-86638774D01*
X133568613Y-86638772D01*
X133687292Y-86533632D01*
X133726037Y-86477500D01*
X152447305Y-86477500D01*
X152466415Y-86634896D01*
X152506893Y-86741626D01*
X152522640Y-86783146D01*
X152612708Y-86913632D01*
X152731387Y-87018772D01*
X152731389Y-87018773D01*
X152731393Y-87018776D01*
X152871776Y-87092455D01*
X152871778Y-87092456D01*
X153025724Y-87130400D01*
X153184276Y-87130400D01*
X153338222Y-87092456D01*
X153421475Y-87048760D01*
X153478606Y-87018776D01*
X153478607Y-87018774D01*
X153478613Y-87018772D01*
X153597292Y-86913632D01*
X153687360Y-86783146D01*
X153743584Y-86634897D01*
X153762695Y-86477500D01*
X153743584Y-86320103D01*
X153687360Y-86171854D01*
X153597292Y-86041368D01*
X153478613Y-85936228D01*
X153478611Y-85936227D01*
X153478610Y-85936226D01*
X153478606Y-85936223D01*
X153338223Y-85862544D01*
X153184276Y-85824600D01*
X153025724Y-85824600D01*
X152871776Y-85862544D01*
X152731393Y-85936223D01*
X152731389Y-85936226D01*
X152612707Y-86041368D01*
X152522641Y-86171851D01*
X152466415Y-86320103D01*
X152447305Y-86477500D01*
X133726037Y-86477500D01*
X133777360Y-86403146D01*
X133833584Y-86254897D01*
X133852695Y-86097500D01*
X133833584Y-85940103D01*
X133777360Y-85791854D01*
X133687292Y-85661368D01*
X133568613Y-85556228D01*
X133568611Y-85556227D01*
X133568610Y-85556226D01*
X133568606Y-85556223D01*
X133428223Y-85482544D01*
X133274276Y-85444600D01*
X133115724Y-85444600D01*
X132961776Y-85482544D01*
X132821393Y-85556223D01*
X132821389Y-85556226D01*
X132702707Y-85661368D01*
X132612641Y-85791851D01*
X132556415Y-85940103D01*
X132537305Y-86097499D01*
X92638963Y-86097499D01*
X92592216Y-85984641D01*
X92592216Y-85984640D01*
X92460589Y-85769846D01*
X92460588Y-85769843D01*
X92367941Y-85661368D01*
X92296974Y-85578276D01*
X92140460Y-85444600D01*
X92105406Y-85414661D01*
X92105403Y-85414660D01*
X91890609Y-85283033D01*
X91657860Y-85186626D01*
X91412901Y-85127817D01*
X91224537Y-85112992D01*
X91161750Y-85108051D01*
X91161749Y-85108051D01*
X90910598Y-85127817D01*
X90665639Y-85186626D01*
X90432890Y-85283033D01*
X90218096Y-85414660D01*
X90218093Y-85414661D01*
X90026526Y-85578276D01*
X89862911Y-85769843D01*
X89862910Y-85769846D01*
X89731283Y-85984640D01*
X89634876Y-86217389D01*
X89576067Y-86462349D01*
X89561250Y-86650616D01*
X89561250Y-88976384D01*
X86653394Y-88976384D01*
X86661750Y-88875541D01*
X86661750Y-88063500D01*
X85661750Y-88063500D01*
X85661750Y-87563500D01*
X86661749Y-87563500D01*
X86661750Y-86751459D01*
X86646364Y-86565769D01*
X86646362Y-86565761D01*
X86585337Y-86324782D01*
X86485482Y-86097132D01*
X86349517Y-85889021D01*
X86181157Y-85706135D01*
X86181147Y-85706126D01*
X85984987Y-85553448D01*
X85984978Y-85553442D01*
X85766364Y-85435135D01*
X85766353Y-85435130D01*
X85531242Y-85354416D01*
X85411750Y-85334476D01*
X85411750Y-86379813D01*
X85371594Y-86354007D01*
X85233639Y-86313500D01*
X85089861Y-86313500D01*
X84951906Y-86354007D01*
X84911750Y-86379813D01*
X84911750Y-85334476D01*
X84911749Y-85334476D01*
X84792257Y-85354416D01*
X84557146Y-85435130D01*
X84557135Y-85435135D01*
X84338521Y-85553442D01*
X84338512Y-85553448D01*
X84142352Y-85706126D01*
X84142342Y-85706135D01*
X83973982Y-85889021D01*
X83838017Y-86097132D01*
X83738162Y-86324782D01*
X83677137Y-86565761D01*
X83677135Y-86565769D01*
X83661750Y-86751459D01*
X83661750Y-87563500D01*
X84661750Y-87563500D01*
X84661750Y-88063500D01*
X83661750Y-88063500D01*
X83661750Y-88875541D01*
X76450500Y-88875541D01*
X76450500Y-84767500D01*
X152447305Y-84767500D01*
X152466415Y-84924896D01*
X152522641Y-85073148D01*
X152600970Y-85186627D01*
X152612708Y-85203632D01*
X152731387Y-85308772D01*
X152731389Y-85308773D01*
X152731393Y-85308776D01*
X152871776Y-85382455D01*
X152871778Y-85382456D01*
X153025724Y-85420400D01*
X153184276Y-85420400D01*
X153338222Y-85382456D01*
X153429639Y-85334476D01*
X153478606Y-85308776D01*
X153478607Y-85308774D01*
X153478613Y-85308772D01*
X153597292Y-85203632D01*
X153687360Y-85073146D01*
X153743584Y-84924897D01*
X153762695Y-84767500D01*
X153743584Y-84610103D01*
X153687360Y-84461854D01*
X153597292Y-84331368D01*
X153478613Y-84226228D01*
X153478611Y-84226227D01*
X153478610Y-84226226D01*
X153478606Y-84226223D01*
X153338223Y-84152544D01*
X153184276Y-84114600D01*
X153025724Y-84114600D01*
X152871776Y-84152544D01*
X152731393Y-84226223D01*
X152731389Y-84226226D01*
X152612707Y-84331368D01*
X152522641Y-84461851D01*
X152466415Y-84610103D01*
X152447305Y-84767500D01*
X76450500Y-84767500D01*
X76450500Y-83917499D01*
X146327305Y-83917499D01*
X146346415Y-84074896D01*
X146375864Y-84152544D01*
X146402640Y-84223146D01*
X146492708Y-84353632D01*
X146611387Y-84458772D01*
X146611389Y-84458773D01*
X146611393Y-84458776D01*
X146751776Y-84532455D01*
X146751778Y-84532456D01*
X146905724Y-84570400D01*
X147064276Y-84570400D01*
X147218222Y-84532456D01*
X147352747Y-84461851D01*
X147358606Y-84458776D01*
X147358607Y-84458774D01*
X147358613Y-84458772D01*
X147477292Y-84353632D01*
X147567360Y-84223146D01*
X147623584Y-84074897D01*
X147642695Y-83917500D01*
X147623584Y-83760103D01*
X147567360Y-83611854D01*
X147477292Y-83481368D01*
X147358613Y-83376228D01*
X147358611Y-83376227D01*
X147358610Y-83376226D01*
X147358606Y-83376223D01*
X147218223Y-83302544D01*
X147064276Y-83264600D01*
X146905724Y-83264600D01*
X146751776Y-83302544D01*
X146611393Y-83376223D01*
X146611389Y-83376226D01*
X146492707Y-83481368D01*
X146402641Y-83611851D01*
X146346415Y-83760103D01*
X146327305Y-83917499D01*
X76450500Y-83917499D01*
X76450500Y-80513499D01*
X85682726Y-80513499D01*
X85682728Y-80513500D01*
X86728064Y-80513500D01*
X86702257Y-80553656D01*
X86661750Y-80691611D01*
X86661750Y-80835389D01*
X86702257Y-80973344D01*
X86728064Y-81013500D01*
X85682727Y-81013500D01*
X85702666Y-81132992D01*
X85783380Y-81368103D01*
X85783385Y-81368114D01*
X85901692Y-81586728D01*
X85901698Y-81586737D01*
X86054376Y-81782897D01*
X86054385Y-81782907D01*
X86237272Y-81951267D01*
X86237271Y-81951267D01*
X86445382Y-82087232D01*
X86673032Y-82187087D01*
X86914011Y-82248112D01*
X86914019Y-82248114D01*
X87099709Y-82263500D01*
X87911750Y-82263500D01*
X87911750Y-81263500D01*
X88411750Y-81263500D01*
X88411750Y-82263500D01*
X89223791Y-82263500D01*
X89409480Y-82248114D01*
X89409488Y-82248112D01*
X89650467Y-82187087D01*
X89878117Y-82087232D01*
X90086228Y-81951267D01*
X90269114Y-81782907D01*
X90269123Y-81782897D01*
X90421801Y-81586737D01*
X90421807Y-81586728D01*
X90540114Y-81368114D01*
X90540119Y-81368103D01*
X90620833Y-81132992D01*
X90640773Y-81013500D01*
X89595436Y-81013500D01*
X89621243Y-80973344D01*
X89661750Y-80835389D01*
X89661750Y-80691611D01*
X89621243Y-80553656D01*
X89595436Y-80513500D01*
X90640772Y-80513500D01*
X90640773Y-80513499D01*
X90620833Y-80394007D01*
X90540119Y-80158896D01*
X90540114Y-80158885D01*
X90421807Y-79940271D01*
X90421801Y-79940262D01*
X90269123Y-79744102D01*
X90269114Y-79744092D01*
X90086227Y-79575732D01*
X90086228Y-79575732D01*
X89878117Y-79439767D01*
X89650467Y-79339912D01*
X89409488Y-79278887D01*
X89409480Y-79278885D01*
X89223791Y-79263500D01*
X88411750Y-79263500D01*
X88411750Y-80263500D01*
X87911750Y-80263500D01*
X87911750Y-79263500D01*
X87099709Y-79263500D01*
X86914019Y-79278885D01*
X86914011Y-79278887D01*
X86673032Y-79339912D01*
X86445382Y-79439767D01*
X86237271Y-79575732D01*
X86054385Y-79744092D01*
X86054376Y-79744102D01*
X85901698Y-79940262D01*
X85901692Y-79940271D01*
X85783385Y-80158885D01*
X85783380Y-80158896D01*
X85702666Y-80394007D01*
X85682726Y-80513499D01*
X76450500Y-80513499D01*
X76450500Y-77125541D01*
X83661750Y-77125541D01*
X83677135Y-77311230D01*
X83677137Y-77311238D01*
X83738162Y-77552217D01*
X83838017Y-77779867D01*
X83973982Y-77987978D01*
X84142342Y-78170864D01*
X84142352Y-78170873D01*
X84338512Y-78323551D01*
X84338521Y-78323557D01*
X84557135Y-78441864D01*
X84557146Y-78441869D01*
X84792257Y-78522583D01*
X84911749Y-78542523D01*
X84911750Y-78542522D01*
X84911750Y-77497186D01*
X84951906Y-77522993D01*
X85089861Y-77563500D01*
X85233639Y-77563500D01*
X85371594Y-77522993D01*
X85411750Y-77497186D01*
X85411750Y-78542523D01*
X85531242Y-78522583D01*
X85766353Y-78441869D01*
X85766364Y-78441864D01*
X85984978Y-78323557D01*
X85984987Y-78323551D01*
X86181147Y-78170873D01*
X86181157Y-78170864D01*
X86349517Y-77987978D01*
X86485482Y-77779867D01*
X86585337Y-77552217D01*
X86646362Y-77311238D01*
X86646364Y-77311230D01*
X86653394Y-77226384D01*
X89561250Y-77226384D01*
X89576067Y-77414650D01*
X89634876Y-77659610D01*
X89731283Y-77892359D01*
X89862910Y-78107153D01*
X89862911Y-78107156D01*
X89862914Y-78107159D01*
X90026526Y-78298724D01*
X90160524Y-78413169D01*
X90218093Y-78462338D01*
X90218096Y-78462339D01*
X90432890Y-78593966D01*
X90665639Y-78690373D01*
X90910602Y-78749183D01*
X91161750Y-78768949D01*
X91412898Y-78749183D01*
X91657861Y-78690373D01*
X91890609Y-78593966D01*
X92105409Y-78462336D01*
X92296974Y-78298724D01*
X92460586Y-78107159D01*
X92592216Y-77892359D01*
X92658430Y-77732504D01*
X166072453Y-77732504D01*
X166092613Y-78001526D01*
X166092613Y-78001528D01*
X166152642Y-78264533D01*
X166152648Y-78264552D01*
X166251209Y-78515681D01*
X166251208Y-78515681D01*
X166386102Y-78749322D01*
X166439794Y-78816651D01*
X166439795Y-78816651D01*
X167126266Y-78130179D01*
X167169816Y-78212322D01*
X167289509Y-78353235D01*
X167436695Y-78465123D01*
X167478901Y-78484650D01*
X166792348Y-79171202D01*
X166974983Y-79295720D01*
X166974985Y-79295721D01*
X167218039Y-79412769D01*
X167218037Y-79412769D01*
X167475837Y-79492290D01*
X167475843Y-79492292D01*
X167742601Y-79532499D01*
X167742610Y-79532500D01*
X168012390Y-79532500D01*
X168012398Y-79532499D01*
X168279156Y-79492292D01*
X168279162Y-79492290D01*
X168536961Y-79412769D01*
X168780021Y-79295718D01*
X168962650Y-79171202D01*
X168276109Y-78484661D01*
X168394931Y-78413169D01*
X168529158Y-78286023D01*
X168632361Y-78133808D01*
X169315203Y-78816651D01*
X169315204Y-78816650D01*
X169368893Y-78749328D01*
X169368900Y-78749317D01*
X169503790Y-78515681D01*
X169602351Y-78264552D01*
X169602357Y-78264533D01*
X169662386Y-78001528D01*
X169662386Y-78001526D01*
X169682547Y-77732504D01*
X170771951Y-77732504D01*
X170792116Y-78001601D01*
X170852164Y-78264688D01*
X170852166Y-78264695D01*
X170950756Y-78515896D01*
X170950758Y-78515900D01*
X170966128Y-78542522D01*
X171085685Y-78749602D01*
X171139155Y-78816651D01*
X171253942Y-78960589D01*
X171440683Y-79133858D01*
X171451759Y-79144135D01*
X171674726Y-79296151D01*
X171917859Y-79413238D01*
X172175728Y-79492780D01*
X172175729Y-79492780D01*
X172175732Y-79492781D01*
X172442563Y-79532999D01*
X172442568Y-79532999D01*
X172442571Y-79533000D01*
X172442572Y-79533000D01*
X172712428Y-79533000D01*
X172712429Y-79533000D01*
X172712436Y-79532999D01*
X172979267Y-79492781D01*
X172979268Y-79492780D01*
X172979272Y-79492780D01*
X173237141Y-79413238D01*
X173480275Y-79296151D01*
X173703241Y-79144135D01*
X173901061Y-78960585D01*
X174069315Y-78749602D01*
X174204243Y-78515898D01*
X174302834Y-78264695D01*
X174362883Y-78001603D01*
X174372683Y-77870826D01*
X174383049Y-77732504D01*
X175471951Y-77732504D01*
X175492116Y-78001601D01*
X175552164Y-78264688D01*
X175552166Y-78264695D01*
X175650756Y-78515896D01*
X175650758Y-78515900D01*
X175666128Y-78542522D01*
X175785685Y-78749602D01*
X175839155Y-78816651D01*
X175953942Y-78960589D01*
X176140683Y-79133858D01*
X176151759Y-79144135D01*
X176374726Y-79296151D01*
X176617859Y-79413238D01*
X176875728Y-79492780D01*
X176875729Y-79492780D01*
X176875732Y-79492781D01*
X177142563Y-79532999D01*
X177142568Y-79532999D01*
X177142571Y-79533000D01*
X177142572Y-79533000D01*
X177412428Y-79533000D01*
X177412429Y-79533000D01*
X177412436Y-79532999D01*
X177679267Y-79492781D01*
X177679268Y-79492780D01*
X177679272Y-79492780D01*
X177937141Y-79413238D01*
X178180275Y-79296151D01*
X178403241Y-79144135D01*
X178601061Y-78960585D01*
X178769315Y-78749602D01*
X178904243Y-78515898D01*
X179002834Y-78264695D01*
X179062883Y-78001603D01*
X179072683Y-77870826D01*
X179083049Y-77732504D01*
X179083049Y-77732495D01*
X179062889Y-77463473D01*
X179062883Y-77463397D01*
X179002834Y-77200305D01*
X178904243Y-76949102D01*
X178769315Y-76715398D01*
X178601061Y-76504415D01*
X178601060Y-76504414D01*
X178601057Y-76504410D01*
X178403241Y-76320865D01*
X178180275Y-76168849D01*
X178180269Y-76168846D01*
X178180268Y-76168845D01*
X178180267Y-76168844D01*
X177937143Y-76051763D01*
X177937145Y-76051763D01*
X177679273Y-75972220D01*
X177679267Y-75972218D01*
X177412436Y-75932000D01*
X177412429Y-75932000D01*
X177142571Y-75932000D01*
X177142563Y-75932000D01*
X176875732Y-75972218D01*
X176875726Y-75972220D01*
X176617858Y-76051762D01*
X176374730Y-76168846D01*
X176151758Y-76320865D01*
X175953942Y-76504410D01*
X175785685Y-76715398D01*
X175650758Y-76949099D01*
X175650756Y-76949103D01*
X175552166Y-77200304D01*
X175552164Y-77200311D01*
X175492116Y-77463398D01*
X175471951Y-77732495D01*
X175471951Y-77732504D01*
X174383049Y-77732504D01*
X174383049Y-77732495D01*
X174362889Y-77463473D01*
X174362883Y-77463397D01*
X174302834Y-77200305D01*
X174204243Y-76949102D01*
X174069315Y-76715398D01*
X173901061Y-76504415D01*
X173901060Y-76504414D01*
X173901057Y-76504410D01*
X173703241Y-76320865D01*
X173480275Y-76168849D01*
X173480269Y-76168846D01*
X173480268Y-76168845D01*
X173480267Y-76168844D01*
X173237143Y-76051763D01*
X173237145Y-76051763D01*
X172979273Y-75972220D01*
X172979267Y-75972218D01*
X172712436Y-75932000D01*
X172712429Y-75932000D01*
X172442571Y-75932000D01*
X172442563Y-75932000D01*
X172175732Y-75972218D01*
X172175726Y-75972220D01*
X171917858Y-76051762D01*
X171674730Y-76168846D01*
X171451758Y-76320865D01*
X171253942Y-76504410D01*
X171085685Y-76715398D01*
X170950758Y-76949099D01*
X170950756Y-76949103D01*
X170852166Y-77200304D01*
X170852164Y-77200311D01*
X170792116Y-77463398D01*
X170771951Y-77732495D01*
X170771951Y-77732504D01*
X169682547Y-77732504D01*
X169682547Y-77732495D01*
X169662386Y-77463473D01*
X169662386Y-77463471D01*
X169602357Y-77200466D01*
X169602351Y-77200447D01*
X169503790Y-76949318D01*
X169503791Y-76949318D01*
X169368897Y-76715677D01*
X169315204Y-76648347D01*
X168628732Y-77334819D01*
X168585184Y-77252678D01*
X168465491Y-77111765D01*
X168318305Y-76999877D01*
X168276097Y-76980349D01*
X168962650Y-76293796D01*
X168780017Y-76169279D01*
X168780016Y-76169278D01*
X168536960Y-76052230D01*
X168536962Y-76052230D01*
X168279162Y-75972709D01*
X168279156Y-75972707D01*
X168012398Y-75932500D01*
X167742601Y-75932500D01*
X167475843Y-75972707D01*
X167475837Y-75972709D01*
X167218038Y-76052230D01*
X166974985Y-76169278D01*
X166974976Y-76169283D01*
X166792348Y-76293796D01*
X167478890Y-76980338D01*
X167360069Y-77051831D01*
X167225842Y-77178977D01*
X167122638Y-77331191D01*
X166439795Y-76648348D01*
X166386100Y-76715680D01*
X166251209Y-76949318D01*
X166152648Y-77200447D01*
X166152642Y-77200466D01*
X166092613Y-77463471D01*
X166092613Y-77463473D01*
X166072453Y-77732495D01*
X166072453Y-77732504D01*
X92658430Y-77732504D01*
X92688623Y-77659611D01*
X92747433Y-77414648D01*
X92762250Y-77226382D01*
X92762250Y-74900618D01*
X92747433Y-74712352D01*
X92688623Y-74467389D01*
X92687768Y-74465324D01*
X92592216Y-74234640D01*
X92460589Y-74019846D01*
X92460588Y-74019843D01*
X92386743Y-73933382D01*
X92341150Y-73879999D01*
X155032305Y-73879999D01*
X155051415Y-74037396D01*
X155107641Y-74185648D01*
X155176216Y-74284996D01*
X155197708Y-74316132D01*
X155316387Y-74421272D01*
X155316389Y-74421273D01*
X155316393Y-74421276D01*
X155400329Y-74465329D01*
X155456778Y-74494956D01*
X155610724Y-74532900D01*
X155769276Y-74532900D01*
X155923222Y-74494956D01*
X156006475Y-74451260D01*
X156063606Y-74421276D01*
X156063607Y-74421274D01*
X156063613Y-74421272D01*
X156182292Y-74316132D01*
X156203779Y-74285003D01*
X189359604Y-74285003D01*
X189379920Y-74465324D01*
X189379921Y-74465329D01*
X189439859Y-74636622D01*
X189439861Y-74636625D01*
X189536402Y-74790268D01*
X189536407Y-74790274D01*
X189664725Y-74918592D01*
X189664731Y-74918597D01*
X189818374Y-75015138D01*
X189818377Y-75015140D01*
X189818381Y-75015141D01*
X189818382Y-75015142D01*
X189854377Y-75027737D01*
X189989670Y-75075078D01*
X189989675Y-75075079D01*
X190169996Y-75095396D01*
X190170000Y-75095396D01*
X190170004Y-75095396D01*
X190350324Y-75075079D01*
X190350327Y-75075078D01*
X190350330Y-75075078D01*
X190521618Y-75015142D01*
X190521620Y-75015140D01*
X190521622Y-75015140D01*
X190521625Y-75015138D01*
X190675268Y-74918597D01*
X190675269Y-74918596D01*
X190675274Y-74918593D01*
X190803593Y-74790274D01*
X190852557Y-74712349D01*
X190900138Y-74636625D01*
X190900140Y-74636622D01*
X190900140Y-74636620D01*
X190900142Y-74636618D01*
X190960078Y-74465330D01*
X190973396Y-74347132D01*
X190980396Y-74285003D01*
X190980396Y-74284996D01*
X190960079Y-74104675D01*
X190960078Y-74104670D01*
X190930395Y-74019841D01*
X190900142Y-73933382D01*
X190900141Y-73933381D01*
X190900140Y-73933377D01*
X190900138Y-73933374D01*
X190803597Y-73779731D01*
X190803592Y-73779725D01*
X190684429Y-73660562D01*
X190650944Y-73599239D01*
X190655928Y-73529547D01*
X190670060Y-73502441D01*
X190679673Y-73488512D01*
X190702360Y-73455646D01*
X190758584Y-73307397D01*
X190777695Y-73150000D01*
X190771616Y-73099936D01*
X190783076Y-73031013D01*
X190829980Y-72979227D01*
X190837071Y-72975201D01*
X190863613Y-72961272D01*
X190982292Y-72856132D01*
X191072360Y-72725646D01*
X191128584Y-72577397D01*
X191147695Y-72420000D01*
X191128584Y-72262603D01*
X191091568Y-72165000D01*
X195069805Y-72165000D01*
X195088915Y-72322396D01*
X195125932Y-72419999D01*
X195144919Y-72470064D01*
X195145141Y-72470648D01*
X195229321Y-72592603D01*
X195235208Y-72601132D01*
X195353887Y-72706272D01*
X195353889Y-72706273D01*
X195353893Y-72706276D01*
X195437202Y-72750000D01*
X195494278Y-72779956D01*
X195648224Y-72817900D01*
X195806776Y-72817900D01*
X195960722Y-72779956D01*
X196064196Y-72725648D01*
X196101106Y-72706276D01*
X196101107Y-72706274D01*
X196101113Y-72706272D01*
X196219792Y-72601132D01*
X196309860Y-72470646D01*
X196366084Y-72322397D01*
X196385195Y-72165000D01*
X196366084Y-72007603D01*
X196309860Y-71859354D01*
X196219792Y-71728868D01*
X196101113Y-71623728D01*
X196101111Y-71623727D01*
X196101110Y-71623726D01*
X196101106Y-71623723D01*
X195960723Y-71550044D01*
X195806776Y-71512100D01*
X195648224Y-71512100D01*
X195494276Y-71550044D01*
X195353893Y-71623723D01*
X195353889Y-71623726D01*
X195235207Y-71728868D01*
X195145141Y-71859351D01*
X195088915Y-72007603D01*
X195069805Y-72165000D01*
X191091568Y-72165000D01*
X191072360Y-72114354D01*
X191072359Y-72114352D01*
X191072358Y-72114349D01*
X191038598Y-72065441D01*
X191016714Y-71999087D01*
X191034179Y-71931435D01*
X191038598Y-71924559D01*
X191072358Y-71875650D01*
X191078539Y-71859354D01*
X191128584Y-71727397D01*
X191147695Y-71570000D01*
X191128584Y-71412603D01*
X191072360Y-71264354D01*
X190982292Y-71133868D01*
X190863613Y-71028728D01*
X190863611Y-71028727D01*
X190863610Y-71028726D01*
X190863606Y-71028723D01*
X190723223Y-70955044D01*
X190569276Y-70917100D01*
X190410724Y-70917100D01*
X190256776Y-70955044D01*
X190116393Y-71028723D01*
X190116389Y-71028726D01*
X189997707Y-71133868D01*
X189907641Y-71264351D01*
X189851415Y-71412603D01*
X189832305Y-71569999D01*
X189851415Y-71727396D01*
X189879527Y-71801521D01*
X189907640Y-71875646D01*
X189907641Y-71875647D01*
X189941403Y-71924561D01*
X189963285Y-71990916D01*
X189945819Y-72058567D01*
X189941403Y-72065439D01*
X189907641Y-72114352D01*
X189851415Y-72262603D01*
X189832305Y-72419999D01*
X189832305Y-72420001D01*
X189838383Y-72470064D01*
X189826922Y-72538987D01*
X189780017Y-72590773D01*
X189772916Y-72594804D01*
X189746387Y-72608728D01*
X189627707Y-72713868D01*
X189537641Y-72844351D01*
X189481415Y-72992603D01*
X189462305Y-73149999D01*
X189481415Y-73307396D01*
X189537641Y-73455648D01*
X189610777Y-73561603D01*
X189632660Y-73627957D01*
X189615195Y-73695609D01*
X189596409Y-73719724D01*
X189536402Y-73779731D01*
X189439861Y-73933374D01*
X189439859Y-73933377D01*
X189379921Y-74104670D01*
X189379920Y-74104675D01*
X189359604Y-74284996D01*
X189359604Y-74285003D01*
X156203779Y-74285003D01*
X156272360Y-74185646D01*
X156328584Y-74037397D01*
X156347695Y-73880000D01*
X156328584Y-73722603D01*
X156272360Y-73574354D01*
X156182292Y-73443868D01*
X156063613Y-73338728D01*
X156063611Y-73338727D01*
X156063610Y-73338726D01*
X156063606Y-73338723D01*
X155923223Y-73265044D01*
X155769276Y-73227100D01*
X155610724Y-73227100D01*
X155456776Y-73265044D01*
X155316393Y-73338723D01*
X155316389Y-73338726D01*
X155197707Y-73443868D01*
X155107641Y-73574351D01*
X155051415Y-73722603D01*
X155032305Y-73879999D01*
X92341150Y-73879999D01*
X92296974Y-73828276D01*
X92141641Y-73695609D01*
X92105406Y-73664661D01*
X92105403Y-73664660D01*
X91890609Y-73533033D01*
X91657860Y-73436626D01*
X91412901Y-73377817D01*
X91224537Y-73362992D01*
X91161750Y-73358051D01*
X91161749Y-73358051D01*
X90910598Y-73377817D01*
X90665639Y-73436626D01*
X90432890Y-73533033D01*
X90218096Y-73664660D01*
X90218093Y-73664661D01*
X90026526Y-73828276D01*
X89862911Y-74019843D01*
X89862910Y-74019846D01*
X89731283Y-74234640D01*
X89634876Y-74467389D01*
X89576067Y-74712349D01*
X89561250Y-74900616D01*
X89561250Y-77226384D01*
X86653394Y-77226384D01*
X86661750Y-77125541D01*
X86661750Y-76313500D01*
X85661750Y-76313500D01*
X85661750Y-75813500D01*
X86661749Y-75813500D01*
X86661750Y-75001459D01*
X86646364Y-74815769D01*
X86646362Y-74815761D01*
X86585337Y-74574782D01*
X86485482Y-74347132D01*
X86349517Y-74139021D01*
X86181157Y-73956135D01*
X86181147Y-73956126D01*
X85984987Y-73803448D01*
X85984978Y-73803442D01*
X85766364Y-73685135D01*
X85766353Y-73685130D01*
X85531242Y-73604416D01*
X85411750Y-73584476D01*
X85411750Y-74629813D01*
X85371594Y-74604007D01*
X85233639Y-74563500D01*
X85089861Y-74563500D01*
X84951906Y-74604007D01*
X84911750Y-74629813D01*
X84911750Y-73584476D01*
X84911749Y-73584476D01*
X84792257Y-73604416D01*
X84557146Y-73685130D01*
X84557135Y-73685135D01*
X84338521Y-73803442D01*
X84338512Y-73803448D01*
X84142352Y-73956126D01*
X84142342Y-73956135D01*
X83973982Y-74139021D01*
X83838017Y-74347132D01*
X83738162Y-74574782D01*
X83677137Y-74815761D01*
X83677135Y-74815769D01*
X83661750Y-75001459D01*
X83661750Y-75813500D01*
X84661750Y-75813500D01*
X84661750Y-76313500D01*
X83661750Y-76313500D01*
X83661750Y-77125541D01*
X76450500Y-77125541D01*
X76450500Y-72750000D01*
X126812305Y-72750000D01*
X126831415Y-72907396D01*
X126858658Y-72979227D01*
X126887640Y-73055646D01*
X126977708Y-73186132D01*
X127096387Y-73291272D01*
X127096389Y-73291273D01*
X127096393Y-73291276D01*
X127186805Y-73338728D01*
X127236778Y-73364956D01*
X127390724Y-73402900D01*
X127549276Y-73402900D01*
X127703222Y-73364956D01*
X127812892Y-73307396D01*
X127843606Y-73291276D01*
X127843607Y-73291274D01*
X127843613Y-73291272D01*
X127962292Y-73186132D01*
X128052360Y-73055646D01*
X128108584Y-72907397D01*
X128127695Y-72750000D01*
X128108584Y-72592603D01*
X128052360Y-72444354D01*
X127962292Y-72313868D01*
X127843613Y-72208728D01*
X127843611Y-72208727D01*
X127843610Y-72208726D01*
X127843606Y-72208723D01*
X127703223Y-72135044D01*
X127549276Y-72097100D01*
X127390724Y-72097100D01*
X127236776Y-72135044D01*
X127096393Y-72208723D01*
X127096389Y-72208726D01*
X126977707Y-72313868D01*
X126887641Y-72444351D01*
X126831415Y-72592603D01*
X126812305Y-72750000D01*
X76450500Y-72750000D01*
X76450500Y-68763499D01*
X85682726Y-68763499D01*
X85682728Y-68763500D01*
X86728064Y-68763500D01*
X86702257Y-68803656D01*
X86661750Y-68941611D01*
X86661750Y-69085389D01*
X86702257Y-69223344D01*
X86728064Y-69263500D01*
X85682727Y-69263500D01*
X85702666Y-69382992D01*
X85783380Y-69618103D01*
X85783385Y-69618114D01*
X85901692Y-69836728D01*
X85901698Y-69836737D01*
X86054376Y-70032897D01*
X86054385Y-70032907D01*
X86237272Y-70201267D01*
X86237271Y-70201267D01*
X86445382Y-70337232D01*
X86673032Y-70437087D01*
X86914011Y-70498112D01*
X86914019Y-70498114D01*
X87099709Y-70513500D01*
X87911750Y-70513500D01*
X87911750Y-69513500D01*
X88411750Y-69513500D01*
X88411750Y-70513500D01*
X89223791Y-70513500D01*
X89409480Y-70498114D01*
X89409488Y-70498112D01*
X89650467Y-70437087D01*
X89878117Y-70337232D01*
X90086228Y-70201267D01*
X90269114Y-70032907D01*
X90269123Y-70032897D01*
X90421801Y-69836737D01*
X90421807Y-69836728D01*
X90540114Y-69618114D01*
X90540119Y-69618103D01*
X90620833Y-69382992D01*
X90640773Y-69263500D01*
X89595436Y-69263500D01*
X89621243Y-69223344D01*
X89661750Y-69085389D01*
X89661750Y-68941611D01*
X89621243Y-68803656D01*
X89595436Y-68763500D01*
X90640772Y-68763500D01*
X90640773Y-68763499D01*
X90620833Y-68644007D01*
X90540119Y-68408896D01*
X90540114Y-68408885D01*
X90519071Y-68370000D01*
X196902305Y-68370000D01*
X196921415Y-68527396D01*
X196977641Y-68675648D01*
X197038281Y-68763500D01*
X197067708Y-68806132D01*
X197186387Y-68911272D01*
X197186389Y-68911273D01*
X197186393Y-68911276D01*
X197326776Y-68984955D01*
X197326778Y-68984956D01*
X197480724Y-69022900D01*
X197639276Y-69022900D01*
X197793222Y-68984956D01*
X197876475Y-68941260D01*
X197933606Y-68911276D01*
X197933607Y-68911274D01*
X197933613Y-68911272D01*
X198052292Y-68806132D01*
X198142360Y-68675646D01*
X198198584Y-68527397D01*
X198217695Y-68370000D01*
X198198584Y-68212603D01*
X198142360Y-68064354D01*
X198052292Y-67933868D01*
X197933613Y-67828728D01*
X197933611Y-67828727D01*
X197933610Y-67828726D01*
X197933606Y-67828723D01*
X197793223Y-67755044D01*
X197639276Y-67717100D01*
X197480724Y-67717100D01*
X197326776Y-67755044D01*
X197186393Y-67828723D01*
X197186389Y-67828726D01*
X197067707Y-67933868D01*
X196977641Y-68064351D01*
X196921415Y-68212603D01*
X196902305Y-68370000D01*
X90519071Y-68370000D01*
X90421807Y-68190271D01*
X90421801Y-68190262D01*
X90269123Y-67994102D01*
X90269114Y-67994092D01*
X90086227Y-67825732D01*
X90086228Y-67825732D01*
X89878117Y-67689767D01*
X89650467Y-67589912D01*
X89409488Y-67528887D01*
X89409480Y-67528885D01*
X89223791Y-67513500D01*
X88411750Y-67513500D01*
X88411750Y-68513500D01*
X87911750Y-68513500D01*
X87911750Y-67513500D01*
X87099709Y-67513500D01*
X86914019Y-67528885D01*
X86914011Y-67528887D01*
X86673032Y-67589912D01*
X86445382Y-67689767D01*
X86237271Y-67825732D01*
X86054385Y-67994092D01*
X86054376Y-67994102D01*
X85901698Y-68190262D01*
X85901692Y-68190271D01*
X85783385Y-68408885D01*
X85783380Y-68408896D01*
X85702666Y-68644007D01*
X85682726Y-68763499D01*
X76450500Y-68763499D01*
X76450500Y-65375541D01*
X83661750Y-65375541D01*
X83677135Y-65561230D01*
X83677137Y-65561238D01*
X83738162Y-65802217D01*
X83838017Y-66029867D01*
X83973982Y-66237978D01*
X84142342Y-66420864D01*
X84142352Y-66420873D01*
X84338512Y-66573551D01*
X84338521Y-66573557D01*
X84557135Y-66691864D01*
X84557146Y-66691869D01*
X84792257Y-66772583D01*
X84911749Y-66792523D01*
X84911750Y-66792522D01*
X84911750Y-65747186D01*
X84951906Y-65772993D01*
X85089861Y-65813500D01*
X85233639Y-65813500D01*
X85371594Y-65772993D01*
X85411750Y-65747186D01*
X85411750Y-66792523D01*
X85531242Y-66772583D01*
X85766353Y-66691869D01*
X85766364Y-66691864D01*
X85984978Y-66573557D01*
X85984987Y-66573551D01*
X86181147Y-66420873D01*
X86181157Y-66420864D01*
X86349517Y-66237978D01*
X86485482Y-66029867D01*
X86585337Y-65802217D01*
X86646362Y-65561238D01*
X86646364Y-65561230D01*
X86653394Y-65476384D01*
X89561250Y-65476384D01*
X89576067Y-65664650D01*
X89634876Y-65909610D01*
X89731283Y-66142359D01*
X89862910Y-66357153D01*
X89862911Y-66357156D01*
X89862914Y-66357159D01*
X90026526Y-66548724D01*
X90174816Y-66675375D01*
X90218093Y-66712338D01*
X90218096Y-66712339D01*
X90432890Y-66843966D01*
X90665638Y-66940372D01*
X90665639Y-66940373D01*
X90910602Y-66999183D01*
X91161750Y-67018949D01*
X91412898Y-66999183D01*
X91657861Y-66940373D01*
X91890609Y-66843966D01*
X92105409Y-66712336D01*
X92296974Y-66548724D01*
X92460586Y-66357159D01*
X92592216Y-66142359D01*
X92688623Y-65909611D01*
X92747433Y-65664648D01*
X92762250Y-65476382D01*
X92762250Y-63150618D01*
X92747433Y-62962352D01*
X92688623Y-62717389D01*
X92592216Y-62484641D01*
X92592216Y-62484640D01*
X92460589Y-62269846D01*
X92460588Y-62269843D01*
X92406168Y-62206126D01*
X92296974Y-62078276D01*
X92170321Y-61970104D01*
X92105406Y-61914661D01*
X92105403Y-61914660D01*
X91890609Y-61783033D01*
X91657860Y-61686626D01*
X91412901Y-61627817D01*
X91224537Y-61612992D01*
X91161750Y-61608051D01*
X91161749Y-61608051D01*
X90910598Y-61627817D01*
X90665639Y-61686626D01*
X90432890Y-61783033D01*
X90218096Y-61914660D01*
X90218093Y-61914661D01*
X90026526Y-62078276D01*
X89862911Y-62269843D01*
X89862910Y-62269846D01*
X89731283Y-62484640D01*
X89634876Y-62717389D01*
X89576067Y-62962349D01*
X89561250Y-63150616D01*
X89561250Y-65476384D01*
X86653394Y-65476384D01*
X86661750Y-65375541D01*
X86661750Y-64563500D01*
X85661750Y-64563500D01*
X85661750Y-64063500D01*
X86661749Y-64063500D01*
X86661750Y-63251459D01*
X86646364Y-63065769D01*
X86646362Y-63065761D01*
X86585337Y-62824782D01*
X86485482Y-62597132D01*
X86349517Y-62389021D01*
X86181157Y-62206135D01*
X86181147Y-62206126D01*
X85984987Y-62053448D01*
X85984978Y-62053442D01*
X85766364Y-61935135D01*
X85766353Y-61935130D01*
X85531242Y-61854416D01*
X85411750Y-61834476D01*
X85411750Y-62879813D01*
X85371594Y-62854007D01*
X85233639Y-62813500D01*
X85089861Y-62813500D01*
X84951906Y-62854007D01*
X84911750Y-62879813D01*
X84911750Y-61834476D01*
X84911749Y-61834476D01*
X84792257Y-61854416D01*
X84557146Y-61935130D01*
X84557135Y-61935135D01*
X84338521Y-62053442D01*
X84338512Y-62053448D01*
X84142352Y-62206126D01*
X84142342Y-62206135D01*
X83973982Y-62389021D01*
X83838017Y-62597132D01*
X83738162Y-62824782D01*
X83677137Y-63065761D01*
X83677135Y-63065769D01*
X83661750Y-63251459D01*
X83661750Y-64063500D01*
X84661750Y-64063500D01*
X84661750Y-64563500D01*
X83661750Y-64563500D01*
X83661750Y-65375541D01*
X76450500Y-65375541D01*
X76450500Y-58800004D01*
X112414451Y-58800004D01*
X112434616Y-59069101D01*
X112494664Y-59332188D01*
X112494666Y-59332195D01*
X112593257Y-59583398D01*
X112728185Y-59817102D01*
X112864080Y-59987509D01*
X112896442Y-60028089D01*
X113083183Y-60201358D01*
X113094259Y-60211635D01*
X113317226Y-60363651D01*
X113560359Y-60480738D01*
X113818228Y-60560280D01*
X113818229Y-60560280D01*
X113818232Y-60560281D01*
X114085063Y-60600499D01*
X114085068Y-60600499D01*
X114085071Y-60600500D01*
X114085072Y-60600500D01*
X114354928Y-60600500D01*
X114354929Y-60600500D01*
X114354936Y-60600499D01*
X114621767Y-60560281D01*
X114621768Y-60560280D01*
X114621772Y-60560280D01*
X114879641Y-60480738D01*
X115122775Y-60363651D01*
X115345741Y-60211635D01*
X115543561Y-60028085D01*
X115711815Y-59817102D01*
X115846743Y-59583398D01*
X115945334Y-59332195D01*
X116005383Y-59069103D01*
X116025549Y-58800004D01*
X117114451Y-58800004D01*
X117134616Y-59069101D01*
X117194664Y-59332188D01*
X117194666Y-59332195D01*
X117293257Y-59583398D01*
X117428185Y-59817102D01*
X117564080Y-59987509D01*
X117596442Y-60028089D01*
X117783183Y-60201358D01*
X117794259Y-60211635D01*
X118017226Y-60363651D01*
X118260359Y-60480738D01*
X118518228Y-60560280D01*
X118518229Y-60560280D01*
X118518232Y-60560281D01*
X118785063Y-60600499D01*
X118785068Y-60600499D01*
X118785071Y-60600500D01*
X118785072Y-60600500D01*
X119054928Y-60600500D01*
X119054929Y-60600500D01*
X119054936Y-60600499D01*
X119321767Y-60560281D01*
X119321768Y-60560280D01*
X119321772Y-60560280D01*
X119579641Y-60480738D01*
X119822775Y-60363651D01*
X120045741Y-60211635D01*
X120243561Y-60028085D01*
X120411815Y-59817102D01*
X120546743Y-59583398D01*
X120645334Y-59332195D01*
X120705383Y-59069103D01*
X120725549Y-58800004D01*
X121814451Y-58800004D01*
X121834616Y-59069101D01*
X121894664Y-59332188D01*
X121894666Y-59332195D01*
X121993257Y-59583398D01*
X122128185Y-59817102D01*
X122264080Y-59987509D01*
X122296442Y-60028089D01*
X122483183Y-60201358D01*
X122494259Y-60211635D01*
X122717226Y-60363651D01*
X122960359Y-60480738D01*
X123218228Y-60560280D01*
X123218229Y-60560280D01*
X123218232Y-60560281D01*
X123485063Y-60600499D01*
X123485068Y-60600499D01*
X123485071Y-60600500D01*
X123485072Y-60600500D01*
X123754928Y-60600500D01*
X123754929Y-60600500D01*
X123754936Y-60600499D01*
X124021767Y-60560281D01*
X124021768Y-60560280D01*
X124021772Y-60560280D01*
X124279641Y-60480738D01*
X124522775Y-60363651D01*
X124745741Y-60211635D01*
X124943561Y-60028085D01*
X125111815Y-59817102D01*
X125246743Y-59583398D01*
X125345334Y-59332195D01*
X125405383Y-59069103D01*
X125425549Y-58800000D01*
X125405383Y-58530897D01*
X125345334Y-58267805D01*
X125246743Y-58016602D01*
X125111815Y-57782898D01*
X124943561Y-57571915D01*
X124943560Y-57571914D01*
X124943557Y-57571910D01*
X124745741Y-57388365D01*
X124522775Y-57236349D01*
X124522769Y-57236346D01*
X124522768Y-57236345D01*
X124522767Y-57236344D01*
X124279643Y-57119263D01*
X124279645Y-57119263D01*
X124021773Y-57039720D01*
X124021767Y-57039718D01*
X123754936Y-56999500D01*
X123754929Y-56999500D01*
X123485071Y-56999500D01*
X123485063Y-56999500D01*
X123218232Y-57039718D01*
X123218226Y-57039720D01*
X122960358Y-57119262D01*
X122717230Y-57236346D01*
X122494258Y-57388365D01*
X122296442Y-57571910D01*
X122128185Y-57782898D01*
X121993258Y-58016599D01*
X121993256Y-58016603D01*
X121894666Y-58267804D01*
X121894664Y-58267811D01*
X121834616Y-58530898D01*
X121814451Y-58799995D01*
X121814451Y-58800004D01*
X120725549Y-58800004D01*
X120725549Y-58800000D01*
X120705383Y-58530897D01*
X120645334Y-58267805D01*
X120546743Y-58016602D01*
X120411815Y-57782898D01*
X120243561Y-57571915D01*
X120243560Y-57571914D01*
X120243557Y-57571910D01*
X120045741Y-57388365D01*
X119822775Y-57236349D01*
X119822769Y-57236346D01*
X119822768Y-57236345D01*
X119822767Y-57236344D01*
X119579643Y-57119263D01*
X119579645Y-57119263D01*
X119321773Y-57039720D01*
X119321767Y-57039718D01*
X119054936Y-56999500D01*
X119054929Y-56999500D01*
X118785071Y-56999500D01*
X118785063Y-56999500D01*
X118518232Y-57039718D01*
X118518226Y-57039720D01*
X118260358Y-57119262D01*
X118017230Y-57236346D01*
X117794258Y-57388365D01*
X117596442Y-57571910D01*
X117428185Y-57782898D01*
X117293258Y-58016599D01*
X117293256Y-58016603D01*
X117194666Y-58267804D01*
X117194664Y-58267811D01*
X117134616Y-58530898D01*
X117114451Y-58799995D01*
X117114451Y-58800004D01*
X116025549Y-58800004D01*
X116025549Y-58800000D01*
X116005383Y-58530897D01*
X115945334Y-58267805D01*
X115846743Y-58016602D01*
X115711815Y-57782898D01*
X115543561Y-57571915D01*
X115543560Y-57571914D01*
X115543557Y-57571910D01*
X115345741Y-57388365D01*
X115122775Y-57236349D01*
X115122769Y-57236346D01*
X115122768Y-57236345D01*
X115122767Y-57236344D01*
X114879643Y-57119263D01*
X114879645Y-57119263D01*
X114621773Y-57039720D01*
X114621767Y-57039718D01*
X114354936Y-56999500D01*
X114354929Y-56999500D01*
X114085071Y-56999500D01*
X114085063Y-56999500D01*
X113818232Y-57039718D01*
X113818226Y-57039720D01*
X113560358Y-57119262D01*
X113317230Y-57236346D01*
X113094258Y-57388365D01*
X112896442Y-57571910D01*
X112728185Y-57782898D01*
X112593258Y-58016599D01*
X112593256Y-58016603D01*
X112494666Y-58267804D01*
X112494664Y-58267811D01*
X112434616Y-58530898D01*
X112414451Y-58799995D01*
X112414451Y-58800004D01*
X76450500Y-58800004D01*
X76450500Y-51170000D01*
X158562305Y-51170000D01*
X158581415Y-51327396D01*
X158621893Y-51434126D01*
X158637640Y-51475646D01*
X158727708Y-51606132D01*
X158846387Y-51711272D01*
X158846389Y-51711273D01*
X158846393Y-51711276D01*
X158986776Y-51784955D01*
X158986778Y-51784956D01*
X159140724Y-51822900D01*
X159299276Y-51822900D01*
X159453222Y-51784956D01*
X159536475Y-51741260D01*
X159593606Y-51711276D01*
X159593607Y-51711274D01*
X159593613Y-51711272D01*
X159712292Y-51606132D01*
X159802360Y-51475646D01*
X159858584Y-51327397D01*
X159877695Y-51170000D01*
X159858584Y-51012603D01*
X159802360Y-50864354D01*
X159712292Y-50733868D01*
X159593613Y-50628728D01*
X159593611Y-50628727D01*
X159593610Y-50628726D01*
X159593606Y-50628723D01*
X159453223Y-50555044D01*
X159299276Y-50517100D01*
X159140724Y-50517100D01*
X158986776Y-50555044D01*
X158846393Y-50628723D01*
X158846389Y-50628726D01*
X158727707Y-50733868D01*
X158637641Y-50864351D01*
X158581415Y-51012603D01*
X158562305Y-51170000D01*
X76450500Y-51170000D01*
X76450500Y-48890000D01*
X151792305Y-48890000D01*
X151811415Y-49047396D01*
X151816099Y-49059746D01*
X151867640Y-49195646D01*
X151957708Y-49326132D01*
X152076387Y-49431272D01*
X152076389Y-49431273D01*
X152076393Y-49431276D01*
X152216776Y-49504955D01*
X152216778Y-49504956D01*
X152370724Y-49542900D01*
X152529276Y-49542900D01*
X152635960Y-49516605D01*
X211547993Y-49516605D01*
X211567183Y-49748182D01*
X211624229Y-49973454D01*
X211717575Y-50186262D01*
X211844673Y-50380798D01*
X211844675Y-50380801D01*
X212002061Y-50551768D01*
X212002064Y-50551770D01*
X212002067Y-50551773D01*
X212185432Y-50694492D01*
X212185438Y-50694496D01*
X212185441Y-50694498D01*
X212389812Y-50805099D01*
X212609600Y-50880552D01*
X212838810Y-50918800D01*
X213071190Y-50918800D01*
X213300400Y-50880552D01*
X213520188Y-50805099D01*
X213724559Y-50694498D01*
X213907939Y-50551768D01*
X214065325Y-50380801D01*
X214192425Y-50186261D01*
X214285771Y-49973454D01*
X214342816Y-49748186D01*
X214362006Y-49516600D01*
X214361041Y-49504956D01*
X214342816Y-49285017D01*
X214342816Y-49285014D01*
X214285771Y-49059746D01*
X214192425Y-48846939D01*
X214065325Y-48652399D01*
X213907939Y-48481432D01*
X213907934Y-48481428D01*
X213907932Y-48481426D01*
X213724567Y-48338707D01*
X213724561Y-48338703D01*
X213520188Y-48228101D01*
X213520180Y-48228098D01*
X213300402Y-48152648D01*
X213071190Y-48114400D01*
X212838810Y-48114400D01*
X212609597Y-48152648D01*
X212389819Y-48228098D01*
X212389811Y-48228101D01*
X212185438Y-48338703D01*
X212185432Y-48338707D01*
X212002067Y-48481426D01*
X212002064Y-48481429D01*
X211844676Y-48652397D01*
X211844673Y-48652401D01*
X211717575Y-48846937D01*
X211624229Y-49059745D01*
X211567183Y-49285017D01*
X211547993Y-49516594D01*
X211547993Y-49516605D01*
X152635960Y-49516605D01*
X152683222Y-49504956D01*
X152766475Y-49461260D01*
X152823606Y-49431276D01*
X152823607Y-49431274D01*
X152823613Y-49431272D01*
X152942292Y-49326132D01*
X153032360Y-49195646D01*
X153088584Y-49047397D01*
X153107695Y-48890000D01*
X153088584Y-48732603D01*
X153032360Y-48584354D01*
X152942292Y-48453868D01*
X152823613Y-48348728D01*
X152823611Y-48348727D01*
X152823610Y-48348726D01*
X152823606Y-48348723D01*
X152683223Y-48275044D01*
X152529276Y-48237100D01*
X152370724Y-48237100D01*
X152216776Y-48275044D01*
X152076393Y-48348723D01*
X152076389Y-48348726D01*
X151957707Y-48453868D01*
X151867641Y-48584351D01*
X151811415Y-48732603D01*
X151792305Y-48890000D01*
X76450500Y-48890000D01*
X76450500Y-46500000D01*
X165142305Y-46500000D01*
X165161415Y-46657396D01*
X165201893Y-46764126D01*
X165217640Y-46805646D01*
X165307708Y-46936132D01*
X165426387Y-47041272D01*
X165426389Y-47041273D01*
X165426393Y-47041276D01*
X165566776Y-47114955D01*
X165566778Y-47114956D01*
X165720724Y-47152900D01*
X165879276Y-47152900D01*
X166033222Y-47114956D01*
X166116475Y-47071260D01*
X166173606Y-47041276D01*
X166173607Y-47041274D01*
X166173613Y-47041272D01*
X166292292Y-46936132D01*
X166382360Y-46805646D01*
X166438584Y-46657397D01*
X166457695Y-46500000D01*
X166438584Y-46342603D01*
X166382360Y-46194354D01*
X166292292Y-46063868D01*
X166173613Y-45958728D01*
X166173611Y-45958727D01*
X166173610Y-45958726D01*
X166173606Y-45958723D01*
X166033223Y-45885044D01*
X165879276Y-45847100D01*
X165720724Y-45847100D01*
X165566776Y-45885044D01*
X165426393Y-45958723D01*
X165426389Y-45958726D01*
X165307707Y-46063868D01*
X165217641Y-46194351D01*
X165161415Y-46342603D01*
X165142305Y-46500000D01*
X76450500Y-46500000D01*
X76450500Y-43820001D01*
X78484532Y-43820001D01*
X78504364Y-44046686D01*
X78504366Y-44046697D01*
X78563258Y-44266488D01*
X78563261Y-44266497D01*
X78659431Y-44472732D01*
X78659432Y-44472734D01*
X78789954Y-44659141D01*
X78950858Y-44820045D01*
X78950861Y-44820047D01*
X79137266Y-44950568D01*
X79343504Y-45046739D01*
X79563308Y-45105635D01*
X79733216Y-45120500D01*
X79846784Y-45120500D01*
X80016692Y-45105635D01*
X80236496Y-45046739D01*
X80442734Y-44950568D01*
X80629139Y-44820047D01*
X80790047Y-44659139D01*
X80920568Y-44472734D01*
X80937415Y-44436605D01*
X211547993Y-44436605D01*
X211567183Y-44668182D01*
X211624229Y-44893454D01*
X211717575Y-45106262D01*
X211844673Y-45300798D01*
X211844675Y-45300801D01*
X212002061Y-45471768D01*
X212002064Y-45471770D01*
X212002067Y-45471773D01*
X212185432Y-45614492D01*
X212185438Y-45614496D01*
X212185441Y-45614498D01*
X212389812Y-45725099D01*
X212609600Y-45800552D01*
X212838810Y-45838800D01*
X213071190Y-45838800D01*
X213300400Y-45800552D01*
X213520188Y-45725099D01*
X213724559Y-45614498D01*
X213907939Y-45471768D01*
X214065325Y-45300801D01*
X214192425Y-45106261D01*
X214285771Y-44893454D01*
X214342816Y-44668186D01*
X214360669Y-44452734D01*
X214362006Y-44436605D01*
X214362006Y-44436594D01*
X214342816Y-44205017D01*
X214342816Y-44205014D01*
X214285771Y-43979746D01*
X214206927Y-43800001D01*
X221214532Y-43800001D01*
X221234364Y-44026686D01*
X221234366Y-44026697D01*
X221293258Y-44246488D01*
X221293261Y-44246497D01*
X221389431Y-44452732D01*
X221389432Y-44452734D01*
X221519954Y-44639141D01*
X221680858Y-44800045D01*
X221680861Y-44800047D01*
X221867266Y-44930568D01*
X222073504Y-45026739D01*
X222293308Y-45085635D01*
X222463216Y-45100500D01*
X222576784Y-45100500D01*
X222746692Y-45085635D01*
X222966496Y-45026739D01*
X223172734Y-44930568D01*
X223359139Y-44800047D01*
X223520047Y-44639139D01*
X223650568Y-44452734D01*
X223746739Y-44246496D01*
X223805635Y-44026692D01*
X223825468Y-43800000D01*
X223805635Y-43573308D01*
X223746739Y-43353504D01*
X223650568Y-43147266D01*
X223520047Y-42960861D01*
X223520045Y-42960858D01*
X223359141Y-42799954D01*
X223172734Y-42669432D01*
X223172732Y-42669431D01*
X222966497Y-42573261D01*
X222966488Y-42573258D01*
X222746697Y-42514366D01*
X222746687Y-42514364D01*
X222576784Y-42499500D01*
X222463216Y-42499500D01*
X222293312Y-42514364D01*
X222293302Y-42514366D01*
X222073511Y-42573258D01*
X222073502Y-42573261D01*
X221867267Y-42669431D01*
X221867265Y-42669432D01*
X221680858Y-42799954D01*
X221519954Y-42960858D01*
X221389432Y-43147265D01*
X221389431Y-43147267D01*
X221293261Y-43353502D01*
X221293258Y-43353511D01*
X221234366Y-43573302D01*
X221234364Y-43573313D01*
X221214532Y-43799998D01*
X221214532Y-43800001D01*
X214206927Y-43800001D01*
X214192425Y-43766939D01*
X214065325Y-43572399D01*
X213907939Y-43401432D01*
X213907934Y-43401428D01*
X213907932Y-43401426D01*
X213724567Y-43258707D01*
X213724561Y-43258703D01*
X213520188Y-43148101D01*
X213520180Y-43148098D01*
X213300402Y-43072648D01*
X213071190Y-43034400D01*
X212838810Y-43034400D01*
X212609597Y-43072648D01*
X212389819Y-43148098D01*
X212389811Y-43148101D01*
X212185438Y-43258703D01*
X212185432Y-43258707D01*
X212002067Y-43401426D01*
X212002064Y-43401429D01*
X211844676Y-43572397D01*
X211844673Y-43572401D01*
X211717575Y-43766937D01*
X211624229Y-43979745D01*
X211567183Y-44205017D01*
X211547993Y-44436594D01*
X211547993Y-44436605D01*
X80937415Y-44436605D01*
X81016739Y-44266496D01*
X81075635Y-44046692D01*
X81095468Y-43820000D01*
X81075635Y-43593308D01*
X81024222Y-43401432D01*
X81016741Y-43373511D01*
X81016738Y-43373502D01*
X80963206Y-43258703D01*
X80920568Y-43167266D01*
X80859464Y-43079999D01*
X164422305Y-43079999D01*
X164441415Y-43237396D01*
X164481893Y-43344126D01*
X164497640Y-43385646D01*
X164587708Y-43516132D01*
X164706387Y-43621272D01*
X164706389Y-43621273D01*
X164706393Y-43621276D01*
X164846776Y-43694955D01*
X164846778Y-43694956D01*
X165000724Y-43732900D01*
X165159276Y-43732900D01*
X165313222Y-43694956D01*
X165396475Y-43651260D01*
X165453606Y-43621276D01*
X165453607Y-43621274D01*
X165453613Y-43621272D01*
X165572292Y-43516132D01*
X165662360Y-43385646D01*
X165718584Y-43237397D01*
X165737695Y-43080000D01*
X165718584Y-42922603D01*
X165662360Y-42774354D01*
X165572292Y-42643868D01*
X165453613Y-42538728D01*
X165453611Y-42538727D01*
X165453610Y-42538726D01*
X165453606Y-42538723D01*
X165313223Y-42465044D01*
X165159276Y-42427100D01*
X165000724Y-42427100D01*
X164846776Y-42465044D01*
X164706393Y-42538723D01*
X164706389Y-42538726D01*
X164587707Y-42643868D01*
X164497641Y-42774351D01*
X164441415Y-42922603D01*
X164422305Y-43079999D01*
X80859464Y-43079999D01*
X80790047Y-42980861D01*
X80790045Y-42980858D01*
X80629141Y-42819954D01*
X80442734Y-42689432D01*
X80442732Y-42689431D01*
X80236497Y-42593261D01*
X80236488Y-42593258D01*
X80016697Y-42534366D01*
X80016687Y-42534364D01*
X79846784Y-42519500D01*
X79733216Y-42519500D01*
X79563312Y-42534364D01*
X79563302Y-42534366D01*
X79343511Y-42593258D01*
X79343502Y-42593261D01*
X79137267Y-42689431D01*
X79137265Y-42689432D01*
X78950858Y-42819954D01*
X78789954Y-42980858D01*
X78659432Y-43167265D01*
X78659431Y-43167267D01*
X78563261Y-43373502D01*
X78563258Y-43373511D01*
X78504366Y-43593302D01*
X78504364Y-43593313D01*
X78484532Y-43819998D01*
X78484532Y-43820001D01*
X76450500Y-43820001D01*
X76450500Y-40374500D01*
X76470185Y-40307461D01*
X76522989Y-40261706D01*
X76574500Y-40250500D01*
X158275893Y-40250500D01*
X158342932Y-40270185D01*
G37*
%TD.AperFunction*%
%TD*%
M02*
