%TF.GenerationSoftware,KiCad,Pcbnew,7.0.6-0*%
%TF.CreationDate,2024-04-30T06:56:25-03:00*%
%TF.ProjectId,Buoy,42756f79-2e6b-4696-9361-645f70636258,rev?*%
%TF.SameCoordinates,Original*%
%TF.FileFunction,Component,L1,Top*%
%TF.FilePolarity,Positive*%
%FSLAX46Y46*%
G04 Gerber Fmt 4.6, Leading zero omitted, Abs format (unit mm)*
G04 Created by KiCad (PCBNEW 7.0.6-0) date 2024-04-30 06:56:25*
%MOMM*%
%LPD*%
G01*
G04 APERTURE LIST*
%TA.AperFunction,ComponentMain*%
%ADD10C,0.300000*%
%TD*%
%TA.AperFunction,ComponentOutline,Courtyard*%
%ADD11C,0.100000*%
%TD*%
%TA.AperFunction,ComponentPin*%
%ADD12P,0.360000X4X0.000000*%
%TD*%
%TA.AperFunction,ComponentPin*%
%ADD13C,0.000000*%
%TD*%
%TA.AperFunction,ComponentOutline,Footprint*%
%ADD14C,0.100000*%
%TD*%
G04 APERTURE END LIST*
D10*
%TO.C,"R18"*%
%TO.CFtp,"R_1210_3225Metric_Pad1.30x2.65mm_HandSolder"*%
%TO.CVal,"100"*%
%TO.CLbN,"Resistor_SMD"*%
%TO.CMnt,SMD*%
%TO.CRot,180*%
X185179264Y-119590000D03*
D11*
X187629263Y-118010001D02*
X187629263Y-121169999D01*
X182729265Y-121169999D01*
X182729265Y-118010001D01*
X187629263Y-118010001D01*
D12*
%TO.P,"R18","1"*%
X186729264Y-119590000D03*
D13*
%TO.P,"R18","2"*%
X183629264Y-119590000D03*
%TD*%
D10*
%TO.C,"CBJ3"*%
%TO.CFtp,"C_1210_3225Metric_Pad1.33x2.70mm_HandSolder"*%
%TO.CVal,"2.2uF"*%
%TO.CLbN,"Capacitor_SMD"*%
%TO.CMnt,SMD*%
%TO.CRot,0*%
X101266750Y-91483500D03*
D11*
X103746749Y-89883501D02*
X103746749Y-93083499D01*
X98786751Y-93083499D01*
X98786751Y-89883501D01*
X103746749Y-89883501D01*
D12*
%TO.P,"CBJ3","1"*%
X99704250Y-91483500D03*
D13*
%TO.P,"CBJ3","2"*%
X102829250Y-91483500D03*
%TD*%
D10*
%TO.C,"CBJ1"*%
%TO.CFtp,"C_1210_3225Metric_Pad1.33x2.70mm_HandSolder"*%
%TO.CVal,"2.2uF"*%
%TO.CLbN,"Capacitor_SMD"*%
%TO.CMnt,SMD*%
%TO.CRot,0*%
X101266750Y-68623500D03*
D11*
X103746749Y-67023501D02*
X103746749Y-70223499D01*
X98786751Y-70223499D01*
X98786751Y-67023501D01*
X103746749Y-67023501D01*
D12*
%TO.P,"CBJ1","1"*%
X99704250Y-68623500D03*
D13*
%TO.P,"CBJ1","2"*%
X102829250Y-68623500D03*
%TD*%
D10*
%TO.C,"J13"*%
%TO.CFtp,"PinHeader_1x06_P2.54mm_Vertical_SMD_Pin1Right"*%
%TO.CVal,"Conn_01x06_Socket"*%
%TO.CLbN,"Connector_PinHeader_2.54mm"*%
%TO.CMnt,SMD*%
%TO.CRot,0*%
X218845000Y-71570000D03*
D11*
X222294999Y-63420001D02*
X222294999Y-79719999D01*
X215395001Y-79719999D01*
X215395001Y-63420001D01*
X222294999Y-63420001D01*
D12*
%TO.P,"J13","1","Pin_1"*%
X220500000Y-65220000D03*
D13*
%TO.P,"J13","2","Pin_2"*%
X217190000Y-67760000D03*
%TO.P,"J13","3","Pin_3"*%
X220500000Y-70300000D03*
%TO.P,"J13","4","Pin_4"*%
X217190000Y-72840000D03*
%TO.P,"J13","5","Pin_5"*%
X220500000Y-75380000D03*
%TO.P,"J13","6","Pin_6"*%
X217190000Y-77920000D03*
%TD*%
D10*
%TO.C,"CBJ4"*%
%TO.CFtp,"C_1210_3225Metric_Pad1.33x2.70mm_HandSolder"*%
%TO.CVal,"2.2uF"*%
%TO.CLbN,"Capacitor_SMD"*%
%TO.CMnt,SMD*%
%TO.CRot,0*%
X101266750Y-104183500D03*
D11*
X103746749Y-102583501D02*
X103746749Y-105783499D01*
X98786751Y-105783499D01*
X98786751Y-102583501D01*
X103746749Y-102583501D01*
D12*
%TO.P,"CBJ4","1"*%
X99704250Y-104183500D03*
D13*
%TO.P,"CBJ4","2"*%
X102829250Y-104183500D03*
%TD*%
D10*
%TO.C,"D2"*%
%TO.CFtp,"LEDC1608X35N"*%
%TO.CVal,"LED"*%
%TO.CLbN,"LED"*%
%TO.CMnt,SMD*%
%TO.CRot,-90*%
X139205000Y-75957500D03*
D11*
X139919999Y-74492501D02*
X139919999Y-77422499D01*
X138490001Y-77422499D01*
X138490001Y-74492501D01*
X139919999Y-74492501D01*
D12*
%TO.P,"D2","1","K"*%
X139205000Y-76767500D03*
D13*
%TO.P,"D2","2","A"*%
X139205000Y-75147500D03*
%TD*%
D10*
%TO.C,"R7"*%
%TO.CFtp,"R_0603_1608Metric_Pad0.98x0.95mm_HandSolder"*%
%TO.CVal,"30k"*%
%TO.CLbN,"Resistor_SMD"*%
%TO.CMnt,SMD*%
%TO.CRot,180*%
X120509250Y-86263500D03*
D11*
X122159249Y-85533501D02*
X122159249Y-86993499D01*
X118859251Y-86993499D01*
X118859251Y-85533501D01*
X122159249Y-85533501D01*
D12*
%TO.P,"R7","1"*%
X121421750Y-86263500D03*
D13*
%TO.P,"R7","2"*%
X119596750Y-86263500D03*
%TD*%
D10*
%TO.C,"R30"*%
%TO.CFtp,"R_1206_3216Metric_Pad1.30x1.75mm_HandSolder"*%
%TO.CVal,"1M"*%
%TO.CLbN,"Resistor_SMD"*%
%TO.CMnt,SMD*%
%TO.CRot,90*%
X173230000Y-70530000D03*
D11*
X174349999Y-68080001D02*
X174349999Y-72979999D01*
X172110001Y-72979999D01*
X172110001Y-68080001D01*
X174349999Y-68080001D01*
D12*
%TO.P,"R30","1"*%
X173230000Y-72080000D03*
D13*
%TO.P,"R30","2"*%
X173230000Y-68980000D03*
%TD*%
D10*
%TO.C,"C9"*%
%TO.CFtp,"C_0603_1608Metric_Pad1.08x0.95mm_HandSolder"*%
%TO.CVal,"8.2nF"*%
%TO.CLbN,"Capacitor_SMD"*%
%TO.CMnt,SMD*%
%TO.CRot,-90*%
X195420000Y-119720000D03*
D11*
X196149999Y-118070001D02*
X196149999Y-121369999D01*
X194690001Y-121369999D01*
X194690001Y-118070001D01*
X196149999Y-118070001D01*
D12*
%TO.P,"C9","1"*%
X195420000Y-118857500D03*
D13*
%TO.P,"C9","2"*%
X195420000Y-120582500D03*
%TD*%
D10*
%TO.C,"C20"*%
%TO.CFtp,"C_1206_3216Metric_Pad1.33x1.80mm_HandSolder"*%
%TO.CVal,"10uF"*%
%TO.CLbN,"Capacitor_SMD"*%
%TO.CMnt,SMD*%
%TO.CRot,-90*%
X129218000Y-116970000D03*
D11*
X130367999Y-114490001D02*
X130367999Y-119449999D01*
X128068001Y-119449999D01*
X128068001Y-114490001D01*
X130367999Y-114490001D01*
D12*
%TO.P,"C20","1"*%
X129218000Y-115407500D03*
D13*
%TO.P,"C20","2"*%
X129218000Y-118532500D03*
%TD*%
D10*
%TO.C,"R4"*%
%TO.CFtp,"R_0805_2012Metric_Pad1.20x1.40mm_HandSolder"*%
%TO.CVal,"10k"*%
%TO.CLbN,"Resistor_SMD"*%
%TO.CMnt,SMD*%
%TO.CRot,-90*%
X139275000Y-80107500D03*
D11*
X140224999Y-78257501D02*
X140224999Y-81957499D01*
X138325001Y-81957499D01*
X138325001Y-78257501D01*
X140224999Y-78257501D01*
D12*
%TO.P,"R4","1"*%
X139275000Y-79107500D03*
D13*
%TO.P,"R4","2"*%
X139275000Y-81107500D03*
%TD*%
D10*
%TO.C,"SW4"*%
%TO.CFtp,"SW-SPDT-SW"*%
%TO.CVal,"SW_SPDT"*%
%TO.CLbN,"Slide_Switch"*%
%TO.CMnt,TH*%
%TO.CRot,0*%
X190140000Y-93180000D03*
D11*
X196839999Y-89580001D02*
X196839999Y-96779999D01*
X183440001Y-96779999D01*
X183440001Y-89580001D01*
X196839999Y-89580001D01*
D12*
%TO.P,"SW4","1","A"*%
X185440000Y-93180000D03*
D13*
%TO.P,"SW4","2","B"*%
X190140000Y-93180000D03*
%TO.P,"SW4","3","C"*%
X194840000Y-93180000D03*
%TD*%
D10*
%TO.C,"C32"*%
%TO.CFtp,"C_0805_2012Metric_Pad1.18x1.45mm_HandSolder"*%
%TO.CVal,"100nF"*%
%TO.CLbN,"Capacitor_SMD"*%
%TO.CMnt,SMD*%
%TO.CRot,-90*%
X198607500Y-64195000D03*
D11*
X199587499Y-62315001D02*
X199587499Y-66074999D01*
X197627501Y-66074999D01*
X197627501Y-62315001D01*
X199587499Y-62315001D01*
D12*
%TO.P,"C32","1"*%
X198607500Y-63157500D03*
D13*
%TO.P,"C32","2"*%
X198607500Y-65232500D03*
%TD*%
D10*
%TO.C,"C11"*%
%TO.CFtp,"C_1210_3225Metric_Pad1.33x2.70mm_HandSolder"*%
%TO.CVal,"1uF"*%
%TO.CLbN,"Capacitor_SMD"*%
%TO.CMnt,SMD*%
%TO.CRot,-90*%
X180579264Y-121017500D03*
D11*
X182179263Y-118537501D02*
X182179263Y-123497499D01*
X178979265Y-123497499D01*
X178979265Y-118537501D01*
X182179263Y-118537501D01*
D12*
%TO.P,"C11","1"*%
X180579264Y-119455000D03*
D13*
%TO.P,"C11","2"*%
X180579264Y-122580000D03*
%TD*%
D10*
%TO.C,"C12"*%
%TO.CFtp,"C_0603_1608Metric_Pad1.08x0.95mm_HandSolder"*%
%TO.CVal,"100nF"*%
%TO.CLbN,"Capacitor_SMD"*%
%TO.CMnt,SMD*%
%TO.CRot,-90*%
X161200000Y-116140000D03*
D11*
X161929999Y-114490001D02*
X161929999Y-117789999D01*
X160470001Y-117789999D01*
X160470001Y-114490001D01*
X161929999Y-114490001D01*
D12*
%TO.P,"C12","1"*%
X161200000Y-115277500D03*
D13*
%TO.P,"C12","2"*%
X161200000Y-117002500D03*
%TD*%
D10*
%TO.C,"U3"*%
%TO.CFtp,"SOT95P280X145-5N"*%
%TO.CVal,"INA138"*%
%TO.CLbN,"INA138"*%
%TO.CMnt,SMD*%
%TO.CRot,180*%
X204667500Y-117702500D03*
D11*
X206777499Y-116002501D02*
X206777499Y-119402499D01*
X202557501Y-119402499D01*
X202557501Y-116002501D01*
X206777499Y-116002501D01*
D12*
%TO.P,"U3","1"*%
X205922500Y-118652500D03*
D13*
%TO.P,"U3","2","GND"*%
X205922500Y-117702500D03*
%TO.P,"U3","3","+"*%
X205922500Y-116752500D03*
%TO.P,"U3","4","-"*%
X203412500Y-116752500D03*
%TO.P,"U3","5","V+"*%
X203412500Y-118652500D03*
%TD*%
D10*
%TO.C,"R9"*%
%TO.CFtp,"R_0402_1005Metric_Pad0.72x0.64mm_HandSolder"*%
%TO.CVal,"100k"*%
%TO.CLbN,"My_Passive"*%
%TO.CMnt,SMD*%
%TO.CRot,-90*%
X124667500Y-76130000D03*
D11*
X125137499Y-75030001D02*
X125137499Y-77229999D01*
X124197501Y-77229999D01*
X124197501Y-75030001D01*
X125137499Y-75030001D01*
D12*
%TO.P,"R9","1"*%
X124667500Y-75532500D03*
D13*
%TO.P,"R9","2"*%
X124667500Y-76727500D03*
%TD*%
D10*
%TO.C,"C4"*%
%TO.CFtp,"C_0805_2012Metric_Pad1.18x1.45mm_HandSolder"*%
%TO.CVal,"10nF"*%
%TO.CLbN,"Capacitor_SMD"*%
%TO.CMnt,SMD*%
%TO.CRot,-90*%
X127460000Y-75250000D03*
D11*
X128439999Y-73370001D02*
X128439999Y-77129999D01*
X126480001Y-77129999D01*
X126480001Y-73370001D01*
X128439999Y-73370001D01*
D12*
%TO.P,"C4","1"*%
X127460000Y-74212500D03*
D13*
%TO.P,"C4","2"*%
X127460000Y-76287500D03*
%TD*%
D10*
%TO.C,"SW2"*%
%TO.CFtp,"SW-SPDT-SW"*%
%TO.CVal,"SW_SPDT"*%
%TO.CLbN,"Slide_Switch"*%
%TO.CMnt,TH*%
%TO.CRot,180*%
X172577500Y-77732500D03*
D11*
X179277499Y-74132501D02*
X179277499Y-81332499D01*
X165877501Y-81332499D01*
X165877501Y-74132501D01*
X179277499Y-74132501D01*
D12*
%TO.P,"SW2","1","A"*%
X177277500Y-77732500D03*
D13*
%TO.P,"SW2","2","B"*%
X172577500Y-77732500D03*
%TO.P,"SW2","3","C"*%
X167877500Y-77732500D03*
%TD*%
D10*
%TO.C,"D4"*%
%TO.CFtp,"DIO_PDS1040L-13"*%
%TO.CVal,"PDS1040L-13"*%
%TO.CLbN,"PDS1040L-13_solar"*%
%TO.CMnt,SMD*%
%TO.CRot,0*%
X109664250Y-78663500D03*
D11*
X113474249Y-76428501D02*
X113474249Y-80898499D01*
X105854251Y-80898499D01*
X105854251Y-76428501D01*
X113474249Y-76428501D01*
D12*
%TO.P,"D4","1"*%
X106808250Y-77743500D03*
D13*
%TO.P,"D4","2"*%
X106808250Y-79583500D03*
%TO.P,"D4","3"*%
X110790250Y-78663500D03*
%TD*%
D10*
%TO.C,"C24"*%
%TO.CFtp,"C_0805_2012Metric_Pad1.18x1.45mm_HandSolder"*%
%TO.CVal,"1uF"*%
%TO.CLbN,"Capacitor_SMD"*%
%TO.CMnt,SMD*%
%TO.CRot,90*%
X203790000Y-70260000D03*
D11*
X204769999Y-68380001D02*
X204769999Y-72139999D01*
X202810001Y-72139999D01*
X202810001Y-68380001D01*
X204769999Y-68380001D01*
D12*
%TO.P,"C24","1"*%
X203790000Y-71297500D03*
D13*
%TO.P,"C24","2"*%
X203790000Y-69222500D03*
%TD*%
D10*
%TO.C,"J9"*%
%TO.CFtp,"PinHeader_1x03_P2.54mm_Vertical_SMD_Pin1Right"*%
%TO.CVal,"Conn_01x03_Pin"*%
%TO.CLbN,"Connector_PinHeader_2.54mm"*%
%TO.CMnt,SMD*%
%TO.CRot,0*%
X220865000Y-107200000D03*
D11*
X224314999Y-102850001D02*
X224314999Y-111549999D01*
X217415001Y-111549999D01*
X217415001Y-102850001D01*
X224314999Y-102850001D01*
D12*
%TO.P,"J9","1","Pin_1"*%
X222520000Y-104660000D03*
D13*
%TO.P,"J9","2","Pin_2"*%
X219210000Y-107200000D03*
%TO.P,"J9","3","Pin_3"*%
X222520000Y-109740000D03*
%TD*%
D10*
%TO.C,"R11"*%
%TO.CFtp,"R_1206_3216Metric_Pad1.30x1.75mm_HandSolder"*%
%TO.CVal,"10"*%
%TO.CLbN,"Resistor_SMD"*%
%TO.CMnt,SMD*%
%TO.CRot,-90*%
X151480000Y-72240000D03*
D11*
X152599999Y-69790001D02*
X152599999Y-74689999D01*
X150360001Y-74689999D01*
X150360001Y-69790001D01*
X152599999Y-69790001D01*
D12*
%TO.P,"R11","1"*%
X151480000Y-70690000D03*
D13*
%TO.P,"R11","2"*%
X151480000Y-73790000D03*
%TD*%
D10*
%TO.C,"RBJ5"*%
%TO.CFtp,"R_2512_6332Metric_Pad1.40x3.35mm_HandSolder"*%
%TO.CVal,"2"*%
%TO.CLbN,"Resistor_SMD"*%
%TO.CMnt,SMD*%
%TO.CRot,0*%
X99817750Y-110583500D03*
D11*
X103817749Y-108663501D02*
X103817749Y-112503499D01*
X95817751Y-112503499D01*
X95817751Y-108663501D01*
X103817749Y-108663501D01*
D12*
%TO.P,"RBJ5","1"*%
X96767750Y-110583500D03*
D13*
%TO.P,"RBJ5","2"*%
X102867750Y-110583500D03*
%TD*%
D10*
%TO.C,"C21"*%
%TO.CFtp,"C_0805_2012Metric_Pad1.18x1.45mm_HandSolder"*%
%TO.CVal,"1uF"*%
%TO.CLbN,"Capacitor_SMD"*%
%TO.CMnt,SMD*%
%TO.CRot,90*%
X203720000Y-82730000D03*
D11*
X204699999Y-80850001D02*
X204699999Y-84609999D01*
X202740001Y-84609999D01*
X202740001Y-80850001D01*
X204699999Y-80850001D01*
D12*
%TO.P,"C21","1"*%
X203720000Y-83767500D03*
D13*
%TO.P,"C21","2"*%
X203720000Y-81692500D03*
%TD*%
D10*
%TO.C,"R23"*%
%TO.CFtp,"R_1210_3225Metric_Pad1.30x2.65mm_HandSolder"*%
%TO.CVal,"100"*%
%TO.CLbN,"Resistor_SMD"*%
%TO.CMnt,SMD*%
%TO.CRot,0*%
X209840000Y-82450000D03*
D11*
X212289999Y-80870001D02*
X212289999Y-84029999D01*
X207390001Y-84029999D01*
X207390001Y-80870001D01*
X212289999Y-80870001D01*
D12*
%TO.P,"R23","1"*%
X208290000Y-82450000D03*
D13*
%TO.P,"R23","2"*%
X211390000Y-82450000D03*
%TD*%
D10*
%TO.C,"Q2"*%
%TO.CFtp,"SOT95P240X110-3N"*%
%TO.CVal,"BS250"*%
%TO.CLbN,"B2250MOSFET"*%
%TO.CMnt,SMD*%
%TO.CRot,180*%
X187327500Y-71425000D03*
D14*
X189003900Y-72669600D02*
X189003900Y-70180400D01*
X185651100Y-70180400D01*
X185651100Y-72669600D01*
X189003900Y-72669600D01*
D12*
%TO.P,"Q2","1","D"*%
X188343500Y-72390200D03*
D13*
%TO.P,"Q2","2","G"*%
X188343500Y-70459800D03*
%TO.P,"Q2","3","S"*%
X186311500Y-71425000D03*
%TD*%
D10*
%TO.C,"Q1"*%
%TO.CFtp,"TRANS_SI7288DP-T1-GE3"*%
%TO.CVal,"SI7288DP-T1-GE3"*%
%TO.CLbN,"SI7288DP"*%
%TO.CMnt,SMD*%
%TO.CRot,90*%
X175080000Y-63610000D03*
D11*
X177779999Y-59955001D02*
X177779999Y-67164999D01*
X172380001Y-67164999D01*
X172380001Y-59955001D01*
X177779999Y-59955001D01*
D12*
%TO.P,"Q1","1"*%
X173175000Y-66280000D03*
D13*
%TO.P,"Q1","2"*%
X174445000Y-66280000D03*
%TO.P,"Q1","3"*%
X175715000Y-66280000D03*
%TO.P,"Q1","4"*%
X176985000Y-66280000D03*
%TO.P,"Q1","5_6_10"*%
X176180000Y-63110000D03*
%TO.P,"Q1","7_8_9"*%
X173980000Y-63110000D03*
%TD*%
D10*
%TO.C,"R28"*%
%TO.CFtp,"R_1210_3225Metric_Pad1.30x2.65mm_HandSolder"*%
%TO.CVal,"100"*%
%TO.CLbN,"Resistor_SMD"*%
%TO.CMnt,SMD*%
%TO.CRot,0*%
X209390000Y-59390000D03*
D11*
X211839999Y-57810001D02*
X211839999Y-60969999D01*
X206940001Y-60969999D01*
X206940001Y-57810001D01*
X211839999Y-57810001D01*
D12*
%TO.P,"R28","1"*%
X207840000Y-59390000D03*
D13*
%TO.P,"R28","2"*%
X210940000Y-59390000D03*
%TD*%
D10*
%TO.C,"D9"*%
%TO.CFtp,"DIO_PDS1040L-13"*%
%TO.CVal,"PDS1040L-13"*%
%TO.CLbN,"PDS1040L-13_solar"*%
%TO.CMnt,SMD*%
%TO.CRot,0*%
X109864250Y-125423500D03*
D11*
X113674249Y-123188501D02*
X113674249Y-127658499D01*
X106054251Y-127658499D01*
X106054251Y-123188501D01*
X113674249Y-123188501D01*
D12*
%TO.P,"D9","1"*%
X107008250Y-124503500D03*
D13*
%TO.P,"D9","2"*%
X107008250Y-126343500D03*
%TO.P,"D9","3"*%
X110990250Y-125423500D03*
%TD*%
D10*
%TO.C,"R32"*%
%TO.CFtp,"R_1206_3216Metric_Pad1.30x1.75mm_HandSolder"*%
%TO.CVal,"1M"*%
%TO.CLbN,"Resistor_SMD"*%
%TO.CMnt,SMD*%
%TO.CRot,90*%
X184097500Y-70085000D03*
D11*
X185217499Y-67635001D02*
X185217499Y-72534999D01*
X182977501Y-72534999D01*
X182977501Y-67635001D01*
X185217499Y-67635001D01*
D12*
%TO.P,"R32","1"*%
X184097500Y-71635000D03*
D13*
%TO.P,"R32","2"*%
X184097500Y-68535000D03*
%TD*%
D10*
%TO.C,"U6"*%
%TO.CFtp,"SOT95P285X140-5N"*%
%TO.CVal,"AP2112K-3.3"*%
%TO.CLbN,"3.3_LDO"*%
%TO.CMnt,SMD*%
%TO.CRot,180*%
X132863000Y-114340000D03*
D11*
X133962999Y-112540001D02*
X133962999Y-112840000D01*
X133963000Y-112840001D01*
X134972999Y-112840001D01*
X134972999Y-115839999D01*
X133963000Y-115839999D01*
X133962999Y-115840000D01*
X133962999Y-116139999D01*
X131763001Y-116139999D01*
X131763001Y-115840000D01*
X131763000Y-115839999D01*
X130753001Y-115839999D01*
X130753001Y-112840001D01*
X131763000Y-112840001D01*
X131763001Y-112840000D01*
X131763001Y-112540001D01*
X133962999Y-112540001D01*
D12*
%TO.P,"U6","1","VIN"*%
X134048000Y-115290000D03*
D13*
%TO.P,"U6","2","GND"*%
X134048000Y-114340000D03*
%TO.P,"U6","3","EN"*%
X134048000Y-113390000D03*
%TO.P,"U6","4","NC"*%
X131678000Y-113390000D03*
%TO.P,"U6","5","VOUT"*%
X131678000Y-115290000D03*
%TD*%
D10*
%TO.C,"CBJ2"*%
%TO.CFtp,"C_1210_3225Metric_Pad1.33x2.70mm_HandSolder"*%
%TO.CVal,"2.2uF"*%
%TO.CLbN,"Capacitor_SMD"*%
%TO.CMnt,SMD*%
%TO.CRot,0*%
X101266750Y-81323500D03*
D11*
X103746749Y-79723501D02*
X103746749Y-82923499D01*
X98786751Y-82923499D01*
X98786751Y-79723501D01*
X103746749Y-79723501D01*
D12*
%TO.P,"CBJ2","1"*%
X99704250Y-81323500D03*
D13*
%TO.P,"CBJ2","2"*%
X102829250Y-81323500D03*
%TD*%
D10*
%TO.C,"U1"*%
%TO.CFtp,"SOT-23-5"*%
%TO.CVal,"OPA340NA"*%
%TO.CLbN,"Package_TO_SOT_SMD"*%
%TO.CMnt,SMD*%
%TO.CRot,180*%
X190911764Y-119730000D03*
D11*
X192961763Y-118030001D02*
X192961763Y-121429999D01*
X188861765Y-121429999D01*
X188861765Y-118030001D01*
X192961763Y-118030001D01*
D12*
%TO.P,"U1","1"*%
X192049264Y-120680000D03*
D13*
%TO.P,"U1","2","V-"*%
X192049264Y-119730000D03*
%TO.P,"U1","3","+"*%
X192049264Y-118780000D03*
%TO.P,"U1","4","-"*%
X189774264Y-118780000D03*
%TO.P,"U1","5","V+"*%
X189774264Y-120680000D03*
%TD*%
D10*
%TO.C,"D3"*%
%TO.CFtp,"LEDC1608X35N"*%
%TO.CVal,"LED"*%
%TO.CLbN,"LED"*%
%TO.CMnt,SMD*%
%TO.CRot,-90*%
X134575000Y-75957500D03*
D11*
X135289999Y-74492501D02*
X135289999Y-77422499D01*
X133860001Y-77422499D01*
X133860001Y-74492501D01*
X135289999Y-74492501D01*
D12*
%TO.P,"D3","1","K"*%
X134575000Y-76767500D03*
D13*
%TO.P,"D3","2","A"*%
X134575000Y-75147500D03*
%TD*%
D10*
%TO.C,"C36"*%
%TO.CFtp,"C_0805_2012Metric_Pad1.18x1.45mm_HandSolder"*%
%TO.CVal,"22uF"*%
%TO.CLbN,"Capacitor_SMD"*%
%TO.CMnt,SMD*%
%TO.CRot,-90*%
X152590000Y-116920000D03*
D11*
X153569999Y-115040001D02*
X153569999Y-118799999D01*
X151610001Y-118799999D01*
X151610001Y-115040001D01*
X153569999Y-115040001D01*
D12*
%TO.P,"C36","1"*%
X152590000Y-115882500D03*
D13*
%TO.P,"C36","2"*%
X152590000Y-117957500D03*
%TD*%
D10*
%TO.C,"R10"*%
%TO.CFtp,"R_0402_1005Metric_Pad0.72x0.64mm_HandSolder"*%
%TO.CVal,"100k"*%
%TO.CLbN,"My_Passive"*%
%TO.CMnt,SMD*%
%TO.CRot,0*%
X207457500Y-103148750D03*
D11*
X208557499Y-102678751D02*
X208557499Y-103618749D01*
X206357501Y-103618749D01*
X206357501Y-102678751D01*
X208557499Y-102678751D01*
D12*
%TO.P,"R10","1"*%
X206860000Y-103148750D03*
D13*
%TO.P,"R10","2"*%
X208055000Y-103148750D03*
%TD*%
D10*
%TO.C,"C26"*%
%TO.CFtp,"C_0805_2012Metric_Pad1.18x1.45mm_HandSolder"*%
%TO.CVal,"1uF"*%
%TO.CLbN,"Capacitor_SMD"*%
%TO.CMnt,SMD*%
%TO.CRot,90*%
X203830000Y-62060000D03*
D11*
X204809999Y-60180001D02*
X204809999Y-63939999D01*
X202850001Y-63939999D01*
X202850001Y-60180001D01*
X204809999Y-60180001D01*
D12*
%TO.P,"C26","1"*%
X203830000Y-63097500D03*
D13*
%TO.P,"C26","2"*%
X203830000Y-61022500D03*
%TD*%
D10*
%TO.C,"D7"*%
%TO.CFtp,"DIO_PDS1040L-13"*%
%TO.CVal,"PDS1040L-13"*%
%TO.CLbN,"PDS1040L-13_solar"*%
%TO.CMnt,SMD*%
%TO.CRot,0*%
X109864250Y-101643500D03*
D11*
X113674249Y-99408501D02*
X113674249Y-103878499D01*
X106054251Y-103878499D01*
X106054251Y-99408501D01*
X113674249Y-99408501D01*
D12*
%TO.P,"D7","1"*%
X107008250Y-100723500D03*
D13*
%TO.P,"D7","2"*%
X107008250Y-102563500D03*
%TO.P,"D7","3"*%
X110990250Y-101643500D03*
%TD*%
D10*
%TO.C,"R20"*%
%TO.CFtp,"R_1206_3216Metric_Pad1.30x1.75mm_HandSolder"*%
%TO.CVal,"1.7k"*%
%TO.CLbN,"Resistor_SMD"*%
%TO.CMnt,SMD*%
%TO.CRot,0*%
X156080000Y-50960000D03*
D11*
X158529999Y-49840001D02*
X158529999Y-52079999D01*
X153630001Y-52079999D01*
X153630001Y-49840001D01*
X158529999Y-49840001D01*
D12*
%TO.P,"R20","1"*%
X154530000Y-50960000D03*
D13*
%TO.P,"R20","2"*%
X157630000Y-50960000D03*
%TD*%
D10*
%TO.C,"J7"*%
%TO.CFtp,"CONN_1729128_PXC"*%
%TO.CVal,"Screw_Terminal_01x02"*%
%TO.CLbN,"Screw_Terminal"*%
%TO.CMnt,TH*%
%TO.CRot,0*%
X124003400Y-129185000D03*
D11*
X131877399Y-124831002D02*
X131877399Y-133488999D01*
X121209401Y-133488999D01*
X121209401Y-124831002D01*
X131877399Y-124831002D01*
D12*
%TO.P,"J7","1","Pin_1"*%
X124003400Y-129185000D03*
D13*
%TO.P,"J7","2","Pin_2"*%
X129083400Y-129185000D03*
%TD*%
D10*
%TO.C,"R8"*%
%TO.CFtp,"R_0603_1608Metric_Pad0.98x0.95mm_HandSolder"*%
%TO.CVal,"200k"*%
%TO.CLbN,"Resistor_SMD"*%
%TO.CMnt,SMD*%
%TO.CRot,-90*%
X124982500Y-71050000D03*
D11*
X125712499Y-69400001D02*
X125712499Y-72699999D01*
X124252501Y-72699999D01*
X124252501Y-69400001D01*
X125712499Y-69400001D01*
D12*
%TO.P,"R8","1"*%
X124982500Y-70137500D03*
D13*
%TO.P,"R8","2"*%
X124982500Y-71962500D03*
%TD*%
D10*
%TO.C,"R6_SR1"*%
%TO.CFtp,"R_2010_5025Metric_Pad1.40x2.65mm_HandSolder"*%
%TO.CVal,"40 m"*%
%TO.CLbN,"Resistor_SMD"*%
%TO.CMnt,SMD*%
%TO.CRot,-90*%
X180250000Y-94120000D03*
D11*
X181829999Y-90770001D02*
X181829999Y-97469999D01*
X178670001Y-97469999D01*
X178670001Y-90770001D01*
X181829999Y-90770001D01*
D12*
%TO.P,"R6_SR1","1"*%
X180250000Y-91720000D03*
D13*
%TO.P,"R6_SR1","2"*%
X180250000Y-96520000D03*
%TD*%
D10*
%TO.C,"U4"*%
%TO.CFtp,"TSSOP-20_4.4x6.5mm_P0.65mm"*%
%TO.CVal,"BQ76920PW"*%
%TO.CLbN,"Package_SO"*%
%TO.CMnt,SMD*%
%TO.CRot,0*%
X194865000Y-72750000D03*
D11*
X198714999Y-69250001D02*
X198714999Y-76249999D01*
X191015001Y-76249999D01*
X191015001Y-69250001D01*
X198714999Y-69250001D01*
D12*
%TO.P,"U4","1","DSG"*%
X192002500Y-69825000D03*
D13*
%TO.P,"U4","2","CHG"*%
X192002500Y-70475000D03*
%TO.P,"U4","3","VSS"*%
X192002500Y-71125000D03*
%TO.P,"U4","4","SDA"*%
X192002500Y-71775000D03*
%TO.P,"U4","5","SCL"*%
X192002500Y-72425000D03*
%TO.P,"U4","6","TS1"*%
X192002500Y-73075000D03*
%TO.P,"U4","7","CAP1"*%
X192002500Y-73725000D03*
%TO.P,"U4","8","REGOUT"*%
X192002500Y-74375000D03*
%TO.P,"U4","9","REGSRC"*%
X192002500Y-75025000D03*
%TO.P,"U4","10","BAT"*%
X192002500Y-75675000D03*
%TO.P,"U4","11","NC"*%
X197727500Y-75675000D03*
%TO.P,"U4","12","VC5"*%
X197727500Y-75025000D03*
%TO.P,"U4","13","VC4"*%
X197727500Y-74375000D03*
%TO.P,"U4","14","VC3"*%
X197727500Y-73725000D03*
%TO.P,"U4","15","VC2"*%
X197727500Y-73075000D03*
%TO.P,"U4","16","VC1"*%
X197727500Y-72425000D03*
%TO.P,"U4","17","VC0"*%
X197727500Y-71775000D03*
%TO.P,"U4","18","SRP"*%
X197727500Y-71125000D03*
%TO.P,"U4","19","SRN"*%
X197727500Y-70475000D03*
%TO.P,"U4","20","ALERT"*%
X197727500Y-69825000D03*
%TD*%
D10*
%TO.C,"D10"*%
%TO.CFtp,"D_SOD-323_HandSoldering"*%
%TO.CVal,"1N4148"*%
%TO.CLbN,"Diode_SMD"*%
%TO.CMnt,SMD*%
%TO.CRot,-90*%
X180727500Y-69855000D03*
D11*
X181677499Y-67855001D02*
X181677499Y-71854999D01*
X179777501Y-71854999D01*
X179777501Y-67855001D01*
X181677499Y-67855001D01*
D12*
%TO.P,"D10","1","K"*%
X180727500Y-68605000D03*
D13*
%TO.P,"D10","2","A"*%
X180727500Y-71105000D03*
%TD*%
D10*
%TO.C,"R31"*%
%TO.CFtp,"R_1206_3216Metric_Pad1.30x1.75mm_HandSolder"*%
%TO.CVal,"1M"*%
%TO.CLbN,"Resistor_SMD"*%
%TO.CMnt,SMD*%
%TO.CRot,-90*%
X177257500Y-70085000D03*
D11*
X178377499Y-67635001D02*
X178377499Y-72534999D01*
X176137501Y-72534999D01*
X176137501Y-67635001D01*
X178377499Y-67635001D01*
D12*
%TO.P,"R31","1"*%
X177257500Y-68535000D03*
D13*
%TO.P,"R31","2"*%
X177257500Y-71635000D03*
%TD*%
D10*
%TO.C,"J5"*%
%TO.CFtp,"XKB_DC-005-5A-2.0"*%
%TO.CVal,"Barrel_Jack_Switch"*%
%TO.CLbN,"Barrel_Jack"*%
%TO.CMnt,TH*%
%TO.CRot,0*%
X85161750Y-111313500D03*
D11*
X92511749Y-106563501D02*
X92511749Y-117263499D01*
X77211751Y-117263499D01*
X77211751Y-106563501D01*
X92511749Y-106563501D01*
D12*
%TO.P,"J5","1"*%
X91161750Y-111313500D03*
D13*
%TO.P,"J5","2"*%
X85161750Y-111313500D03*
%TO.P,"J5","3"*%
X88161750Y-116013500D03*
%TD*%
D10*
%TO.C,"R37"*%
%TO.CFtp,"R_0402_1005Metric_Pad0.72x0.64mm_HandSolder"*%
%TO.CVal,"7.5k"*%
%TO.CLbN,"My_Passive"*%
%TO.CMnt,SMD*%
%TO.CRot,0*%
X136862500Y-89260000D03*
D11*
X137962499Y-88790001D02*
X137962499Y-89729999D01*
X135762501Y-89729999D01*
X135762501Y-88790001D01*
X137962499Y-88790001D01*
D12*
%TO.P,"R37","1"*%
X136265000Y-89260000D03*
D13*
%TO.P,"R37","2"*%
X137460000Y-89260000D03*
%TD*%
D10*
%TO.C,"R24"*%
%TO.CFtp,"R_1210_3225Metric_Pad1.30x2.65mm_HandSolder"*%
%TO.CVal,"100"*%
%TO.CLbN,"Resistor_SMD"*%
%TO.CMnt,SMD*%
%TO.CRot,0*%
X209740000Y-77780000D03*
D11*
X212189999Y-76200001D02*
X212189999Y-79359999D01*
X207290001Y-79359999D01*
X207290001Y-76200001D01*
X212189999Y-76200001D01*
D12*
%TO.P,"R24","1"*%
X208190000Y-77780000D03*
D13*
%TO.P,"R24","2"*%
X211290000Y-77780000D03*
%TD*%
D10*
%TO.C,"R29"*%
%TO.CFtp,"R_2010_5025Metric_Pad1.40x2.65mm_HandSolder"*%
%TO.CVal,"20m"*%
%TO.CLbN,"Resistor_SMD"*%
%TO.CMnt,SMD*%
%TO.CRot,180*%
X190507500Y-59335000D03*
D11*
X193857499Y-57755001D02*
X193857499Y-60914999D01*
X187157501Y-60914999D01*
X187157501Y-57755001D01*
X193857499Y-57755001D01*
D12*
%TO.P,"R29","1"*%
X192907500Y-59335000D03*
D13*
%TO.P,"R29","2"*%
X188107500Y-59335000D03*
%TD*%
D10*
%TO.C,"C19"*%
%TO.CFtp,"C_1206_3216Metric_Pad1.33x1.80mm_HandSolder"*%
%TO.CVal,"10uF"*%
%TO.CLbN,"Capacitor_SMD"*%
%TO.CMnt,SMD*%
%TO.CRot,-90*%
X136518000Y-117160000D03*
D11*
X137667999Y-114680001D02*
X137667999Y-119639999D01*
X135368001Y-119639999D01*
X135368001Y-114680001D01*
X137667999Y-114680001D01*
D12*
%TO.P,"C19","1"*%
X136518000Y-115597500D03*
D13*
%TO.P,"C19","2"*%
X136518000Y-118722500D03*
%TD*%
D10*
%TO.C,"R26"*%
%TO.CFtp,"R_1210_3225Metric_Pad1.30x2.65mm_HandSolder"*%
%TO.CVal,"100"*%
%TO.CLbN,"Resistor_SMD"*%
%TO.CMnt,SMD*%
%TO.CRot,0*%
X209490000Y-68490000D03*
D11*
X211939999Y-66910001D02*
X211939999Y-70069999D01*
X207040001Y-70069999D01*
X207040001Y-66910001D01*
X211939999Y-66910001D01*
D12*
%TO.P,"R26","1"*%
X207940000Y-68490000D03*
D13*
%TO.P,"R26","2"*%
X211040000Y-68490000D03*
%TD*%
D10*
%TO.C,"R12"*%
%TO.CFtp,"R_2010_5025Metric_Pad1.40x2.65mm_HandSolder"*%
%TO.CVal,"0.1"*%
%TO.CLbN,"Resistor_SMD"*%
%TO.CMnt,SMD*%
%TO.CRot,180*%
X204590000Y-113042500D03*
D11*
X207939999Y-111462501D02*
X207939999Y-114622499D01*
X201240001Y-114622499D01*
X201240001Y-111462501D01*
X207939999Y-111462501D01*
D12*
%TO.P,"R12","1"*%
X206990000Y-113042500D03*
D13*
%TO.P,"R12","2"*%
X202190000Y-113042500D03*
%TD*%
D10*
%TO.C,"C2"*%
%TO.CFtp,"C_0805_2012Metric_Pad1.18x1.45mm_HandSolder"*%
%TO.CVal,"100nF"*%
%TO.CLbN,"Capacitor_SMD"*%
%TO.CMnt,SMD*%
%TO.CRot,-90*%
X200750000Y-119722500D03*
D11*
X201729999Y-117842501D02*
X201729999Y-121602499D01*
X199770001Y-121602499D01*
X199770001Y-117842501D01*
X201729999Y-117842501D01*
D12*
%TO.P,"C2","1"*%
X200750000Y-118685000D03*
D13*
%TO.P,"C2","2"*%
X200750000Y-120760000D03*
%TD*%
D10*
%TO.C,"CBJ6"*%
%TO.CFtp,"C_1210_3225Metric_Pad1.33x2.70mm_HandSolder"*%
%TO.CVal,"2.2uF"*%
%TO.CLbN,"Capacitor_SMD"*%
%TO.CMnt,SMD*%
%TO.CRot,0*%
X101266750Y-127043500D03*
D11*
X103746749Y-125443501D02*
X103746749Y-128643499D01*
X98786751Y-128643499D01*
X98786751Y-125443501D01*
X103746749Y-125443501D01*
D12*
%TO.P,"CBJ6","1"*%
X99704250Y-127043500D03*
D13*
%TO.P,"CBJ6","2"*%
X102829250Y-127043500D03*
%TD*%
D10*
%TO.C,"R27"*%
%TO.CFtp,"R_1210_3225Metric_Pad1.30x2.65mm_HandSolder"*%
%TO.CVal,"100"*%
%TO.CLbN,"Resistor_SMD"*%
%TO.CMnt,SMD*%
%TO.CRot,0*%
X209440000Y-63960000D03*
D11*
X211889999Y-62380001D02*
X211889999Y-65539999D01*
X206990001Y-65539999D01*
X206990001Y-62380001D01*
X211889999Y-62380001D01*
D12*
%TO.P,"R27","1"*%
X207890000Y-63960000D03*
D13*
%TO.P,"R27","2"*%
X210990000Y-63960000D03*
%TD*%
D10*
%TO.C,"R21"*%
%TO.CFtp,"R_0402_1005Metric_Pad0.72x0.64mm_HandSolder"*%
%TO.CVal,"10k"*%
%TO.CLbN,"My_Passive"*%
%TO.CMnt,SMD*%
%TO.CRot,-90*%
X157220000Y-119270000D03*
D11*
X157689999Y-118170001D02*
X157689999Y-120369999D01*
X156750001Y-120369999D01*
X156750001Y-118170001D01*
X157689999Y-118170001D01*
D12*
%TO.P,"R21","1"*%
X157220000Y-118672500D03*
D13*
%TO.P,"R21","2"*%
X157220000Y-119867500D03*
%TD*%
D10*
%TO.C,"R22"*%
%TO.CFtp,"R_0805_2012Metric_Pad1.20x1.40mm_HandSolder"*%
%TO.CVal,"140k"*%
%TO.CLbN,"Resistor_SMD"*%
%TO.CMnt,SMD*%
%TO.CRot,0*%
X159970000Y-119340000D03*
D11*
X161819999Y-118390001D02*
X161819999Y-120289999D01*
X158120001Y-120289999D01*
X158120001Y-118390001D01*
X161819999Y-118390001D01*
D12*
%TO.P,"R22","1"*%
X158970000Y-119340000D03*
D13*
%TO.P,"R22","2"*%
X160970000Y-119340000D03*
%TD*%
D10*
%TO.C,"J2"*%
%TO.CFtp,"XKB_DC-005-5A-2.0"*%
%TO.CVal,"Barrel_Jack_Switch"*%
%TO.CLbN,"Barrel_Jack"*%
%TO.CMnt,TH*%
%TO.CRot,0*%
X85161750Y-76063500D03*
D11*
X92511749Y-71313501D02*
X92511749Y-82013499D01*
X77211751Y-82013499D01*
X77211751Y-71313501D01*
X92511749Y-71313501D01*
D12*
%TO.P,"J2","1"*%
X91161750Y-76063500D03*
D13*
%TO.P,"J2","2"*%
X85161750Y-76063500D03*
%TO.P,"J2","3"*%
X88161750Y-80763500D03*
%TD*%
D10*
%TO.C,"D5"*%
%TO.CFtp,"DIO_PDS1040L-13"*%
%TO.CVal,"PDS1040L-13"*%
%TO.CLbN,"PDS1040L-13_solar"*%
%TO.CMnt,SMD*%
%TO.CRot,0*%
X109864250Y-88943500D03*
D11*
X113674249Y-86708501D02*
X113674249Y-91178499D01*
X106054251Y-91178499D01*
X106054251Y-86708501D01*
X113674249Y-86708501D01*
D12*
%TO.P,"D5","1"*%
X107008250Y-88023500D03*
D13*
%TO.P,"D5","2"*%
X107008250Y-89863500D03*
%TO.P,"D5","3"*%
X110990250Y-88943500D03*
%TD*%
D10*
%TO.C,"R16"*%
%TO.CFtp,"R_0402_1005Metric_Pad0.72x0.64mm_HandSolder"*%
%TO.CVal,"53.6k"*%
%TO.CLbN,"My_Passive"*%
%TO.CMnt,SMD*%
%TO.CRot,-90*%
X169540000Y-115087500D03*
D11*
X170009999Y-113987501D02*
X170009999Y-116187499D01*
X169070001Y-116187499D01*
X169070001Y-113987501D01*
X170009999Y-113987501D01*
D12*
%TO.P,"R16","1"*%
X169540000Y-114490000D03*
D13*
%TO.P,"R16","2"*%
X169540000Y-115685000D03*
%TD*%
D10*
%TO.C,"R15"*%
%TO.CFtp,"R_0805_2012Metric_Pad1.20x1.40mm_HandSolder"*%
%TO.CVal,"10k"*%
%TO.CLbN,"Resistor_SMD"*%
%TO.CMnt,SMD*%
%TO.CRot,180*%
X139671250Y-97751250D03*
D11*
X141521249Y-96801251D02*
X141521249Y-98701249D01*
X137821251Y-98701249D01*
X137821251Y-96801251D01*
X141521249Y-96801251D01*
D12*
%TO.P,"R15","1"*%
X140671250Y-97751250D03*
D13*
%TO.P,"R15","2"*%
X138671250Y-97751250D03*
%TD*%
D10*
%TO.C,"U2"*%
%TO.CFtp,"QFN50P350X350X100-17N"*%
%TO.CVal,"BQ24650RVAR"*%
%TO.CLbN,"BQ24650"*%
%TO.CMnt,SMD*%
%TO.CRot,-90*%
X150405000Y-85607500D03*
D11*
X152769999Y-83242501D02*
X152769999Y-87972499D01*
X148040001Y-87972499D01*
X148040001Y-83242501D01*
X152769999Y-83242501D01*
D12*
%TO.P,"U2","1","VCC"*%
X151155000Y-83882500D03*
D13*
%TO.P,"U2","2","MPPSET"*%
X150655000Y-83882500D03*
%TO.P,"U2","3","STAT1"*%
X150155000Y-83882500D03*
%TO.P,"U2","4","TS"*%
X149655000Y-83882500D03*
%TO.P,"U2","5","STAT2"*%
X148680000Y-84857500D03*
%TO.P,"U2","6","VREF"*%
X148680000Y-85357500D03*
%TO.P,"U2","7","TERM_EN"*%
X148680000Y-85857500D03*
%TO.P,"U2","8","VFB"*%
X148680000Y-86357500D03*
%TO.P,"U2","9","SRN"*%
X149655000Y-87332500D03*
%TO.P,"U2","10","SRP"*%
X150155000Y-87332500D03*
%TO.P,"U2","11","GND"*%
X150655000Y-87332500D03*
%TO.P,"U2","12","REGN"*%
X151155000Y-87332500D03*
%TO.P,"U2","13","LODRV"*%
X152130000Y-86357500D03*
%TO.P,"U2","14","PH"*%
X152130000Y-85857500D03*
%TO.P,"U2","15","HIDRV"*%
X152130000Y-85357500D03*
%TO.P,"U2","16","BTST"*%
X152130000Y-84857500D03*
%TO.P,"U2","17","EPAD"*%
X150405000Y-85607500D03*
%TD*%
D10*
%TO.C,"RBJ2"*%
%TO.CFtp,"R_2512_6332Metric_Pad1.40x3.35mm_HandSolder"*%
%TO.CVal,"2"*%
%TO.CLbN,"Resistor_SMD"*%
%TO.CMnt,SMD*%
%TO.CRot,0*%
X99704250Y-76243500D03*
D11*
X103704249Y-74323501D02*
X103704249Y-78163499D01*
X95704251Y-78163499D01*
X95704251Y-74323501D01*
X103704249Y-74323501D01*
D12*
%TO.P,"RBJ2","1"*%
X96654250Y-76243500D03*
D13*
%TO.P,"RBJ2","2"*%
X102754250Y-76243500D03*
%TD*%
D10*
%TO.C,"L2"*%
%TO.CFtp,"L_Vishay_IHLP-2020"*%
%TO.CVal,"1.5uH"*%
%TO.CLbN,"L_3.4"*%
%TO.CMnt,SMD*%
%TO.CRot,180*%
X155583500Y-111560000D03*
D11*
X159233499Y-108760001D02*
X159233499Y-114359999D01*
X151933501Y-114359999D01*
X151933501Y-108760001D01*
X159233499Y-108760001D01*
D12*
%TO.P,"L2","1","1"*%
X158010000Y-111560000D03*
D13*
%TO.P,"L2","2","2"*%
X153157000Y-111560000D03*
%TD*%
D10*
%TO.C,"R13"*%
%TO.CFtp,"R_0805_2012Metric_Pad1.20x1.40mm_HandSolder"*%
%TO.CVal,"10k"*%
%TO.CLbN,"Resistor_SMD"*%
%TO.CMnt,SMD*%
%TO.CRot,180*%
X144198750Y-97740000D03*
D11*
X146048749Y-96790001D02*
X146048749Y-98689999D01*
X142348751Y-98689999D01*
X142348751Y-96790001D01*
X146048749Y-96790001D01*
D12*
%TO.P,"R13","1"*%
X145198750Y-97740000D03*
D13*
%TO.P,"R13","2"*%
X143198750Y-97740000D03*
%TD*%
D10*
%TO.C,"J1"*%
%TO.CFtp,"XKB_DC-005-5A-2.0"*%
%TO.CVal,"Barrel_Jack_Switch"*%
%TO.CLbN,"Barrel_Jack"*%
%TO.CMnt,TH*%
%TO.CRot,0*%
X85161750Y-64313500D03*
D11*
X92511749Y-59563501D02*
X92511749Y-70263499D01*
X77211751Y-70263499D01*
X77211751Y-59563501D01*
X92511749Y-59563501D01*
D12*
%TO.P,"J1","1"*%
X91161750Y-64313500D03*
D13*
%TO.P,"J1","2"*%
X85161750Y-64313500D03*
%TO.P,"J1","3"*%
X88161750Y-69013500D03*
%TD*%
D10*
%TO.C,"SW3"*%
%TO.CFtp,"SW-SPDT-SW"*%
%TO.CVal,"SW_SPDT"*%
%TO.CLbN,"Slide_Switch"*%
%TO.CMnt,TH*%
%TO.CRot,0*%
X190030000Y-102860000D03*
D11*
X196729999Y-99260001D02*
X196729999Y-106459999D01*
X183330001Y-106459999D01*
X183330001Y-99260001D01*
X196729999Y-99260001D01*
D12*
%TO.P,"SW3","1","A"*%
X185330000Y-102860000D03*
D13*
%TO.P,"SW3","2","B"*%
X190030000Y-102860000D03*
%TO.P,"SW3","3","C"*%
X194730000Y-102860000D03*
%TD*%
D10*
%TO.C,"C15"*%
%TO.CFtp,"C_0603_1608Metric_Pad1.08x0.95mm_HandSolder"*%
%TO.CVal,"22pF"*%
%TO.CLbN,"Capacitor_SMD"*%
%TO.CMnt,SMD*%
%TO.CRot,180*%
X141952500Y-94410000D03*
D11*
X143602499Y-93680001D02*
X143602499Y-95139999D01*
X140302501Y-95139999D01*
X140302501Y-93680001D01*
X143602499Y-93680001D01*
D12*
%TO.P,"C15","1"*%
X142815000Y-94410000D03*
D13*
%TO.P,"C15","2"*%
X141090000Y-94410000D03*
%TD*%
D10*
%TO.C,"C14"*%
%TO.CFtp,"C_0805_2012Metric_Pad1.18x1.45mm_HandSolder"*%
%TO.CVal,"100nF"*%
%TO.CLbN,"Capacitor_SMD"*%
%TO.CMnt,SMD*%
%TO.CRot,180*%
X148310000Y-90860000D03*
D11*
X150189999Y-89880001D02*
X150189999Y-91839999D01*
X146430001Y-91839999D01*
X146430001Y-89880001D01*
X150189999Y-89880001D01*
D12*
%TO.P,"C14","1"*%
X149347500Y-90860000D03*
D13*
%TO.P,"C14","2"*%
X147272500Y-90860000D03*
%TD*%
D10*
%TO.C,"J10"*%
%TO.CFtp,"PinHeader_1x05_P2.54mm_Vertical_SMD_Pin1Right"*%
%TO.CVal,"Conn_01x05_Socket"*%
%TO.CLbN,"Connector_PinHeader_2.54mm"*%
%TO.CMnt,SMD*%
%TO.CRot,-90*%
X157610000Y-44735000D03*
D11*
X164459999Y-41285001D02*
X164459999Y-48184999D01*
X150760001Y-48184999D01*
X150760001Y-41285001D01*
X164459999Y-41285001D01*
D12*
%TO.P,"J10","1","Pin_1"*%
X162690000Y-46390000D03*
D13*
%TO.P,"J10","2","Pin_2"*%
X160150000Y-43080000D03*
%TO.P,"J10","3","Pin_3"*%
X157610000Y-46390000D03*
%TO.P,"J10","4","Pin_4"*%
X155070000Y-43080000D03*
%TO.P,"J10","5","Pin_5"*%
X152530000Y-46390000D03*
%TD*%
D10*
%TO.C,"C29"*%
%TO.CFtp,"C_1210_3225Metric_Pad1.33x2.70mm_HandSolder"*%
%TO.CVal,"1uF"*%
%TO.CLbN,"Capacitor_SMD"*%
%TO.CMnt,SMD*%
%TO.CRot,-90*%
X192027500Y-79295000D03*
D11*
X193627499Y-76815001D02*
X193627499Y-81774999D01*
X190427501Y-81774999D01*
X190427501Y-76815001D01*
X193627499Y-76815001D01*
D12*
%TO.P,"C29","1"*%
X192027500Y-77732500D03*
D13*
%TO.P,"C29","2"*%
X192027500Y-80857500D03*
%TD*%
D10*
%TO.C,"R34"*%
%TO.CFtp,"R_1210_3225Metric_Pad1.30x2.65mm_HandSolder"*%
%TO.CVal,"100"*%
%TO.CLbN,"Resistor_SMD"*%
%TO.CMnt,SMD*%
%TO.CRot,90*%
X194667500Y-64515000D03*
D11*
X196247499Y-62065001D02*
X196247499Y-66964999D01*
X193087501Y-66964999D01*
X193087501Y-62065001D01*
X196247499Y-62065001D01*
D12*
%TO.P,"R34","1"*%
X194667500Y-66065000D03*
D13*
%TO.P,"R34","2"*%
X194667500Y-62965000D03*
%TD*%
D10*
%TO.C,"C31"*%
%TO.CFtp,"C_0805_2012Metric_Pad1.18x1.45mm_HandSolder"*%
%TO.CVal,"100nF"*%
%TO.CLbN,"Capacitor_SMD"*%
%TO.CMnt,SMD*%
%TO.CRot,90*%
X182837500Y-64205000D03*
D11*
X183817499Y-62325001D02*
X183817499Y-66084999D01*
X181857501Y-66084999D01*
X181857501Y-62325001D01*
X183817499Y-62325001D01*
D12*
%TO.P,"C31","1"*%
X182837500Y-65242500D03*
D13*
%TO.P,"C31","2"*%
X182837500Y-63167500D03*
%TD*%
D10*
%TO.C,"R33"*%
%TO.CFtp,"R_1210_3225Metric_Pad1.30x2.65mm_HandSolder"*%
%TO.CVal,"100"*%
%TO.CLbN,"Resistor_SMD"*%
%TO.CMnt,SMD*%
%TO.CRot,0*%
X192160000Y-85000000D03*
D11*
X194609999Y-83420001D02*
X194609999Y-86579999D01*
X189710001Y-86579999D01*
X189710001Y-83420001D01*
X194609999Y-83420001D01*
D12*
%TO.P,"R33","1"*%
X190610000Y-85000000D03*
D13*
%TO.P,"R33","2"*%
X193710000Y-85000000D03*
%TD*%
D10*
%TO.C,"C17"*%
%TO.CFtp,"C_1210_3225Metric_Pad1.33x2.70mm_HandSolder"*%
%TO.CVal,"22uF"*%
%TO.CLbN,"Capacitor_SMD"*%
%TO.CMnt,SMD*%
%TO.CRot,-90*%
X163860000Y-116050000D03*
D11*
X165459999Y-113570001D02*
X165459999Y-118529999D01*
X162260001Y-118529999D01*
X162260001Y-113570001D01*
X165459999Y-113570001D01*
D12*
%TO.P,"C17","1"*%
X163860000Y-114487500D03*
D13*
%TO.P,"C17","2"*%
X163860000Y-117612500D03*
%TD*%
D10*
%TO.C,"J3"*%
%TO.CFtp,"XKB_DC-005-5A-2.0"*%
%TO.CVal,"Barrel_Jack_Switch"*%
%TO.CLbN,"Barrel_Jack"*%
%TO.CMnt,TH*%
%TO.CRot,0*%
X85161750Y-87813500D03*
D11*
X92511749Y-83063501D02*
X92511749Y-93763499D01*
X77211751Y-93763499D01*
X77211751Y-83063501D01*
X92511749Y-83063501D01*
D12*
%TO.P,"J3","1"*%
X91161750Y-87813500D03*
D13*
%TO.P,"J3","2"*%
X85161750Y-87813500D03*
%TO.P,"J3","3"*%
X88161750Y-92513500D03*
%TD*%
D10*
%TO.C,"Q4"*%
%TO.CFtp,"TRANS_SI7288DP-T1-GE3"*%
%TO.CVal,"SI7288DP-T1-GE3"*%
%TO.CLbN,"SI7288DP"*%
%TO.CMnt,SMD*%
%TO.CRot,0*%
X158350000Y-86887500D03*
D11*
X162004999Y-84187501D02*
X162004999Y-89587499D01*
X154795001Y-89587499D01*
X154795001Y-84187501D01*
X162004999Y-84187501D01*
D12*
%TO.P,"Q4","1"*%
X155680000Y-84982500D03*
D13*
%TO.P,"Q4","2"*%
X155680000Y-86252500D03*
%TO.P,"Q4","3"*%
X155680000Y-87522500D03*
%TO.P,"Q4","4"*%
X155680000Y-88792500D03*
%TO.P,"Q4","5_6_10"*%
X158850000Y-87987500D03*
%TO.P,"Q4","7_8_9"*%
X158850000Y-85787500D03*
%TD*%
D10*
%TO.C,"J14"*%
%TO.CFtp,"CONN_1729128_PXC"*%
%TO.CVal,"Screw_Terminal_01x02"*%
%TO.CLbN,"Screw_Terminal"*%
%TO.CMnt,TH*%
%TO.CRot,90*%
X212955000Y-49516600D03*
D11*
X217258999Y-41642601D02*
X217258999Y-52310599D01*
X208601002Y-52310599D01*
X208601002Y-41642601D01*
X217258999Y-41642601D01*
D12*
%TO.P,"J14","1","Pin_1"*%
X212955000Y-49516600D03*
D13*
%TO.P,"J14","2","Pin_2"*%
X212955000Y-44436600D03*
%TD*%
D10*
%TO.C,"L1"*%
%TO.CFtp,"L_Koher_MDA1350_13.5x12.6mm_1"*%
%TO.CVal,"15uH"*%
%TO.CLbN,"L_MPPT"*%
%TO.CMnt,SMD*%
%TO.CRot,0*%
X170350000Y-89450000D03*
D11*
X176849999Y-82950001D02*
X176849999Y-86700000D01*
X176850000Y-86700001D01*
X177699999Y-86700001D01*
X177699999Y-92199999D01*
X176850000Y-92199999D01*
X176849999Y-92200000D01*
X176849999Y-95949999D01*
X163850001Y-95949999D01*
X163850001Y-92200000D01*
X163850000Y-92199999D01*
X163000001Y-92199999D01*
X163000001Y-86700001D01*
X163850000Y-86700001D01*
X163850001Y-86700000D01*
X163850001Y-82950001D01*
X176849999Y-82950001D01*
D12*
%TO.P,"L1","1","1"*%
X164800000Y-89450000D03*
D13*
%TO.P,"L1","2","2"*%
X175900000Y-89450000D03*
%TD*%
D10*
%TO.C,"C28"*%
%TO.CFtp,"C_1210_3225Metric_Pad1.33x2.70mm_HandSolder"*%
%TO.CVal,"1uF"*%
%TO.CLbN,"Capacitor_SMD"*%
%TO.CMnt,SMD*%
%TO.CRot,-90*%
X196267500Y-79325000D03*
D11*
X197867499Y-76845001D02*
X197867499Y-81804999D01*
X194667501Y-81804999D01*
X194667501Y-76845001D01*
X197867499Y-76845001D01*
D12*
%TO.P,"C28","1"*%
X196267500Y-77762500D03*
D13*
%TO.P,"C28","2"*%
X196267500Y-80887500D03*
%TD*%
D10*
%TO.C,"C18"*%
%TO.CFtp,"C_0402_1005Metric_Pad0.74x0.62mm_HandSolder"*%
%TO.CVal,"10pF"*%
%TO.CLbN,"My_Passive"*%
%TO.CMnt,SMD*%
%TO.CRot,0*%
X159122500Y-121180000D03*
D11*
X160202499Y-120720001D02*
X160202499Y-121639999D01*
X158042501Y-121639999D01*
X158042501Y-120720001D01*
X160202499Y-120720001D01*
D12*
%TO.P,"C18","1"*%
X158555000Y-121180000D03*
D13*
%TO.P,"C18","2"*%
X159690000Y-121180000D03*
%TD*%
D10*
%TO.C,"C8"*%
%TO.CFtp,"C_1210_3225Metric_Pad1.33x2.70mm_HandSolder"*%
%TO.CVal,"4.7uF"*%
%TO.CLbN,"Capacitor_SMD"*%
%TO.CMnt,SMD*%
%TO.CRot,-90*%
X176580000Y-101000000D03*
D11*
X178179999Y-98520001D02*
X178179999Y-103479999D01*
X174980001Y-103479999D01*
X174980001Y-98520001D01*
X178179999Y-98520001D01*
D12*
%TO.P,"C8","1"*%
X176580000Y-99437500D03*
D13*
%TO.P,"C8","2"*%
X176580000Y-102562500D03*
%TD*%
D10*
%TO.C,"RBJ4"*%
%TO.CFtp,"R_2512_6332Metric_Pad1.40x3.35mm_HandSolder"*%
%TO.CVal,"2"*%
%TO.CLbN,"Resistor_SMD"*%
%TO.CMnt,SMD*%
%TO.CRot,0*%
X99704250Y-99103500D03*
D11*
X103704249Y-97183501D02*
X103704249Y-101023499D01*
X95704251Y-101023499D01*
X95704251Y-97183501D01*
X103704249Y-97183501D01*
D12*
%TO.P,"RBJ4","1"*%
X96654250Y-99103500D03*
D13*
%TO.P,"RBJ4","2"*%
X102754250Y-99103500D03*
%TD*%
D10*
%TO.C,"C34"*%
%TO.CFtp,"C_0805_2012Metric_Pad1.18x1.45mm_HandSolder"*%
%TO.CVal,"22uF"*%
%TO.CLbN,"Capacitor_SMD"*%
%TO.CMnt,SMD*%
%TO.CRot,-90*%
X154810000Y-116870000D03*
D11*
X155789999Y-114990001D02*
X155789999Y-118749999D01*
X153830001Y-118749999D01*
X153830001Y-114990001D01*
X155789999Y-114990001D01*
D12*
%TO.P,"C34","1"*%
X154810000Y-115832500D03*
D13*
%TO.P,"C34","2"*%
X154810000Y-117907500D03*
%TD*%
D10*
%TO.C,"C23"*%
%TO.CFtp,"C_0805_2012Metric_Pad1.18x1.45mm_HandSolder"*%
%TO.CVal,"1uF"*%
%TO.CLbN,"Capacitor_SMD"*%
%TO.CMnt,SMD*%
%TO.CRot,90*%
X203727500Y-74455000D03*
D11*
X204707499Y-72575001D02*
X204707499Y-76334999D01*
X202747501Y-76334999D01*
X202747501Y-72575001D01*
X204707499Y-72575001D01*
D12*
%TO.P,"C23","1"*%
X203727500Y-75492500D03*
D13*
%TO.P,"C23","2"*%
X203727500Y-73417500D03*
%TD*%
D10*
%TO.C,"C7"*%
%TO.CFtp,"C_1210_3225Metric_Pad1.33x2.70mm_HandSolder"*%
%TO.CVal,"4.7uF"*%
%TO.CLbN,"Capacitor_SMD"*%
%TO.CMnt,SMD*%
%TO.CRot,-90*%
X172305000Y-100958750D03*
D11*
X173904999Y-98478751D02*
X173904999Y-103438749D01*
X170705001Y-103438749D01*
X170705001Y-98478751D01*
X173904999Y-98478751D01*
D12*
%TO.P,"C7","1"*%
X172305000Y-99396250D03*
D13*
%TO.P,"C7","2"*%
X172305000Y-102521250D03*
%TD*%
D10*
%TO.C,"R5"*%
%TO.CFtp,"R_0805_2012Metric_Pad1.20x1.40mm_HandSolder"*%
%TO.CVal,"10k"*%
%TO.CLbN,"Resistor_SMD"*%
%TO.CMnt,SMD*%
%TO.CRot,-90*%
X134615000Y-80177500D03*
D11*
X135564999Y-78327501D02*
X135564999Y-82027499D01*
X133665001Y-82027499D01*
X133665001Y-78327501D01*
X135564999Y-78327501D01*
D12*
%TO.P,"R5","1"*%
X134615000Y-79177500D03*
D13*
%TO.P,"R5","2"*%
X134615000Y-81177500D03*
%TD*%
D10*
%TO.C,"C27"*%
%TO.CFtp,"C_1210_3225Metric_Pad1.33x2.70mm_HandSolder"*%
%TO.CVal,"1uF"*%
%TO.CLbN,"Capacitor_SMD"*%
%TO.CMnt,SMD*%
%TO.CRot,-90*%
X184700000Y-77650000D03*
D11*
X186299999Y-75170001D02*
X186299999Y-80129999D01*
X183100001Y-80129999D01*
X183100001Y-75170001D01*
X186299999Y-75170001D01*
D12*
%TO.P,"C27","1"*%
X184700000Y-76087500D03*
D13*
%TO.P,"C27","2"*%
X184700000Y-79212500D03*
%TD*%
D10*
%TO.C,"R1"*%
%TO.CFtp,"R_1206_3216Metric_Pad1.30x1.75mm_HandSolder"*%
%TO.CVal,"5.1k"*%
%TO.CLbN,"Resistor_SMD"*%
%TO.CMnt,SMD*%
%TO.CRot,0*%
X136965000Y-86267500D03*
D11*
X139414999Y-85147501D02*
X139414999Y-87387499D01*
X134515001Y-87387499D01*
X134515001Y-85147501D01*
X139414999Y-85147501D01*
D12*
%TO.P,"R1","1"*%
X135415000Y-86267500D03*
D13*
%TO.P,"R1","2"*%
X138515000Y-86267500D03*
%TD*%
D10*
%TO.C,"D1"*%
%TO.CFtp,"DIO_PDS1040L-13"*%
%TO.CVal,"PDS1040L-13"*%
%TO.CLbN,"PDS1040L-13_solar"*%
%TO.CMnt,SMD*%
%TO.CRot,0*%
X109864250Y-66083500D03*
D11*
X113674249Y-63848501D02*
X113674249Y-68318499D01*
X106054251Y-68318499D01*
X106054251Y-63848501D01*
X113674249Y-63848501D01*
D12*
%TO.P,"D1","1"*%
X107008250Y-65163500D03*
D13*
%TO.P,"D1","2"*%
X107008250Y-67003500D03*
%TO.P,"D1","3"*%
X110990250Y-66083500D03*
%TD*%
D10*
%TO.C,"J4"*%
%TO.CFtp,"XKB_DC-005-5A-2.0"*%
%TO.CVal,"Barrel_Jack_Switch"*%
%TO.CLbN,"Barrel_Jack"*%
%TO.CMnt,TH*%
%TO.CRot,0*%
X85161750Y-99563500D03*
D11*
X92511749Y-94813501D02*
X92511749Y-105513499D01*
X77211751Y-105513499D01*
X77211751Y-94813501D01*
X92511749Y-94813501D01*
D12*
%TO.P,"J4","1"*%
X91161750Y-99563500D03*
D13*
%TO.P,"J4","2"*%
X85161750Y-99563500D03*
%TO.P,"J4","3"*%
X88161750Y-104263500D03*
%TD*%
D10*
%TO.C,"J6"*%
%TO.CFtp,"XKB_DC-005-5A-2.0"*%
%TO.CVal,"Barrel_Jack_Switch"*%
%TO.CLbN,"Barrel_Jack"*%
%TO.CMnt,TH*%
%TO.CRot,0*%
X85161750Y-123063500D03*
D11*
X92511749Y-118313501D02*
X92511749Y-129013499D01*
X77211751Y-129013499D01*
X77211751Y-118313501D01*
X92511749Y-118313501D01*
D12*
%TO.P,"J6","1"*%
X91161750Y-123063500D03*
D13*
%TO.P,"J6","2"*%
X85161750Y-123063500D03*
%TO.P,"J6","3"*%
X88161750Y-127763500D03*
%TD*%
D10*
%TO.C,"R19"*%
%TO.CFtp,"R_1206_3216Metric_Pad1.30x1.75mm_HandSolder"*%
%TO.CVal,"1.7k"*%
%TO.CLbN,"Resistor_SMD"*%
%TO.CMnt,SMD*%
%TO.CRot,90*%
X147300000Y-43630000D03*
D11*
X148419999Y-41180001D02*
X148419999Y-46079999D01*
X146180001Y-46079999D01*
X146180001Y-41180001D01*
X148419999Y-41180001D01*
D12*
%TO.P,"R19","1"*%
X147300000Y-45180000D03*
D13*
%TO.P,"R19","2"*%
X147300000Y-42080000D03*
%TD*%
D10*
%TO.C,"R6"*%
%TO.CFtp,"R_0603_1608Metric_Pad0.98x0.95mm_HandSolder"*%
%TO.CVal,"120k"*%
%TO.CLbN,"Resistor_SMD"*%
%TO.CMnt,SMD*%
%TO.CRot,0*%
X120519250Y-88013500D03*
D11*
X122169249Y-87283501D02*
X122169249Y-88743499D01*
X118869251Y-88743499D01*
X118869251Y-87283501D01*
X122169249Y-87283501D01*
D12*
%TO.P,"R6","1"*%
X119606750Y-88013500D03*
D13*
%TO.P,"R6","2"*%
X121431750Y-88013500D03*
%TD*%
D10*
%TO.C,"R36"*%
%TO.CFtp,"R_0603_1608Metric_Pad0.98x0.95mm_HandSolder"*%
%TO.CVal,"30k"*%
%TO.CLbN,"Resistor_SMD"*%
%TO.CMnt,SMD*%
%TO.CRot,0*%
X162342500Y-121190000D03*
D11*
X163992499Y-120460001D02*
X163992499Y-121919999D01*
X160692501Y-121919999D01*
X160692501Y-120460001D01*
X163992499Y-120460001D01*
D12*
%TO.P,"R36","1"*%
X161430000Y-121190000D03*
D13*
%TO.P,"R36","2"*%
X163255000Y-121190000D03*
%TD*%
D10*
%TO.C,"C25"*%
%TO.CFtp,"C_0805_2012Metric_Pad1.18x1.45mm_HandSolder"*%
%TO.CVal,"1uF"*%
%TO.CLbN,"Capacitor_SMD"*%
%TO.CMnt,SMD*%
%TO.CRot,90*%
X203830000Y-66170000D03*
D11*
X204809999Y-64290001D02*
X204809999Y-68049999D01*
X202850001Y-68049999D01*
X202850001Y-64290001D01*
X204809999Y-64290001D01*
D12*
%TO.P,"C25","1"*%
X203830000Y-67207500D03*
D13*
%TO.P,"C25","2"*%
X203830000Y-65132500D03*
%TD*%
D10*
%TO.C,"J8"*%
%TO.CFtp,"CONN_1729128_PXC"*%
%TO.CVal,"Screw_Terminal_01x02"*%
%TO.CLbN,"Screw_Terminal"*%
%TO.CMnt,TH*%
%TO.CRot,0*%
X207153400Y-131365000D03*
D11*
X215027399Y-127011002D02*
X215027399Y-135668999D01*
X204359401Y-135668999D01*
X204359401Y-127011002D01*
X215027399Y-127011002D01*
D12*
%TO.P,"J8","1","Pin_1"*%
X207153400Y-131365000D03*
D13*
%TO.P,"J8","2","Pin_2"*%
X212233400Y-131365000D03*
%TD*%
D10*
%TO.C,"R35"*%
%TO.CFtp,"R_1210_3225Metric_Pad1.30x2.65mm_HandSolder"*%
%TO.CVal,"100"*%
%TO.CLbN,"Resistor_SMD"*%
%TO.CMnt,SMD*%
%TO.CRot,90*%
X186657500Y-64345000D03*
D11*
X188237499Y-61895001D02*
X188237499Y-66794999D01*
X185077501Y-66794999D01*
X185077501Y-61895001D01*
X188237499Y-61895001D01*
D12*
%TO.P,"R35","1"*%
X186657500Y-65895000D03*
D13*
%TO.P,"R35","2"*%
X186657500Y-62795000D03*
%TD*%
D10*
%TO.C,"R17"*%
%TO.CFtp,"R_0603_1608Metric_Pad0.98x0.95mm_HandSolder"*%
%TO.CVal,"30k"*%
%TO.CLbN,"Resistor_SMD"*%
%TO.CMnt,SMD*%
%TO.CRot,180*%
X168380000Y-117880000D03*
D11*
X170029999Y-117150001D02*
X170029999Y-118609999D01*
X166730001Y-118609999D01*
X166730001Y-117150001D01*
X170029999Y-117150001D01*
D12*
%TO.P,"R17","1"*%
X169292500Y-117880000D03*
D13*
%TO.P,"R17","2"*%
X167467500Y-117880000D03*
%TD*%
D10*
%TO.C,"RBJ3"*%
%TO.CFtp,"R_2512_6332Metric_Pad1.40x3.35mm_HandSolder"*%
%TO.CVal,"2"*%
%TO.CLbN,"Resistor_SMD"*%
%TO.CMnt,SMD*%
%TO.CRot,0*%
X99704250Y-86403500D03*
D11*
X103704249Y-84483501D02*
X103704249Y-88323499D01*
X95704251Y-88323499D01*
X95704251Y-84483501D01*
X103704249Y-84483501D01*
D12*
%TO.P,"RBJ3","1"*%
X96654250Y-86403500D03*
D13*
%TO.P,"RBJ3","2"*%
X102754250Y-86403500D03*
%TD*%
D10*
%TO.C,"C1"*%
%TO.CFtp,"C_0805_2012Metric_Pad1.18x1.45mm_HandSolder"*%
%TO.CVal,"10nF"*%
%TO.CLbN,"Capacitor_SMD"*%
%TO.CMnt,SMD*%
%TO.CRot,0*%
X207347500Y-99021250D03*
D11*
X209227499Y-98041251D02*
X209227499Y-100001249D01*
X205467501Y-100001249D01*
X205467501Y-98041251D01*
X209227499Y-98041251D01*
D12*
%TO.P,"C1","1"*%
X206310000Y-99021250D03*
D13*
%TO.P,"C1","2"*%
X208385000Y-99021250D03*
%TD*%
D10*
%TO.C,"D6"*%
%TO.CFtp,"SOT-23_Handsoldering"*%
%TO.CVal,"BAT54C"*%
%TO.CLbN,"Package_TO_SOT_SMD"*%
%TO.CMnt,SMD*%
%TO.CRot,0*%
X159230000Y-73830000D03*
D11*
X161929999Y-72080001D02*
X161929999Y-75579999D01*
X156530001Y-75579999D01*
X156530001Y-72080001D01*
X161929999Y-72080001D01*
D12*
%TO.P,"D6","1"*%
X157730000Y-72880000D03*
D13*
%TO.P,"D6","2"*%
X157730000Y-74780000D03*
%TO.P,"D6","3"*%
X160730000Y-73830000D03*
%TD*%
D10*
%TO.C,"C10"*%
%TO.CFtp,"C_0805_2012Metric_Pad1.18x1.45mm_HandSolder"*%
%TO.CVal,"1uF"*%
%TO.CLbN,"Capacitor_SMD"*%
%TO.CMnt,SMD*%
%TO.CRot,0*%
X154217500Y-91470000D03*
D11*
X156097499Y-90490001D02*
X156097499Y-92449999D01*
X152337501Y-92449999D01*
X152337501Y-90490001D01*
X156097499Y-90490001D01*
D12*
%TO.P,"C10","1"*%
X153180000Y-91470000D03*
D13*
%TO.P,"C10","2"*%
X155255000Y-91470000D03*
%TD*%
D10*
%TO.C,"C22"*%
%TO.CFtp,"C_0805_2012Metric_Pad1.18x1.45mm_HandSolder"*%
%TO.CVal,"1uF"*%
%TO.CLbN,"Capacitor_SMD"*%
%TO.CMnt,SMD*%
%TO.CRot,90*%
X203720000Y-78627500D03*
D11*
X204699999Y-76747501D02*
X204699999Y-80507499D01*
X202740001Y-80507499D01*
X202740001Y-76747501D01*
X204699999Y-76747501D01*
D12*
%TO.P,"C22","1"*%
X203720000Y-79665000D03*
D13*
%TO.P,"C22","2"*%
X203720000Y-77590000D03*
%TD*%
D10*
%TO.C,"R14"*%
%TO.CFtp,"R_0402_1005Metric_Pad0.72x0.64mm_HandSolder"*%
%TO.CVal,"24.9k"*%
%TO.CLbN,"My_Passive"*%
%TO.CMnt,SMD*%
%TO.CRot,-90*%
X197990000Y-119750000D03*
D11*
X198459999Y-118650001D02*
X198459999Y-120849999D01*
X197520001Y-120849999D01*
X197520001Y-118650001D01*
X198459999Y-118650001D01*
D12*
%TO.P,"R14","1"*%
X197990000Y-119152500D03*
D13*
%TO.P,"R14","2"*%
X197990000Y-120347500D03*
%TD*%
D10*
%TO.C,"RBJ1"*%
%TO.CFtp,"R_2512_6332Metric_Pad1.40x3.35mm_HandSolder"*%
%TO.CVal,"2"*%
%TO.CLbN,"Resistor_SMD"*%
%TO.CMnt,SMD*%
%TO.CRot,0*%
X99601750Y-63683500D03*
D11*
X103601749Y-61763501D02*
X103601749Y-65603499D01*
X95601751Y-65603499D01*
X95601751Y-61763501D01*
X103601749Y-61763501D01*
D12*
%TO.P,"RBJ1","1"*%
X96551750Y-63683500D03*
D13*
%TO.P,"RBJ1","2"*%
X102651750Y-63683500D03*
%TD*%
D10*
%TO.C,"C6"*%
%TO.CFtp,"C_0805_2012Metric_Pad1.18x1.45mm_HandSolder"*%
%TO.CVal,"1uF"*%
%TO.CLbN,"Capacitor_SMD"*%
%TO.CMnt,SMD*%
%TO.CRot,90*%
X152660000Y-79520000D03*
D11*
X153639999Y-77640001D02*
X153639999Y-81399999D01*
X151680001Y-81399999D01*
X151680001Y-77640001D01*
X153639999Y-77640001D01*
D12*
%TO.P,"C6","1"*%
X152660000Y-80557500D03*
D13*
%TO.P,"C6","2"*%
X152660000Y-78482500D03*
%TD*%
D10*
%TO.C,"U5"*%
%TO.CFtp,"TPS564242DRLR_TEX"*%
%TO.CVal,"TPS564257DRLR"*%
%TO.CLbN,"3.4_Stepdown"*%
%TO.CMnt,SMD*%
%TO.CRot,-90*%
X159110126Y-115972300D03*
D11*
X160003951Y-114667401D02*
X160003951Y-115070600D01*
X160003952Y-115070601D01*
X160215025Y-115070601D01*
X160215025Y-116873999D01*
X160003952Y-116873999D01*
X160003951Y-116874000D01*
X160003951Y-117277199D01*
X158216301Y-117277199D01*
X158216301Y-116874000D01*
X158216300Y-116873999D01*
X158005227Y-116873999D01*
X158005227Y-115070601D01*
X158216300Y-115070601D01*
X158216301Y-115070600D01*
X158216301Y-114667401D01*
X160003951Y-114667401D01*
D12*
%TO.P,"U5","1","VIN"*%
X159610252Y-115224600D03*
D13*
%TO.P,"U5","2","SW"*%
X159110126Y-115224600D03*
%TO.P,"U5","3","GND"*%
X158610000Y-115224600D03*
%TO.P,"U5","4","PG"*%
X158610000Y-116720000D03*
%TO.P,"U5","5","EN"*%
X159110126Y-116720000D03*
%TO.P,"U5","6","FB"*%
X159610252Y-116720000D03*
%TD*%
D10*
%TO.C,"C30"*%
%TO.CFtp,"C_0805_2012Metric_Pad1.18x1.45mm_HandSolder"*%
%TO.CVal,"100nF"*%
%TO.CLbN,"Capacitor_SMD"*%
%TO.CMnt,SMD*%
%TO.CRot,90*%
X190677500Y-64415000D03*
D11*
X191657499Y-62535001D02*
X191657499Y-66294999D01*
X189697501Y-66294999D01*
X189697501Y-62535001D01*
X191657499Y-62535001D01*
D12*
%TO.P,"C30","1"*%
X190677500Y-65452500D03*
D13*
%TO.P,"C30","2"*%
X190677500Y-63377500D03*
%TD*%
D10*
%TO.C,"R25"*%
%TO.CFtp,"R_1210_3225Metric_Pad1.30x2.65mm_HandSolder"*%
%TO.CVal,"100"*%
%TO.CLbN,"Resistor_SMD"*%
%TO.CMnt,SMD*%
%TO.CRot,0*%
X209627500Y-73215000D03*
D11*
X212077499Y-71635001D02*
X212077499Y-74794999D01*
X207177501Y-74794999D01*
X207177501Y-71635001D01*
X212077499Y-71635001D01*
D12*
%TO.P,"R25","1"*%
X208077500Y-73215000D03*
D13*
%TO.P,"R25","2"*%
X211177500Y-73215000D03*
%TD*%
D10*
%TO.C,"CBJ5"*%
%TO.CFtp,"C_1210_3225Metric_Pad1.33x2.70mm_HandSolder"*%
%TO.CVal,"2.2uF"*%
%TO.CLbN,"Capacitor_SMD"*%
%TO.CMnt,SMD*%
%TO.CRot,0*%
X100870250Y-115663500D03*
D11*
X103350249Y-114063501D02*
X103350249Y-117263499D01*
X98390251Y-117263499D01*
X98390251Y-114063501D01*
X103350249Y-114063501D01*
D12*
%TO.P,"CBJ5","1"*%
X99307750Y-115663500D03*
D13*
%TO.P,"CBJ5","2"*%
X102432750Y-115663500D03*
%TD*%
D10*
%TO.C,"SW1"*%
%TO.CFtp,"SW-SPDT-SW"*%
%TO.CVal,"SW_SPDT"*%
%TO.CLbN,"Slide_Switch"*%
%TO.CMnt,TH*%
%TO.CRot,0*%
X118920000Y-58800000D03*
D11*
X125619999Y-55200001D02*
X125619999Y-62399999D01*
X112220001Y-62399999D01*
X112220001Y-55200001D01*
X125619999Y-55200001D01*
D12*
%TO.P,"SW1","1","A"*%
X114220000Y-58800000D03*
D13*
%TO.P,"SW1","2","B"*%
X118920000Y-58800000D03*
%TO.P,"SW1","3","C"*%
X123620000Y-58800000D03*
%TD*%
D10*
%TO.C,"C3"*%
%TO.CFtp,"C_0805_2012Metric_Pad1.18x1.45mm_HandSolder"*%
%TO.CVal,"1uF"*%
%TO.CLbN,"Capacitor_SMD"*%
%TO.CMnt,SMD*%
%TO.CRot,90*%
X148050000Y-79590000D03*
D11*
X149029999Y-77710001D02*
X149029999Y-81469999D01*
X147070001Y-81469999D01*
X147070001Y-77710001D01*
X149029999Y-77710001D01*
D12*
%TO.P,"C3","1"*%
X148050000Y-80627500D03*
D13*
%TO.P,"C3","2"*%
X148050000Y-78552500D03*
%TD*%
D10*
%TO.C,"C33"*%
%TO.CFtp,"C_0805_2012Metric_Pad1.18x1.45mm_HandSolder"*%
%TO.CVal,"4.7uF"*%
%TO.CLbN,"Capacitor_SMD"*%
%TO.CMnt,SMD*%
%TO.CRot,-90*%
X188637500Y-77715000D03*
D11*
X189617499Y-75835001D02*
X189617499Y-79594999D01*
X187657501Y-79594999D01*
X187657501Y-75835001D01*
X189617499Y-75835001D01*
D12*
%TO.P,"C33","1"*%
X188637500Y-76677500D03*
D13*
%TO.P,"C33","2"*%
X188637500Y-78752500D03*
%TD*%
D10*
%TO.C,"RBJ6"*%
%TO.CFtp,"R_2512_6332Metric_Pad1.40x3.35mm_HandSolder"*%
%TO.CVal,"2"*%
%TO.CLbN,"Resistor_SMD"*%
%TO.CMnt,SMD*%
%TO.CRot,0*%
X100214250Y-121963500D03*
D11*
X104214249Y-120043501D02*
X104214249Y-123883499D01*
X96214251Y-123883499D01*
X96214251Y-120043501D01*
X104214249Y-120043501D01*
D12*
%TO.P,"RBJ6","1"*%
X97164250Y-121963500D03*
D13*
%TO.P,"RBJ6","2"*%
X103264250Y-121963500D03*
%TD*%
D10*
%TO.C,"C16"*%
%TO.CFtp,"C_0805_2012Metric_Pad1.18x1.45mm_HandSolder"*%
%TO.CVal,"1uF"*%
%TO.CLbN,"Capacitor_SMD"*%
%TO.CMnt,SMD*%
%TO.CRot,-90*%
X143105000Y-87527500D03*
D11*
X144084999Y-85647501D02*
X144084999Y-89407499D01*
X142125001Y-89407499D01*
X142125001Y-85647501D01*
X144084999Y-85647501D01*
D12*
%TO.P,"C16","1"*%
X143105000Y-86490000D03*
D13*
%TO.P,"C16","2"*%
X143105000Y-88565000D03*
%TD*%
D10*
%TO.C,"J11"*%
%TO.CFtp,"CONN_1729128_PXC"*%
%TO.CVal,"Screw_Terminal_01x02"*%
%TO.CLbN,"Screw_Terminal"*%
%TO.CMnt,TH*%
%TO.CRot,0*%
X141322693Y-129185707D03*
D11*
X149196692Y-124831709D02*
X149196692Y-133489706D01*
X138528694Y-133489706D01*
X138528694Y-124831709D01*
X149196692Y-124831709D01*
D12*
%TO.P,"J11","1","Pin_1"*%
X141322693Y-129185707D03*
D13*
%TO.P,"J11","2","Pin_2"*%
X146402693Y-129185707D03*
%TD*%
D10*
%TO.C,"C35"*%
%TO.CFtp,"C_0805_2012Metric_Pad1.18x1.45mm_HandSolder"*%
%TO.CVal,"100nF"*%
%TO.CLbN,"Capacitor_SMD"*%
%TO.CMnt,SMD*%
%TO.CRot,-90*%
X150180000Y-117020000D03*
D11*
X151159999Y-115140001D02*
X151159999Y-118899999D01*
X149200001Y-118899999D01*
X149200001Y-115140001D01*
X151159999Y-115140001D01*
D12*
%TO.P,"C35","1"*%
X150180000Y-115982500D03*
D13*
%TO.P,"C35","2"*%
X150180000Y-118057500D03*
%TD*%
D10*
%TO.C,"R2"*%
%TO.CFtp,"R_0402_1005Metric_Pad0.72x0.64mm_HandSolder"*%
%TO.CVal,"100k"*%
%TO.CLbN,"My_Passive"*%
%TO.CMnt,SMD*%
%TO.CRot,0*%
X202157500Y-103431250D03*
D11*
X203257499Y-102961251D02*
X203257499Y-103901249D01*
X201057501Y-103901249D01*
X201057501Y-102961251D01*
X203257499Y-102961251D01*
D12*
%TO.P,"R2","1"*%
X201560000Y-103431250D03*
D13*
%TO.P,"R2","2"*%
X202755000Y-103431250D03*
%TD*%
D10*
%TO.C,"C5"*%
%TO.CFtp,"C_0805_2012Metric_Pad1.18x1.45mm_HandSolder"*%
%TO.CVal,"100nF"*%
%TO.CLbN,"Capacitor_SMD"*%
%TO.CMnt,SMD*%
%TO.CRot,0*%
X158255000Y-79468750D03*
D11*
X160134999Y-78488751D02*
X160134999Y-80448749D01*
X156375001Y-80448749D01*
X156375001Y-78488751D01*
X160134999Y-78488751D01*
D12*
%TO.P,"C5","1"*%
X157217500Y-79468750D03*
D13*
%TO.P,"C5","2"*%
X159292500Y-79468750D03*
%TD*%
D10*
%TO.C,"D8"*%
%TO.CFtp,"DIO_PDS1040L-13"*%
%TO.CVal,"PDS1040L-13"*%
%TO.CLbN,"PDS1040L-13_solar"*%
%TO.CMnt,SMD*%
%TO.CRot,0*%
X109467750Y-113123500D03*
D11*
X113277749Y-110888501D02*
X113277749Y-115358499D01*
X105657751Y-115358499D01*
X105657751Y-110888501D01*
X113277749Y-110888501D01*
D12*
%TO.P,"D8","1"*%
X106611750Y-112203500D03*
D13*
%TO.P,"D8","2"*%
X106611750Y-114043500D03*
%TO.P,"D8","3"*%
X110593750Y-113123500D03*
%TD*%
D10*
%TO.C,"C13"*%
%TO.CFtp,"C_1206_3216Metric_Pad1.33x1.80mm_HandSolder"*%
%TO.CVal,"10uF"*%
%TO.CLbN,"Capacitor_SMD"*%
%TO.CMnt,SMD*%
%TO.CRot,180*%
X160905000Y-82398750D03*
D11*
X163384999Y-81248751D02*
X163384999Y-83548749D01*
X158425001Y-83548749D01*
X158425001Y-81248751D01*
X163384999Y-81248751D01*
D12*
%TO.P,"C13","1"*%
X162467500Y-82398750D03*
D13*
%TO.P,"C13","2"*%
X159342500Y-82398750D03*
%TD*%
M02*
